<?xml version="1.0" encoding="utf-8"?><!DOCTYPE svg PUBLIC "-//W3C//DTD SVG 1.1//EN" "http://www.w3.org/Graphics/SVG/1.1/DTD/svg11.dtd"><svg version="1.1" id="Contours" xmlns="http://www.w3.org/2000/svg" xmlns:xlink="http://www.w3.org/1999/xlink" x="0px" y="0px" width="1807.282837px" height="1807.282837px" viewBox="-0.000000 0.000022 1807.282837 426.068878" enable-background="new 0 0 1807.282837 1807.282837" xml:space="preserve" stroke="black" fill="none" stroke-linecap='round' stroke-linejoin='round'><path class="selected"  fill="#ffffff" opacity="1.000000" stroke="none" 
 	d="
M412.722659 68.105240 C327.923898 70.459471 230.484229 96.316610 196.637632 174.103371 C186.589178 197.196870 183.398492 222.659511 175.296738 246.505743 C150.655751 319.032622 76.596779 371.715669 0.000000 371.205917 C30.874746 335.067566 88.487818 333.936886 122.426524 300.659351 C156.423210 267.324983 156.350534 213.314232 175.382463 169.670898 C202.372916 107.777345 267.700344 69.947094 333.779194 56.058904 C399.858044 42.170713 468.219635 48.068135 535.724922 49.595393 C603.230208 51.122652 673.314468 47.593178 733.508228 16.998939 C766.457664 0.251971 805.014225 -0.052957 841.975326 0.004082 C953.388287 0.176018 1064.801247 0.347954 1176.214208 0.519890 C1176.399462 13.831830 1176.584715 27.143770 1176.769968 40.455710 C1296.572665 40.189561 1416.375362 39.923411 1536.178059 39.657262 C1573.781154 39.573724 1618.398322 43.273654 1637.380296 75.734161 C1660.961549 39.158976 1716.251278 49.473970 1757.224463 64.137517 C1771.247051 69.155943 1785.790158 74.501096 1796.176122 85.175801 C1806.562085 95.850507 1811.375074 113.527780 1803.032096 125.865214 C1798.686997 132.290662 1791.627441 136.252666 1784.827076 139.983789 C1760.939376 153.090136 1736.336774 166.436854 1709.316626 169.945437 C1682.296479 173.454020 1651.917526 164.932569 1636.943258 142.169225 C1621.639199 175.075797 1577.615546 179.798560 1541.324342 179.870425 C1419.949625 180.110743 1298.574911 180.351071 1177.200196 180.591398 C1176.886572 192.513731 1176.572949 204.436065 1176.259325 216.358399 C1064.203499 216.383815 952.147673 216.409232 840.091846 216.434648 C804.040469 216.442827 767.334208 216.355910 732.925982 205.595993 C635.796807 175.222376 532.006640 176.462467 430.250439 177.981926 C385.840742 178.645079 338.004655 180.443846 302.801988 207.525815 C273.083490 230.388729 258.070768 267.103996 245.321377 302.365234 C232.571986 337.626472 219.874990 374.684125 192.806187 400.629872 C165.737384 426.575619 119.200446 436.626980 91.089351 411.814318 C145.038333 411.685552 197.434230 377.584880 219.396597 328.308480 C234.773098 293.808614 236.197484 253.427411 256.835402 221.792718 C288.854403 172.712601 354.502897 161.110479 412.666186 153.961618 C412.685012 125.342828 412.703836 96.724034 412.722659 68.105240 M791.548960 21.847369 C782.470544 23.441465 773.720875 26.489545 765.017829 29.525294 C734.873287 40.040150 704.728745 50.555005 674.584203 61.069860 C672.966181 61.634250 671.264229 62.255517 670.174489 63.578013 C668.801160 65.244672 668.733449 67.595449 668.730961 69.755026 C668.697312 98.962335 668.663663 128.169643 668.630014 157.376952 C705.932959 169.756448 743.235903 182.135944 780.538848 194.515440 C780.494282 178.738543 780.449717 162.961646 780.405151 147.184749 C780.392169 142.588862 780.421736 137.800940 782.466335 133.684879 C784.510934 129.568818 789.229225 126.388631 793.643836 127.666738 C799.832698 129.458522 800.949152 137.614871 800.874504 144.057459 C800.705976 158.602376 800.537448 173.147292 800.368921 187.692208 C800.316365 192.228062 804.377306 195.972910 808.765562 197.121797 C813.153818 198.270685 817.788089 197.435934 822.245970 196.596867 C828.979668 195.329444 829.485495 186.038799 828.964353 179.206708 C828.443211 172.374617 831.496438 162.854886 838.220434 164.172811 C841.969508 164.907643 844.090121 169.072721 844.335257 172.885258 C844.580393 176.697796 843.529067 180.489203 843.598595 184.308981 C843.754181 192.856828 853.990537 201.368238 860.559479 195.896594 C860.595653 173.533242 860.631824 151.169890 860.667996 128.806539 C860.684646 118.512471 861.591228 106.473915 870.192662 100.818524 C879.119650 102.812747 880.985971 114.535622 880.934420 123.682500 C880.807180 146.259245 880.679939 168.835990 880.552699 191.412734 C880.531350 195.200727 885.611988 196.404008 889.400041 196.403267 C976.506106 196.386181 1063.612170 196.369099 1150.718234 196.352017 C1152.401732 196.351687 1154.267833 196.281421 1155.478741 195.111862 C1156.747552 193.886377 1156.827982 191.913889 1156.824836 190.149892 C1156.723882 133.554399 1156.622928 76.958905 1156.521974 20.363412 C1123.342848 20.364623 1090.163723 20.365835 1056.984598 20.367046 C1056.925977 44.565691 1056.867357 68.764335 1056.808736 92.962980 C1056.791453 100.097478 1053.577811 110.004390 1046.625972 108.400236 C1041.347926 107.182315 1040.320551 100.215855 1040.423053 94.800081 C1040.763136 76.831413 1041.103220 58.862746 1041.443303 40.894079 C1041.555909 34.944426 1041.538667 28.545173 1038.123211 23.672216 C1034.707755 18.799260 1026.501503 16.975656 1022.950145 21.750476 C1020.347293 25.250026 1021.455931 30.114443 1021.375358 34.475085 C1021.238564 41.878357 1016.997051 49.074607 1010.586336 52.779991 C1002.198882 45.168670 998.603700 32.674765 1001.662946 21.769601 C997.236354 16.693301 988.288903 18.194205 983.947059 23.343179 C979.605216 28.492153 978.950286 35.826443 979.679895 42.522055 C980.272059 47.956344 981.641600 53.354452 981.312350 58.810985 C980.983099 64.267518 978.494898 70.048821 973.533428 72.343590 C968.571957 74.638360 961.358213 71.442410 961.258777 65.976857 C961.016321 52.650103 960.773865 39.323349 960.531409 25.996595 C960.504608 24.523434 960.424380 22.908931 959.431927 21.819913 C958.290045 20.566926 956.383487 20.474247 954.688242 20.470221 C910.316187 20.364828 865.944132 20.259435 821.572077 20.154043 C811.534652 20.130202 801.435162 20.111432 791.548960 21.847369 M1177.146764 161.100001 C1272.597010 160.418615 1368.047255 159.737229 1463.497500 159.055843 C1468.003344 159.023677 1472.509189 158.991512 1477.015034 158.959346 C1491.481562 158.856075 1505.948090 158.752803 1520.414617 158.649532 C1526.833311 158.603711 1528.824801 150.013042 1528.819184 143.594187 C1528.798987 120.521994 1528.778792 97.449802 1528.758597 74.377609 C1528.755496 70.835285 1528.649087 66.986039 1526.419006 64.233802 C1523.500871 60.632417 1518.209724 60.337254 1513.574481 60.337795 C1401.431241 60.351006 1289.288004 60.364209 1177.144766 60.377412 C1176.439800 93.946679 1176.440466 127.530762 1177.146764 161.100001 M533.090636 147.271585 C531.126330 139.781344 535.857761 131.168999 543.233145 128.809776 C550.844196 132.969738 554.863887 142.752762 552.376277 151.062105 C551.577851 153.729082 555.106887 155.465818 557.839450 155.998123 C563.261848 157.054407 568.981450 158.094147 574.210442 156.312078 C579.439434 154.530009 583.772289 148.842471 582.033380 143.598968 C576.744633 127.651296 579.648144 109.219770 589.583554 95.670354 C598.967505 97.865611 600.884761 110.192857 600.821109 119.829954 C600.747262 131.010492 600.673415 142.191029 600.599568 153.371566 C600.578121 156.618784 604.950878 157.628564 608.198030 157.598770 C620.310554 157.487623 632.423076 157.376479 644.535599 157.265335 C644.632320 129.640406 644.729040 102.015477 644.825761 74.390549 C644.831193 72.839201 644.786765 71.143531 643.784390 69.959489 C642.552144 68.503915 640.386950 68.389908 638.479825 68.389164 C575.050776 68.364413 511.621727 68.339662 448.192677 68.314911 C442.775419 68.312797 436.281248 68.921892 433.751512 73.712207 C432.611627 75.870696 432.592940 78.424666 432.600674 80.865639 C432.668477 102.265930 432.736280 123.666222 432.804083 145.066513 C432.810762 147.174595 432.824006 149.324769 433.490032 151.324885 C435.088256 156.124445 440.780060 159.128303 445.644299 157.739319 C450.508537 156.350334 453.755942 150.793882 452.578800 145.874082 C450.953232 139.080108 456.792511 132.967972 462.213366 128.561739 C468.473015 131.196359 472.929190 137.657109 473.168120 144.444398 C473.301441 148.231643 472.377015 152.526252 474.806405 155.434700 C477.914891 159.156156 484.496567 157.350669 487.107719 153.264863 C489.718870 149.179057 489.532195 143.973011 489.255852 139.131983 C488.981918 134.333163 488.707985 129.534343 488.434051 124.735524 C487.967190 116.556970 489.957554 105.430884 498.140232 105.042978 C502.394090 104.841321 506.151141 108.241444 507.753455 112.187145 C509.355769 116.132846 509.273348 120.531188 509.166636 124.788486 C508.942208 133.742042 508.717781 142.695598 508.493353 151.649155 C508.419293 154.603779 512.084119 155.961981 514.996512 156.465233 C518.995032 157.156164 523.194376 157.833666 527.035189 156.524581 C530.876002 155.215496 534.119974 151.196634 533.090636 147.271585 M1696.216204 68.937718 C1690.000860 66.700111 1683.247198 69.924827 1677.580924 73.320518 C1668.893486 78.526742 1660.578595 84.354484 1652.720832 90.744467 C1645.018231 97.008269 1637.039691 106.468971 1640.600682 115.736366 C1642.591128 120.916452 1647.663373 124.142701 1652.437368 126.971857 C1659.600344 131.216766 1666.805746 135.390082 1674.052136 139.490973 C1680.573994 143.181837 1687.342936 146.885685 1694.783407 147.778163 C1703.968091 148.879859 1713.047937 145.585081 1721.712415 142.344869 C1738.079378 136.224197 1754.446340 130.103526 1770.813302 123.982854 C1775.178666 122.350361 1779.718996 120.602129 1782.851801 117.151482 C1785.984605 113.700835 1787.170366 107.999623 1784.203080 104.405650 C1755.332635 91.485440 1725.976012 79.651645 1696.216204 68.937718 M1579.733650 60.334167 C1571.286038 60.329325 1562.838425 60.324482 1554.390813 60.319640 C1552.878886 60.318773 1551.216035 60.372791 1550.092636 61.384669 C1548.810678 62.539366 1548.718002 64.483684 1548.717624 66.209008 C1548.711495 94.185588 1548.705366 122.162167 1548.699237 150.138747 C1548.698812 152.078042 1548.855231 154.334137 1550.450457 155.436915 C1551.340732 156.052357 1552.480047 156.143182 1553.560138 156.212178 C1564.591672 156.916856 1575.930341 157.373527 1586.430629 153.918780 C1601.345369 149.011614 1613.266993 135.902652 1616.740325 120.590379 C1619.633119 107.837423 1616.741676 93.928093 1609.177354 83.260987 C1605.789624 78.483654 1601.558756 74.377120 1597.353832 70.300573 C1592.379380 65.477992 1586.662030 60.338138 1579.733650 60.334167 z"/></svg>
