<svg width="515" height="515" viewBox="0 0 515 515" fill="none" xmlns="http://www.w3.org/2000/svg">
<rect x="7" y="7" width="500" height="500" fill="url(#paint0_linear)"/>
<rect x="22" y="22" width="470" height="369" rx="7" fill="#1B1A1F"/>
<path d="M140.85 470L144.737 458.06H163.631L167.518 470H179.381L161.33 417.636H147.063L128.987 470H140.85ZM147.549 449.418L153.992 429.602H154.401L160.844 449.418H147.549ZM196.371 447.295C196.397 442.233 199.414 439.267 203.812 439.267C208.184 439.267 210.817 442.131 210.792 446.938V470H221.684V444.994C221.684 435.841 216.315 430.216 208.133 430.216C202.303 430.216 198.085 433.08 196.32 437.656H195.86V430.727H185.479V470H196.371V447.295ZM248.013 470.767C258.47 470.767 265.041 464.631 265.553 455.605H255.274C254.635 459.798 251.874 462.151 248.141 462.151C243.053 462.151 239.754 457.881 239.754 450.364C239.754 442.949 243.078 438.705 248.141 438.705C252.129 438.705 254.686 441.338 255.274 445.25H265.553C265.092 436.173 258.214 430.216 247.962 430.216C236.047 430.216 228.683 438.474 228.683 450.517C228.683 462.457 235.919 470.767 248.013 470.767ZM283.418 447.295C283.444 442.233 286.538 439.267 290.987 439.267C295.41 439.267 298.018 442.105 297.992 446.938V470H308.884V444.994C308.91 435.79 303.489 430.216 295.308 430.216C289.35 430.216 285.362 433.028 283.572 437.656H283.112V417.636H272.526V470H283.418V447.295ZM335.2 470.767C347.115 470.767 354.53 462.611 354.53 450.517C354.53 438.347 347.115 430.216 335.2 430.216C323.286 430.216 315.871 438.347 315.871 450.517C315.871 462.611 323.286 470.767 335.2 470.767ZM335.251 462.33C329.754 462.33 326.942 457.293 326.942 450.44C326.942 443.588 329.754 438.526 335.251 438.526C340.646 438.526 343.459 443.588 343.459 450.44C343.459 457.293 340.646 462.33 335.251 462.33ZM361.612 470H372.504V447.781C372.504 442.949 376.033 439.625 380.839 439.625C382.348 439.625 384.419 439.881 385.442 440.213V430.548C384.47 430.318 383.115 430.165 382.016 430.165C377.618 430.165 374.013 432.722 372.581 437.58H372.172V430.727H361.612V470Z" fill="black"/>
<path d="M422.488 152.518C422.488 152.518 407.729 146.782 392.413 150.505C380.963 153.27 368.402 160.385 361.259 175.163C347.482 203.503 359.407 252.931 354.745 252.931C350.083 252.931 335.396 207.384 315.756 159.95C296.117 112.522 279.127 63.2521 248.464 67.2253C221.263 70.7366 229.71 126.91 240.355 179.525C250.002 227.211 261.162 271.86 254.785 271.86C243.391 271.88 205.996 140.057 167.676 145.06C129.355 150.069 178.715 295.31 168.344 295.587C159.817 295.812 138.921 207.173 107.904 211.245C84.3996 214.334 105.343 283.291 106.31 302.524C106.543 307.349 108.371 316.397 99.5377 316.397H82V329.802H110.714C116.617 329.578 121.287 327.73 123.646 322.978C131.618 306.887 110.674 238.51 115.578 238.015C118.944 237.678 126.207 258.488 136.344 282.018C146.474 305.547 156.636 329.947 175.881 329.947C217.39 329.947 175.052 196.553 183.281 196.553C187.629 196.553 199.498 223.653 212.551 253.387C228.51 289.713 247.972 330 271.477 330C299.523 330 290.384 277.959 281.711 228.102C274.191 184.951 265.373 144.4 270.076 144.4C280.665 144.406 320.636 329.934 368.643 329.934C392.695 329.934 392.969 291.145 392.969 249.327C392.969 219.951 389.973 193.187 412.488 186.752C423.197 183.69 434.019 189.115 434.019 189.115L422.488 152.518V152.518Z" fill="white"/>
<defs>
<linearGradient id="paint0_linear" x1="257" y1="7" x2="257" y2="507" gradientUnits="userSpaceOnUse">
<stop stop-color="#F8F3EF"/>
<stop offset="1" stop-color="#F0EEE9"/>
</linearGradient>
</defs>
</svg>
