<svg width="515" height="515" viewBox="0 0 515 515" fill="none" xmlns="http://www.w3.org/2000/svg">
<circle cx="258" cy="257" r="243" fill="#1B1A1F"/>
<circle cx="257.5" cy="257.5" r="217" fill="#1B1A1F" stroke="#2B2B2B" stroke-width="3"/>
<circle cx="257.5" cy="257.5" r="193" fill="#1B1A1F" stroke="#2B2B2B" stroke-width="3"/>
<circle cx="258" cy="257" r="202.427" fill="#1B1A1F" stroke="#2B2B2B" stroke-width="3.14653"/>
<circle cx="257.5" cy="257.5" r="172" fill="#1B1A1F" stroke="#2B2B2B" stroke-width="3"/>
<circle cx="259.5" cy="255.5" r="180.922" fill="#1B1A1F" stroke="#2B2B2B" stroke-width="3.15562"/>
<circle cx="258" cy="257" r="149.5" fill="#1B1A1F" stroke="#2B2B2B" stroke-width="3"/>
<circle cx="259" cy="256" r="162.371" fill="#1B1A1F" stroke="#2B2B2B" stroke-width="3.25828"/>
<circle cx="258" cy="257" r="128.5" fill="#1B1A1F" stroke="#2B2B2B" stroke-width="3"/>
<circle cx="257.5" cy="257.5" r="99" fill="#1B1A1F" stroke="#2B2B2B" stroke-width="3"/>
<path d="M313.222 239.94C313.222 239.94 308.228 237.999 303.045 239.258C299.17 240.194 294.919 242.602 292.502 247.603C287.84 257.193 291.875 273.92 290.298 273.92C288.72 273.92 283.75 258.506 277.104 242.454C270.458 226.405 264.708 209.732 254.332 211.076C245.127 212.264 247.986 231.274 251.588 249.079C254.852 265.216 258.629 280.325 256.471 280.325C252.615 280.332 239.961 235.723 226.993 237.416C214.025 239.111 230.729 288.261 227.219 288.355C224.333 288.431 217.262 258.435 206.766 259.813C198.812 260.858 205.899 284.194 206.226 290.702C206.305 292.335 206.924 295.397 203.935 295.397H198V299.933H207.717C209.714 299.857 211.295 299.232 212.093 297.624C214.791 292.178 207.703 269.04 209.363 268.872C210.502 268.758 212.96 275.8 216.39 283.763C219.818 291.725 223.257 299.982 229.77 299.982C243.816 299.982 229.489 254.841 232.274 254.841C233.745 254.841 237.762 264.012 242.179 274.074C247.58 286.367 254.166 300 262.12 300C271.61 300 268.518 282.389 265.583 265.517C263.038 250.915 260.054 237.192 261.645 237.192C265.229 237.195 278.755 299.978 295.001 299.978C303.14 299.978 303.233 286.852 303.233 272.7C303.233 262.759 302.219 253.702 309.838 251.525C313.462 250.488 317.124 252.324 317.124 252.324L313.222 239.94V239.94Z" fill="white"/>
</svg>
