<svg width="515" height="515" viewBox="0 0 515 515" fill="none" xmlns="http://www.w3.org/2000/svg">
<rect x="7" y="7" width="500" height="500" fill="url(#paint0_linear)"/>
<rect x="22" y="22" width="470" height="369" rx="7" fill="#1B1A1F"/>
<path d="M166.172 470H201.559V460.872H177.243V448.369H199.641V439.241H177.243V426.764H201.456V417.636H166.172V470ZM210.054 470H220.946V446.426C220.946 442.08 223.707 439.19 227.338 439.19C230.917 439.19 233.321 441.645 233.321 445.506V470H243.88V446.017C243.88 441.952 246.207 439.19 250.17 439.19C253.647 439.19 256.255 441.364 256.255 445.736V470H267.122V443.588C267.122 435.074 262.059 430.216 254.747 430.216C248.994 430.216 244.52 433.156 242.909 437.656H242.5C241.247 433.105 237.233 430.216 231.838 430.216C226.545 430.216 222.531 433.028 220.895 437.656H220.434V430.727H210.054V470ZM286.924 470.741C292.728 470.741 296.487 468.21 298.404 464.554H298.711V470H309.041V443.511C309.041 434.153 301.115 430.216 292.37 430.216C282.961 430.216 276.774 434.716 275.265 441.875L285.339 442.693C286.081 440.085 288.407 438.168 292.319 438.168C296.027 438.168 298.149 440.034 298.149 443.256V443.409C298.149 445.94 295.464 446.273 288.637 446.938C280.865 447.653 273.885 450.261 273.885 459.031C273.885 466.804 279.433 470.741 286.924 470.741ZM290.044 463.224C286.694 463.224 284.291 461.665 284.291 458.673C284.291 455.605 286.822 454.097 290.657 453.56C293.035 453.227 296.922 452.665 298.225 451.795V455.963C298.225 460.08 294.825 463.224 290.044 463.224ZM317.491 470H328.383V430.727H317.491V470ZM322.963 425.665C326.21 425.665 328.869 423.185 328.869 420.142C328.869 417.125 326.21 414.645 322.963 414.645C319.741 414.645 317.082 417.125 317.082 420.142C317.082 423.185 319.741 425.665 322.963 425.665ZM348 417.636H337.108V470H348V417.636Z" fill="black"/>
<path d="M265.107 239.724C262.623 241.277 259.829 241.898 257.345 241.898C254.861 241.898 252.066 241.277 249.582 239.724L126 164.271V264.565C126 285.99 143.388 303.378 164.813 303.378H350.187C371.612 303.378 389 285.99 389 264.565V164.271L265.107 239.724Z" fill="white"/>
<path d="M350.187 109.622H164.813C146.494 109.622 130.968 122.663 127.242 140.051L257.655 219.541L387.758 140.051C384.032 122.663 368.506 109.622 350.187 109.622Z" fill="white"/>
<defs>
<linearGradient id="paint0_linear" x1="257" y1="7" x2="257" y2="507" gradientUnits="userSpaceOnUse">
<stop stop-color="#F8F3EF"/>
<stop offset="1" stop-color="#F0EEE9"/>
</linearGradient>
</defs>
</svg>
