<svg width="515" height="515" viewBox="0 0 515 515" fill="none" xmlns="http://www.w3.org/2000/svg">
<rect x="7" y="7" width="500" height="500" fill="url(#paint0_linear)"/>
<rect x="22" y="22" width="470" height="369" rx="7" fill="#1B1A1F"/>
<path d="M89.2152 470H100.286V448.369H121.585V439.241H100.286V426.764H123.886V417.636H89.2152V470ZM141.835 470.741C147.638 470.741 151.397 468.21 153.315 464.554H153.621V470H163.951V443.511C163.951 434.153 156.025 430.216 147.281 430.216C137.871 430.216 131.684 434.716 130.175 441.875L140.249 442.693C140.991 440.085 143.317 438.168 147.229 438.168C150.937 438.168 153.059 440.034 153.059 443.256V443.409C153.059 445.94 150.374 446.273 143.548 446.938C135.775 447.653 128.795 450.261 128.795 459.031C128.795 466.804 134.343 470.741 141.835 470.741ZM144.954 463.224C141.604 463.224 139.201 461.665 139.201 458.673C139.201 455.605 141.732 454.097 145.567 453.56C147.945 453.227 151.832 452.665 153.136 451.795V455.963C153.136 460.08 149.735 463.224 144.954 463.224ZM190.146 470.767C200.603 470.767 207.174 464.631 207.685 455.605H197.407C196.768 459.798 194.006 462.151 190.273 462.151C185.185 462.151 181.887 457.881 181.887 450.364C181.887 442.949 185.211 438.705 190.273 438.705C194.262 438.705 196.819 441.338 197.407 445.25H207.685C207.225 436.173 200.347 430.216 190.094 430.216C178.18 430.216 170.816 438.474 170.816 450.517C170.816 462.457 178.052 470.767 190.146 470.767ZM232.557 470.767C242.273 470.767 248.818 466.037 250.352 458.75L240.278 458.085C239.179 461.077 236.366 462.636 232.736 462.636C227.29 462.636 223.838 459.031 223.838 453.176V453.151H250.582V450.159C250.582 436.812 242.503 430.216 232.122 430.216C220.565 430.216 213.074 438.423 213.074 450.543C213.074 462.994 220.463 470.767 232.557 470.767ZM223.838 446.401C224.068 441.926 227.469 438.347 232.301 438.347C237.031 438.347 240.304 441.722 240.33 446.401H223.838ZM257.895 470H268.634V463.71H269.119C270.628 466.983 273.926 470.639 280.267 470.639C289.216 470.639 296.196 463.557 296.196 450.415C296.196 436.915 288.909 430.216 280.293 430.216C273.722 430.216 270.577 434.128 269.119 437.324H268.787V417.636H257.895V470ZM268.557 450.364C268.557 443.358 271.523 438.884 276.815 438.884C282.21 438.884 285.074 443.562 285.074 450.364C285.074 457.216 282.159 461.972 276.815 461.972C271.574 461.972 268.557 457.369 268.557 450.364ZM321.208 470.767C333.123 470.767 340.538 462.611 340.538 450.517C340.538 438.347 333.123 430.216 321.208 430.216C309.293 430.216 301.879 438.347 301.879 450.517C301.879 462.611 309.293 470.767 321.208 470.767ZM321.259 462.33C315.762 462.33 312.95 457.293 312.95 450.44C312.95 443.588 315.762 438.526 321.259 438.526C326.654 438.526 329.467 443.588 329.467 450.44C329.467 457.293 326.654 462.33 321.259 462.33ZM365.364 470.767C377.279 470.767 384.694 462.611 384.694 450.517C384.694 438.347 377.279 430.216 365.364 430.216C353.45 430.216 346.035 438.347 346.035 450.517C346.035 462.611 353.45 470.767 365.364 470.767ZM365.415 462.33C359.918 462.33 357.106 457.293 357.106 450.44C357.106 443.588 359.918 438.526 365.415 438.526C370.81 438.526 373.623 443.588 373.623 450.44C373.623 457.293 370.81 462.33 365.415 462.33ZM391.776 470H402.668V457.523L405.609 454.173L416.322 470H429.08L413.765 447.73L428.339 430.727H415.836L403.256 445.634H402.668V417.636H391.776V470Z" fill="black"/>
<path d="M389 206.5C389 133.867 330.133 75 257.5 75C184.867 75 126 133.867 126 206.5C126 279.133 184.867 338 257.5 338C258.271 338 259.041 338 259.812 337.949V235.625H231.56V202.699H259.812V178.454C259.812 150.356 276.968 135.048 302.035 135.048C314.055 135.048 324.38 135.921 327.359 136.332V165.714H310.1C296.488 165.714 293.817 172.187 293.817 181.69V202.647H326.435L322.171 235.574H293.817V332.915C348.779 317.145 389 266.548 389 206.5V206.5Z" fill="white"/>
<defs>
<linearGradient id="paint0_linear" x1="257" y1="7" x2="257" y2="507" gradientUnits="userSpaceOnUse">
<stop stop-color="#F8F3EF"/>
<stop offset="1" stop-color="#F0EEE9"/>
</linearGradient>
</defs>
</svg>
