<svg width="515" height="515" viewBox="0 0 515 515" fill="none" xmlns="http://www.w3.org/2000/svg">
<rect x="7" y="7" width="500" height="500" fill="url(#paint0_linear)"/>
<rect x="22" y="22" width="470" height="369" rx="7" fill="#1B1A1F"/>
<path d="M94.38 417.636H83.3089V470H94.38V417.636ZM114.176 447.295C114.202 442.233 117.219 439.267 121.616 439.267C125.989 439.267 128.622 442.131 128.597 446.938V470H139.489V444.994C139.489 435.841 134.119 430.216 125.938 430.216C120.108 430.216 115.889 433.08 114.125 437.656H113.665V430.727H103.284V470H114.176V447.295ZM180.749 441.926C179.778 434.69 173.948 430.216 164.028 430.216C153.979 430.216 147.357 434.869 147.383 442.438C147.357 448.318 151.065 452.128 158.735 453.662L165.536 455.017C168.962 455.707 170.522 456.96 170.573 458.929C170.522 461.256 167.991 462.918 164.181 462.918C160.295 462.918 157.712 461.256 157.048 458.06L146.335 458.622C147.357 466.139 153.749 470.767 164.156 470.767C174.332 470.767 181.619 465.577 181.644 457.83C181.619 452.153 177.911 448.753 170.292 447.193L163.184 445.761C159.528 444.969 158.173 443.716 158.198 441.824C158.173 439.472 160.832 437.938 164.207 437.938C167.991 437.938 170.241 440.009 170.778 442.54L180.749 441.926ZM209.392 430.727H202.003V421.318H191.111V430.727H185.741V438.909H191.111V459.364C191.06 467.06 196.301 470.869 204.202 470.537C207.014 470.435 209.009 469.872 210.108 469.514L208.395 461.409C207.858 461.511 206.707 461.767 205.685 461.767C203.511 461.767 202.003 460.949 202.003 457.932V438.909H209.392V430.727ZM227.686 470.741C233.49 470.741 237.249 468.21 239.166 464.554H239.473V470H249.803V443.511C249.803 434.153 241.876 430.216 233.132 430.216C223.723 430.216 217.536 434.716 216.027 441.875L226.101 442.693C226.842 440.085 229.169 438.168 233.081 438.168C236.788 438.168 238.911 440.034 238.911 443.256V443.409C238.911 445.94 236.226 446.273 229.399 446.938C221.626 447.653 214.646 450.261 214.646 459.031C214.646 466.804 220.195 470.741 227.686 470.741ZM230.805 463.224C227.456 463.224 225.053 461.665 225.053 458.673C225.053 455.605 227.584 454.097 231.419 453.56C233.797 453.227 237.683 452.665 238.987 451.795V455.963C238.987 460.08 235.587 463.224 230.805 463.224ZM275.946 485.545C287.17 485.545 295.148 480.432 295.148 470.384V430.727H284.332V437.324H283.923C282.466 434.128 279.27 430.216 272.699 430.216C264.082 430.216 256.795 436.915 256.795 450.287C256.795 463.352 263.878 469.438 272.724 469.438C278.989 469.438 282.491 466.293 283.923 463.045H284.384V470.23C284.384 475.625 280.932 477.722 276.202 477.722C271.395 477.722 268.966 475.625 268.071 473.247L257.997 474.602C259.301 480.79 265.361 485.545 275.946 485.545ZM276.176 461.256C270.832 461.256 267.918 457.011 267.918 450.236C267.918 443.562 270.781 438.884 276.176 438.884C281.469 438.884 284.435 443.358 284.435 450.236C284.435 457.165 281.418 461.256 276.176 461.256ZM303.815 470H314.707V447.781C314.707 442.949 318.236 439.625 323.043 439.625C324.551 439.625 326.622 439.881 327.645 440.213V430.548C326.673 430.318 325.318 430.165 324.219 430.165C319.821 430.165 316.216 432.722 314.784 437.58H314.375V430.727H303.815V470ZM343.35 470.741C349.154 470.741 352.913 468.21 354.83 464.554H355.137V470H365.467V443.511C365.467 434.153 357.54 430.216 348.796 430.216C339.387 430.216 333.2 434.716 331.691 441.875L341.765 442.693C342.506 440.085 344.833 438.168 348.745 438.168C352.452 438.168 354.575 440.034 354.575 443.256V443.409C354.575 445.94 351.89 446.273 345.063 446.938C337.29 447.653 330.31 450.261 330.31 459.031C330.31 466.804 335.859 470.741 343.35 470.741ZM346.469 463.224C343.12 463.224 340.717 461.665 340.717 458.673C340.717 455.605 343.248 454.097 347.083 453.56C349.461 453.227 353.347 452.665 354.651 451.795V455.963C354.651 460.08 351.251 463.224 346.469 463.224ZM373.917 470H384.809V446.426C384.809 442.08 387.57 439.19 391.201 439.19C394.781 439.19 397.184 441.645 397.184 445.506V470H407.744V446.017C407.744 441.952 410.07 439.19 414.033 439.19C417.511 439.19 420.119 441.364 420.119 445.736V470H430.985V443.588C430.985 435.074 425.923 430.216 418.61 430.216C412.857 430.216 408.383 433.156 406.772 437.656H406.363C405.11 433.105 401.096 430.216 395.701 430.216C390.408 430.216 386.394 433.028 384.758 437.656H384.298V430.727H373.917V470Z" fill="black"/>
<path d="M282.67 206.5C282.67 220.401 271.401 231.67 257.5 231.67C243.599 231.67 232.33 220.401 232.33 206.5C232.33 192.599 243.599 181.33 257.5 181.33C271.401 181.33 282.67 192.599 282.67 206.5Z" fill="white"/>
<path d="M316.364 161.967C315.154 158.688 313.223 155.721 310.715 153.285C308.279 150.777 305.314 148.846 302.033 147.636C299.372 146.603 295.375 145.373 288.013 145.038C280.049 144.675 277.662 144.597 257.5 144.597C237.336 144.597 234.949 144.673 226.987 145.036C219.625 145.373 215.626 146.603 212.967 147.636C209.686 148.846 206.719 150.777 204.285 153.285C201.777 155.721 199.846 158.686 198.634 161.967C197.601 164.628 196.371 168.627 196.036 175.989C195.673 183.951 195.594 186.338 195.594 206.502C195.594 226.664 195.673 229.051 196.036 237.015C196.371 244.377 197.601 248.374 198.634 251.035C199.846 254.316 201.775 257.281 204.283 259.717C206.719 262.225 209.684 264.156 212.965 265.366C215.626 266.401 219.625 267.631 226.987 267.966C234.949 268.329 237.334 268.406 257.498 268.406C277.664 268.406 280.051 268.329 288.011 267.966C295.373 267.631 299.372 266.401 302.033 265.366C308.618 262.825 313.823 257.62 316.364 251.035C317.397 248.374 318.627 244.377 318.964 237.015C319.327 229.051 319.403 226.664 319.403 206.502C319.403 186.338 319.327 183.951 318.964 175.989C318.629 168.627 317.399 164.628 316.364 161.967V161.967ZM257.5 245.274C236.084 245.274 218.724 227.916 218.724 206.5C218.724 185.084 236.084 167.726 257.5 167.726C278.914 167.726 296.274 185.084 296.274 206.5C296.274 227.916 278.914 245.274 257.5 245.274ZM297.807 175.254C292.803 175.254 288.746 171.197 288.746 166.193C288.746 161.189 292.803 157.131 297.807 157.131C302.811 157.131 306.869 161.189 306.869 166.193C306.867 171.197 302.811 175.254 297.807 175.254Z" fill="white"/>
<path d="M257.5 75C184.886 75 126 133.886 126 206.5C126 279.114 184.886 338 257.5 338C330.114 338 389 279.114 389 206.5C389 133.886 330.114 75 257.5 75ZM332.554 237.631C332.189 245.669 330.911 251.157 329.045 255.961C325.122 266.104 317.104 274.122 306.961 278.045C302.159 279.911 296.669 281.187 288.633 281.554C280.581 281.921 278.009 282.01 257.502 282.01C236.993 282.01 234.423 281.921 226.369 281.554C218.333 281.187 212.843 279.911 208.041 278.045C203.001 276.149 198.438 273.177 194.665 269.335C190.825 265.564 187.853 260.999 185.957 255.961C184.091 251.159 182.813 245.669 182.448 237.633C182.077 229.579 181.99 227.007 181.99 206.5C181.99 185.993 182.077 183.421 182.446 175.369C182.811 167.331 184.087 161.843 185.953 157.039C187.849 152.001 190.823 147.436 194.665 143.665C198.436 139.823 203.001 136.851 208.039 134.955C212.843 133.089 218.331 131.813 226.369 131.446C234.421 131.079 236.993 130.99 257.5 130.99C278.007 130.99 280.579 131.079 288.631 131.448C296.669 131.813 302.157 133.089 306.961 134.953C311.999 136.849 316.564 139.823 320.337 143.665C324.177 147.438 327.151 152.001 329.045 157.039C330.913 161.843 332.189 167.331 332.556 175.369C332.923 183.421 333.01 185.993 333.01 206.5C333.01 227.007 332.923 229.579 332.554 237.631V237.631Z" fill="white"/>
<defs>
<linearGradient id="paint0_linear" x1="257" y1="7" x2="257" y2="507" gradientUnits="userSpaceOnUse">
<stop stop-color="#F8F3EF"/>
<stop offset="1" stop-color="#F0EEE9"/>
</linearGradient>
</defs>
</svg>
