<svg width="515" height="515" viewBox="0 0 515 515" fill="none" xmlns="http://www.w3.org/2000/svg">
<circle cx="258" cy="257" r="243" fill="#1B1A1F"/>
<circle cx="257.5" cy="257.5" r="217" fill="#1B1A1F" stroke="#2B2B2B" stroke-width="3"/>
<circle cx="257.5" cy="257.5" r="193" fill="#1B1A1F" stroke="#2B2B2B" stroke-width="3"/>
<circle cx="258" cy="257" r="202.427" fill="#1B1A1F" stroke="#2B2B2B" stroke-width="3.14653"/>
<circle cx="257.5" cy="257.5" r="172" fill="#1B1A1F" stroke="#2B2B2B" stroke-width="3"/>
<circle cx="259.5" cy="255.5" r="180.922" fill="#1B1A1F" stroke="#2B2B2B" stroke-width="3.15562"/>
<circle cx="258" cy="257" r="149.5" fill="#1B1A1F" stroke="#2B2B2B" stroke-width="3"/>
<circle cx="259" cy="256" r="162.371" fill="#1B1A1F" stroke="#2B2B2B" stroke-width="3.25828"/>
<circle cx="258" cy="257" r="128.5" fill="#1B1A1F" stroke="#2B2B2B" stroke-width="3"/>
<circle cx="257.5" cy="257.5" r="99" fill="#1B1A1F" stroke="#2B2B2B" stroke-width="3"/>
<path d="M269.463 257.5C269.463 264.107 264.107 269.463 257.5 269.463C250.893 269.463 245.537 264.107 245.537 257.5C245.537 250.893 250.893 245.537 257.5 245.537C264.107 245.537 269.463 250.893 269.463 257.5Z" fill="white"/>
<path d="M285.477 236.334C284.902 234.776 283.985 233.365 282.792 232.208C281.635 231.015 280.225 230.098 278.666 229.523C277.401 229.032 275.502 228.447 272.003 228.288C268.217 228.115 267.083 228.078 257.5 228.078C247.917 228.078 246.782 228.114 242.998 228.287C239.498 228.447 237.598 229.032 236.334 229.523C234.775 230.098 233.364 231.015 232.208 232.208C231.016 233.365 230.098 234.775 229.522 236.334C229.031 237.599 228.446 239.499 228.287 242.998C228.114 246.783 228.077 247.917 228.077 257.501C228.077 267.083 228.114 268.218 228.287 272.003C228.446 275.502 229.031 277.402 229.522 278.667C230.098 280.226 231.015 281.636 232.207 282.793C233.364 283.985 234.774 284.903 236.333 285.478C237.598 285.97 239.498 286.555 242.998 286.714C246.782 286.886 247.916 286.923 257.499 286.923C267.084 286.923 268.218 286.886 272.002 286.714C275.501 286.555 277.401 285.97 278.666 285.478C281.796 284.271 284.27 281.797 285.477 278.667C285.968 277.402 286.553 275.502 286.713 272.003C286.886 268.218 286.922 267.083 286.922 257.501C286.922 247.917 286.886 246.783 286.713 242.998C286.554 239.499 285.969 237.599 285.477 236.334V236.334ZM257.5 275.929C247.321 275.929 239.07 267.678 239.07 257.5C239.07 247.321 247.321 239.071 257.5 239.071C267.678 239.071 275.929 247.321 275.929 257.5C275.929 267.678 267.678 275.929 257.5 275.929ZM276.657 242.649C274.279 242.649 272.351 240.721 272.351 238.343C272.351 235.964 274.279 234.036 276.657 234.036C279.036 234.036 280.964 235.964 280.964 238.343C280.963 240.721 279.036 242.649 276.657 242.649Z" fill="white"/>
<path d="M257.5 195C222.987 195 195 222.987 195 257.5C195 292.013 222.987 320 257.5 320C292.013 320 320 292.013 320 257.5C320 222.987 292.013 195 257.5 195ZM293.172 272.296C292.999 276.117 292.391 278.725 291.504 281.008C289.64 285.829 285.829 289.64 281.008 291.504C278.726 292.391 276.117 292.998 272.297 293.172C268.47 293.347 267.248 293.389 257.501 293.389C247.753 293.389 246.532 293.347 242.704 293.172C238.884 292.998 236.275 292.391 233.993 291.504C231.597 290.603 229.429 289.191 227.636 287.364C225.81 285.572 224.398 283.403 223.497 281.008C222.61 278.726 222.002 276.117 221.829 272.297C221.652 268.469 221.611 267.247 221.611 257.5C221.611 247.753 221.652 246.531 221.828 242.704C222.001 238.883 222.608 236.275 223.495 233.992C224.396 231.597 225.809 229.428 227.636 227.636C229.428 225.809 231.597 224.397 233.992 223.496C236.275 222.609 238.883 222.002 242.704 221.828C246.531 221.653 247.753 221.611 257.5 221.611C267.247 221.611 268.469 221.653 272.296 221.829C276.117 222.002 278.725 222.609 281.008 223.495C283.403 224.396 285.572 225.809 287.365 227.636C289.191 229.429 290.604 231.597 291.504 233.992C292.392 236.275 292.999 238.883 293.173 242.704C293.348 246.531 293.389 247.753 293.389 257.5C293.389 267.247 293.348 268.469 293.172 272.296V272.296Z" fill="white"/>
</svg>
