<svg width="515" height="515" viewBox="0 0 515 515" fill="none" xmlns="http://www.w3.org/2000/svg">
<circle cx="258" cy="257" r="243" fill="#1B1A1F"/>
<circle cx="257.5" cy="257.5" r="217" fill="#1B1A1F" stroke="#2B2B2B" stroke-width="3"/>
<circle cx="257.5" cy="257.5" r="193" fill="#1B1A1F" stroke="#2B2B2B" stroke-width="3"/>
<circle cx="258" cy="257" r="202.427" fill="#1B1A1F" stroke="#2B2B2B" stroke-width="3.14653"/>
<circle cx="257.5" cy="257.5" r="172" fill="#1B1A1F" stroke="#2B2B2B" stroke-width="3"/>
<circle cx="259.5" cy="255.5" r="180.922" fill="#1B1A1F" stroke="#2B2B2B" stroke-width="3.15562"/>
<circle cx="258" cy="257" r="149.5" fill="#1B1A1F" stroke="#2B2B2B" stroke-width="3"/>
<circle cx="259" cy="256" r="162.371" fill="#1B1A1F" stroke="#2B2B2B" stroke-width="3.25828"/>
<circle cx="258" cy="257" r="128.5" fill="#1B1A1F" stroke="#2B2B2B" stroke-width="3"/>
<circle cx="257.5" cy="257.5" r="99" fill="#1B1A1F" stroke="#2B2B2B" stroke-width="3"/>
<path d="M257.5 195C222.987 195 195 222.987 195 257.5C195 292.013 222.987 320 257.5 320C292.013 320 320 292.013 320 257.5C320 222.987 292.013 195 257.5 195ZM239.338 289.482H224.117V243.688H239.338V289.482ZM231.728 237.435H231.629C226.521 237.435 223.217 233.918 223.217 229.524C223.217 225.03 226.622 221.611 231.829 221.611C237.036 221.611 240.24 225.03 240.34 229.524C240.34 233.918 237.036 237.435 231.728 237.435ZM294.224 289.482H279.004V264.983C279.004 258.827 276.8 254.628 271.293 254.628C267.088 254.628 264.584 257.46 263.483 260.194C263.081 261.173 262.983 262.54 262.983 263.909V289.482H247.762C247.762 289.482 247.961 247.984 247.762 243.688H262.983V250.172C265.005 247.052 268.625 242.613 276.7 242.613C286.715 242.613 294.224 249.158 294.224 263.224V289.482Z" fill="white"/>
</svg>
