<svg width="515" height="515" viewBox="0 0 515 515" fill="none" xmlns="http://www.w3.org/2000/svg">
<rect x="7" y="7" width="500" height="500" fill="url(#paint0_linear)"/>
<rect x="22" y="22" width="470" height="369" rx="7" fill="#1B1A1F"/>
<path d="M112.172 470H145.692V460.872H123.243V417.636H112.172V470ZM152.819 470H163.711V430.727H152.819V470ZM158.291 425.665C161.538 425.665 164.197 423.185 164.197 420.142C164.197 417.125 161.538 414.645 158.291 414.645C155.069 414.645 152.41 417.125 152.41 420.142C152.41 423.185 155.069 425.665 158.291 425.665ZM183.328 447.295C183.354 442.233 186.371 439.267 190.769 439.267C195.141 439.267 197.775 442.131 197.749 446.938V470H208.641V444.994C208.641 435.841 203.272 430.216 195.09 430.216C189.26 430.216 185.042 433.08 183.277 437.656H182.817V430.727H172.436V470H183.328V447.295ZM217.225 470H228.118V457.523L231.058 454.173L241.771 470H254.529L239.214 447.73L253.788 430.727H241.285L228.706 445.634H228.118V417.636H217.225V470ZM275.412 470.767C285.128 470.767 291.674 466.037 293.208 458.75L283.134 458.085C282.034 461.077 279.222 462.636 275.591 462.636C270.145 462.636 266.694 459.031 266.694 453.176V453.151H293.438V450.159C293.438 436.812 285.358 430.216 274.978 430.216C263.421 430.216 255.929 438.423 255.929 450.543C255.929 462.994 263.319 470.767 275.412 470.767ZM266.694 446.401C266.924 441.926 270.324 438.347 275.157 438.347C279.887 438.347 283.159 441.722 283.185 446.401H266.694ZM315.017 470.639C321.358 470.639 324.657 466.983 326.165 463.71H326.625V470H337.364V417.636H326.498V437.324H326.165C324.708 434.128 321.563 430.216 314.992 430.216C306.375 430.216 299.088 436.915 299.088 450.415C299.088 463.557 306.069 470.639 315.017 470.639ZM318.469 461.972C313.125 461.972 310.211 457.216 310.211 450.364C310.211 443.562 313.074 438.884 318.469 438.884C323.762 438.884 326.728 443.358 326.728 450.364C326.728 457.369 323.711 461.972 318.469 461.972ZM346.319 470H357.211V430.727H346.319V470ZM351.791 425.665C355.038 425.665 357.697 423.185 357.697 420.142C357.697 417.125 355.038 414.645 351.791 414.645C348.569 414.645 345.91 417.125 345.91 420.142C345.91 423.185 348.569 425.665 351.791 425.665ZM376.828 447.295C376.854 442.233 379.871 439.267 384.269 439.267C388.641 439.267 391.275 442.131 391.249 446.938V470H402.141V444.994C402.141 435.841 396.772 430.216 388.59 430.216C382.76 430.216 378.542 433.08 376.777 437.656H376.317V430.727H365.936V470H376.828V447.295Z" fill="black"/>
<path d="M257.5 75C184.886 75 126 133.886 126 206.5C126 279.114 184.886 338 257.5 338C330.114 338 389 279.114 389 206.5C389 133.886 330.114 75 257.5 75ZM219.288 273.791H187.261V177.439H219.288V273.791ZM203.276 164.283H203.067C192.32 164.283 185.369 156.885 185.369 147.638C185.369 138.184 192.533 130.99 203.488 130.99C214.444 130.99 221.186 138.184 221.394 147.638C221.394 156.885 214.444 164.283 203.276 164.283ZM334.767 273.791H302.745V222.245C302.745 209.291 298.108 200.456 286.52 200.456C277.674 200.456 272.405 206.416 270.089 212.168C269.242 214.227 269.036 217.105 269.036 219.984V273.791H237.011C237.011 273.791 237.431 186.479 237.011 177.439H269.036V191.082C273.291 184.516 280.906 175.178 297.897 175.178C318.968 175.178 334.767 188.949 334.767 218.543V273.791Z" fill="white"/>
<defs>
<linearGradient id="paint0_linear" x1="257" y1="7" x2="257" y2="507" gradientUnits="userSpaceOnUse">
<stop stop-color="#F8F3EF"/>
<stop offset="1" stop-color="#F0EEE9"/>
</linearGradient>
</defs>
</svg>
