<svg width="515" height="515" viewBox="0 0 515 515" fill="none" xmlns="http://www.w3.org/2000/svg">
<rect x="7" y="7" width="500" height="500" fill="url(#paint0_linear)"/>
<rect x="22" y="22" width="470" height="369" rx="7" fill="#1B1A1F"/>
<path d="M144.024 470H155.095V453.023H164.402C176.444 453.023 183.45 445.838 183.45 435.381C183.45 424.974 176.572 417.636 164.683 417.636H144.024V470ZM155.095 444.151V426.688H162.561C168.953 426.688 172.047 430.165 172.047 435.381C172.047 440.571 168.953 444.151 162.612 444.151H155.095ZM200.581 470.741C206.385 470.741 210.143 468.21 212.061 464.554H212.368V470H222.697V443.511C222.697 434.153 214.771 430.216 206.027 430.216C196.618 430.216 190.43 434.716 188.922 441.875L198.995 442.693C199.737 440.085 202.064 438.168 205.975 438.168C209.683 438.168 211.805 440.034 211.805 443.256V443.409C211.805 445.94 209.12 446.273 202.294 446.938C194.521 447.653 187.541 450.261 187.541 459.031C187.541 466.804 193.089 470.741 200.581 470.741ZM203.7 463.224C200.35 463.224 197.947 461.665 197.947 458.673C197.947 455.605 200.478 454.097 204.314 453.56C206.691 453.227 210.578 452.665 211.882 451.795V455.963C211.882 460.08 208.481 463.224 203.7 463.224ZM236.466 484.727C244.571 484.727 248.866 480.585 251.091 474.244L266.355 430.778L254.824 430.727L246.616 459.568H246.207L238.076 430.727H226.622L240.71 471.125L240.071 472.787C238.639 476.469 235.903 476.648 232.068 475.472L229.613 483.602C231.173 484.267 233.704 484.727 236.466 484.727ZM271.929 484.727H282.821V463.71H283.153C284.662 466.983 287.96 470.639 294.301 470.639C303.25 470.639 310.23 463.557 310.23 450.415C310.23 436.915 302.943 430.216 294.326 430.216C287.755 430.216 284.61 434.128 283.153 437.324H282.667V430.727H271.929V484.727ZM282.591 450.364C282.591 443.358 285.556 438.884 290.849 438.884C296.244 438.884 299.108 443.562 299.108 450.364C299.108 457.216 296.193 461.972 290.849 461.972C285.608 461.972 282.591 457.369 282.591 450.364ZM328.69 470.741C334.494 470.741 338.252 468.21 340.17 464.554H340.477V470H350.806V443.511C350.806 434.153 342.88 430.216 334.136 430.216C324.727 430.216 318.539 434.716 317.031 441.875L327.105 442.693C327.846 440.085 330.173 438.168 334.085 438.168C337.792 438.168 339.914 440.034 339.914 443.256V443.409C339.914 445.94 337.23 446.273 330.403 446.938C322.63 447.653 315.65 450.261 315.65 459.031C315.65 466.804 321.199 470.741 328.69 470.741ZM331.809 463.224C328.46 463.224 326.056 461.665 326.056 458.673C326.056 455.605 328.588 454.097 332.423 453.56C334.801 453.227 338.687 452.665 339.991 451.795V455.963C339.991 460.08 336.591 463.224 331.809 463.224ZM370.149 417.636H359.257V470H370.149V417.636Z" fill="black"/>
<path d="M336.458 94.8401C324.196 80.9504 302.006 75 273.617 75H191.233C185.43 75 180.499 79.1916 179.579 84.8625L145.274 300.703C144.6 304.961 147.92 308.807 152.26 308.807H203.118L215.889 228.428L215.495 230.959C216.399 225.288 221.314 221.096 227.116 221.096H251.279C298.767 221.096 335.933 201.963 346.798 146.618C347.127 144.974 347.636 141.818 347.636 141.818C350.726 121.337 347.619 107.448 336.458 94.8401Z" fill="white"/>
<path d="M360.506 152.306C348.704 206.796 311.046 235.627 251.279 235.627H229.614L213.44 338H248.583C253.662 338 257.985 334.334 258.774 329.354L259.185 327.184L267.273 276.376L267.799 273.581C268.588 268.601 272.911 264.935 277.973 264.935H284.4C325.938 264.935 358.451 248.202 367.952 199.793C371.766 180.364 369.925 164.075 360.506 152.306Z" fill="white"/>
<defs>
<linearGradient id="paint0_linear" x1="257" y1="7" x2="257" y2="507" gradientUnits="userSpaceOnUse">
<stop stop-color="#F8F3EF"/>
<stop offset="1" stop-color="#F0EEE9"/>
</linearGradient>
</defs>
</svg>
