<svg width="515" height="515" viewBox="0 0 515 515" fill="none" xmlns="http://www.w3.org/2000/svg">
<rect x="7" y="7" width="500" height="500" fill="url(#paint0_linear)"/>
<rect x="22" y="22" width="470" height="369" rx="7" fill="#1B1A1F"/>
<path d="M71.4613 470H82.5323V451.438H90.6119L100.532 470H112.754L101.632 449.648C107.589 447.091 110.887 441.901 110.887 434.741C110.887 424.335 104.01 417.636 92.1204 417.636H71.4613V470ZM82.5323 442.54V426.688H89.9982C96.3903 426.688 99.484 429.526 99.484 434.741C99.484 439.932 96.3903 442.54 90.0494 442.54H82.5323ZM135.772 470.767C145.488 470.767 152.033 466.037 153.567 458.75L143.493 458.085C142.394 461.077 139.581 462.636 135.951 462.636C130.505 462.636 127.053 459.031 127.053 453.176V453.151H153.797V450.159C153.797 436.812 145.718 430.216 135.337 430.216C123.78 430.216 116.289 438.423 116.289 450.543C116.289 462.994 123.678 470.767 135.772 470.767ZM127.053 446.401C127.283 441.926 130.684 438.347 135.516 438.347C140.246 438.347 143.519 441.722 143.544 446.401H127.053ZM175.377 470.639C181.718 470.639 185.016 466.983 186.525 463.71H186.985V470H197.723V417.636H186.857V437.324H186.525C185.067 434.128 181.922 430.216 175.351 430.216C166.735 430.216 159.448 436.915 159.448 450.415C159.448 463.557 166.428 470.639 175.377 470.639ZM178.828 461.972C173.485 461.972 170.57 457.216 170.57 450.364C170.57 443.562 173.434 438.884 178.828 438.884C184.121 438.884 187.087 443.358 187.087 450.364C187.087 457.369 184.07 461.972 178.828 461.972ZM206.883 470H217.622V463.71H218.108C219.616 466.983 222.914 470.639 229.255 470.639C238.204 470.639 245.184 463.557 245.184 450.415C245.184 436.915 237.897 430.216 229.281 430.216C222.71 430.216 219.565 434.128 218.108 437.324H217.775V417.636H206.883V470ZM217.545 450.364C217.545 443.358 220.511 438.884 225.804 438.884C231.199 438.884 234.062 443.562 234.062 450.364C234.062 457.216 231.147 461.972 225.804 461.972C220.562 461.972 217.545 457.369 217.545 450.364ZM277.637 453.278C277.662 458.545 274.057 461.307 270.145 461.307C266.029 461.307 263.37 458.418 263.344 453.79V430.727H252.452V455.733C252.478 464.912 257.847 470.511 265.748 470.511C271.654 470.511 275.898 467.469 277.662 462.866H278.071V470H288.529V430.727H277.637V453.278ZM297.446 470H308.184V463.71H308.67C310.179 466.983 313.477 470.639 319.818 470.639C328.767 470.639 335.747 463.557 335.747 450.415C335.747 436.915 328.46 430.216 319.843 430.216C313.272 430.216 310.127 434.128 308.67 437.324H308.338V417.636H297.446V470ZM308.108 450.364C308.108 443.358 311.074 438.884 316.366 438.884C321.761 438.884 324.625 443.562 324.625 450.364C324.625 457.216 321.71 461.972 316.366 461.972C311.125 461.972 308.108 457.369 308.108 450.364ZM343.219 470H353.958V463.71H354.444C355.952 466.983 359.25 470.639 365.591 470.639C374.54 470.639 381.52 463.557 381.52 450.415C381.52 436.915 374.233 430.216 365.617 430.216C359.046 430.216 355.901 434.128 354.444 437.324H354.111V417.636H343.219V470ZM353.881 450.364C353.881 443.358 356.847 438.884 362.14 438.884C367.534 438.884 370.398 443.562 370.398 450.364C370.398 457.216 367.483 461.972 362.14 461.972C356.898 461.972 353.881 457.369 353.881 450.364ZM399.68 417.636H388.788V470H399.68V417.636ZM426.303 470.767C436.019 470.767 442.564 466.037 444.098 458.75L434.025 458.085C432.925 461.077 430.113 462.636 426.482 462.636C421.036 462.636 417.584 459.031 417.584 453.176V453.151H444.328V450.159C444.328 436.812 436.249 430.216 425.868 430.216C414.311 430.216 406.82 438.423 406.82 450.543C406.82 462.994 414.209 470.767 426.303 470.767ZM417.584 446.401C417.814 441.926 421.215 438.347 426.047 438.347C430.777 438.347 434.05 441.722 434.076 446.401H417.584Z" fill="black"/>
<path d="M309.262 253.883H274.209C273.276 253.881 272.383 253.508 271.725 252.847C271.067 252.185 270.698 251.29 270.701 250.357V162.381C270.701 160.438 272.274 158.864 274.209 158.864H306.708C331.097 158.864 336.214 173.225 336.214 185.265C336.214 192.231 334.365 197.761 330.693 201.82C339.637 205.509 344.453 213.825 344.453 225.856C344.453 243.408 331.295 253.882 309.262 253.882L309.262 253.883ZM258.369 253.882H185.564C185.103 253.881 184.646 253.789 184.22 253.611C183.795 253.433 183.408 253.173 183.083 252.845C182.758 252.518 182.5 252.129 182.326 251.702C182.151 251.275 182.062 250.818 182.064 250.356V162.38C182.064 160.437 183.63 158.863 185.564 158.863H219.576C240.818 158.863 253.494 170.301 253.494 189.461C253.494 202.206 247.087 212.216 236.758 216.283L260.984 248.025C261.429 248.533 261.718 249.158 261.818 249.825C261.918 250.492 261.824 251.174 261.548 251.79C261.272 252.406 260.825 252.929 260.26 253.299C259.695 253.668 259.036 253.867 258.361 253.873L258.369 253.882ZM258.49 75C185.876 75 127 133.874 127 206.49C127 279.124 185.874 338 258.497 338C331.12 338 389.987 279.126 389.987 206.503C389.987 133.88 331.13 75.0132 258.503 75.0132" fill="white"/>
<path d="M309.262 253.883H274.209C273.276 253.881 272.383 253.508 271.725 252.847C271.067 252.185 270.698 251.29 270.701 250.357V162.381C270.701 160.438 272.274 158.864 274.209 158.864H306.708C331.097 158.864 336.214 173.225 336.214 185.265C336.214 192.231 334.365 197.761 330.693 201.82C339.637 205.509 344.453 213.825 344.453 225.856C344.453 243.408 331.295 253.882 309.262 253.882L309.262 253.883ZM258.369 253.882H185.564C185.103 253.881 184.646 253.789 184.22 253.611C183.795 253.433 183.408 253.173 183.083 252.845C182.758 252.518 182.5 252.129 182.326 251.702C182.151 251.275 182.062 250.818 182.064 250.356V162.38C182.064 160.437 183.63 158.863 185.564 158.863H219.576C240.818 158.863 253.494 170.301 253.494 189.461C253.494 202.206 247.087 212.216 236.758 216.283L260.984 248.025C261.429 248.533 261.718 249.158 261.818 249.825C261.918 250.492 261.824 251.174 261.548 251.79C261.272 252.406 260.825 252.929 260.26 253.299C259.695 253.668 259.036 253.867 258.361 253.873L258.369 253.882ZM258.49 75C185.876 75 127 133.874 127 206.49C127 279.124 185.874 338 258.497 338C331.12 338 389.987 279.126 389.987 206.503C389.987 133.88 331.13 75.0132 258.503 75.0132" fill="white"/>
<path d="M309.262 253.883H274.209C273.276 253.881 272.383 253.508 271.725 252.847C271.067 252.185 270.698 251.29 270.701 250.357V162.381C270.701 160.438 272.274 158.864 274.209 158.864H306.708C331.097 158.864 336.214 173.225 336.214 185.265C336.214 192.231 334.365 197.761 330.693 201.82C339.637 205.509 344.453 213.825 344.453 225.856C344.453 243.408 331.295 253.882 309.262 253.882L309.262 253.883ZM258.369 253.882H185.564C185.103 253.881 184.646 253.789 184.22 253.611C183.795 253.433 183.408 253.173 183.083 252.845C182.758 252.518 182.5 252.129 182.326 251.702C182.151 251.275 182.062 250.818 182.064 250.356V162.38C182.064 160.437 183.63 158.863 185.564 158.863H219.576C240.818 158.863 253.494 170.301 253.494 189.461C253.494 202.206 247.087 212.216 236.758 216.283L260.984 248.025C261.429 248.533 261.718 249.158 261.818 249.825C261.918 250.492 261.824 251.174 261.548 251.79C261.272 252.406 260.825 252.929 260.26 253.299C259.695 253.668 259.036 253.867 258.361 253.873L258.369 253.882ZM258.49 75C185.876 75 127 133.874 127 206.49C127 279.124 185.874 338 258.497 338C331.12 338 389.987 279.126 389.987 206.503C389.987 133.88 331.13 75.0132 258.503 75.0132" fill="white"/>
<defs>
<linearGradient id="paint0_linear" x1="257" y1="7" x2="257" y2="507" gradientUnits="userSpaceOnUse">
<stop stop-color="#F8F3EF"/>
<stop offset="1" stop-color="#F0EEE9"/>
</linearGradient>
</defs>
</svg>
