<svg width="515" height="515" viewBox="0 0 515 515" fill="none" xmlns="http://www.w3.org/2000/svg">
<circle cx="258" cy="257" r="243" fill="#1B1A1F"/>
<circle cx="257.5" cy="257.5" r="217" fill="#1B1A1F" stroke="#2B2B2B" stroke-width="3"/>
<circle cx="257.5" cy="257.5" r="193" fill="#1B1A1F" stroke="#2B2B2B" stroke-width="3"/>
<circle cx="258" cy="257" r="202.427" fill="#1B1A1F" stroke="#2B2B2B" stroke-width="3.14653"/>
<circle cx="257.5" cy="257.5" r="172" fill="#1B1A1F" stroke="#2B2B2B" stroke-width="3"/>
<circle cx="259.5" cy="255.5" r="180.922" fill="#1B1A1F" stroke="#2B2B2B" stroke-width="3.15562"/>
<circle cx="258" cy="257" r="149.5" fill="#1B1A1F" stroke="#2B2B2B" stroke-width="3"/>
<circle cx="259" cy="256" r="162.371" fill="#1B1A1F" stroke="#2B2B2B" stroke-width="3.25828"/>
<circle cx="258" cy="257" r="128.5" fill="#1B1A1F" stroke="#2B2B2B" stroke-width="3"/>
<circle cx="257.5" cy="257.5" r="99" fill="#1B1A1F" stroke="#2B2B2B" stroke-width="3"/>
<path d="M282.626 278.02H265.966C265.523 278.019 265.098 277.842 264.786 277.528C264.473 277.214 264.298 276.788 264.299 276.345V234.531C264.299 233.607 265.047 232.859 265.966 232.859H281.413C293.004 232.859 295.436 239.685 295.436 245.407C295.436 248.718 294.558 251.346 292.812 253.275C297.063 255.029 299.352 258.982 299.352 264.699C299.352 273.042 293.098 278.02 282.627 278.02L282.626 278.02ZM258.438 278.02H223.835C223.615 278.019 223.398 277.976 223.196 277.891C222.994 277.807 222.81 277.683 222.655 277.527C222.501 277.372 222.379 277.187 222.295 276.984C222.212 276.781 222.17 276.564 222.171 276.344V234.531C222.171 233.607 222.915 232.859 223.835 232.859H240C250.096 232.859 256.121 238.295 256.121 247.402C256.121 253.459 253.076 258.217 248.167 260.15L259.681 275.236C259.892 275.478 260.029 275.774 260.077 276.092C260.124 276.409 260.08 276.733 259.949 277.026C259.817 277.318 259.605 277.567 259.336 277.743C259.068 277.918 258.755 278.013 258.434 278.016L258.438 278.02ZM258.495 193C223.983 193 196 220.982 196 255.495C196 290.017 223.982 318 258.498 318C293.015 318 320.994 290.018 320.994 255.502C320.994 220.985 293.02 193.006 258.502 193.006" fill="white"/>
<path d="M282.626 278.02H265.966C265.523 278.019 265.098 277.842 264.786 277.528C264.473 277.214 264.298 276.788 264.299 276.345V234.531C264.299 233.607 265.047 232.859 265.966 232.859H281.413C293.004 232.859 295.436 239.685 295.436 245.407C295.436 248.718 294.558 251.346 292.812 253.275C297.063 255.029 299.352 258.982 299.352 264.699C299.352 273.042 293.098 278.02 282.627 278.02L282.626 278.02ZM258.438 278.02H223.835C223.615 278.019 223.398 277.976 223.196 277.891C222.994 277.807 222.81 277.683 222.655 277.527C222.501 277.372 222.379 277.187 222.295 276.984C222.212 276.781 222.17 276.564 222.171 276.344V234.531C222.171 233.607 222.915 232.859 223.835 232.859H240C250.096 232.859 256.121 238.295 256.121 247.402C256.121 253.459 253.076 258.217 248.167 260.15L259.681 275.236C259.892 275.478 260.029 275.774 260.077 276.092C260.124 276.409 260.08 276.733 259.949 277.026C259.817 277.318 259.605 277.567 259.336 277.743C259.068 277.918 258.755 278.013 258.434 278.016L258.438 278.02ZM258.495 193C223.983 193 196 220.982 196 255.495C196 290.017 223.982 318 258.498 318C293.015 318 320.994 290.018 320.994 255.502C320.994 220.985 293.02 193.006 258.502 193.006" fill="white"/>
<path d="M282.626 278.02H265.966C265.523 278.019 265.098 277.842 264.786 277.528C264.473 277.214 264.298 276.788 264.299 276.345V234.531C264.299 233.607 265.047 232.859 265.966 232.859H281.413C293.004 232.859 295.436 239.685 295.436 245.407C295.436 248.718 294.558 251.346 292.812 253.275C297.063 255.029 299.352 258.982 299.352 264.699C299.352 273.042 293.098 278.02 282.627 278.02L282.626 278.02ZM258.438 278.02H223.835C223.615 278.019 223.398 277.976 223.196 277.891C222.994 277.807 222.81 277.683 222.655 277.527C222.501 277.372 222.379 277.187 222.295 276.984C222.212 276.781 222.17 276.564 222.171 276.344V234.531C222.171 233.607 222.915 232.859 223.835 232.859H240C250.096 232.859 256.121 238.295 256.121 247.402C256.121 253.459 253.076 258.217 248.167 260.15L259.681 275.236C259.892 275.478 260.029 275.774 260.077 276.092C260.124 276.409 260.08 276.733 259.949 277.026C259.817 277.318 259.605 277.567 259.336 277.743C259.068 277.918 258.755 278.013 258.434 278.016L258.438 278.02ZM258.495 193C223.983 193 196 220.982 196 255.495C196 290.017 223.982 318 258.498 318C293.015 318 320.994 290.018 320.994 255.502C320.994 220.985 293.02 193.006 258.502 193.006" fill="white"/>
</svg>
