<svg width="515" height="515" viewBox="0 0 515 515" fill="none" xmlns="http://www.w3.org/2000/svg">
<circle cx="258" cy="257" r="243" fill="#1B1A1F"/>
<circle cx="257.5" cy="257.5" r="217" fill="#1B1A1F" stroke="#2B2B2B" stroke-width="3"/>
<circle cx="257.5" cy="257.5" r="193" fill="#1B1A1F" stroke="#2B2B2B" stroke-width="3"/>
<circle cx="258" cy="257" r="202.427" fill="#1B1A1F" stroke="#2B2B2B" stroke-width="3.14653"/>
<circle cx="257.5" cy="257.5" r="172" fill="#1B1A1F" stroke="#2B2B2B" stroke-width="3"/>
<circle cx="259.5" cy="255.5" r="180.922" fill="#1B1A1F" stroke="#2B2B2B" stroke-width="3.15562"/>
<circle cx="258" cy="257" r="149.5" fill="#1B1A1F" stroke="#2B2B2B" stroke-width="3"/>
<circle cx="259" cy="256" r="162.371" fill="#1B1A1F" stroke="#2B2B2B" stroke-width="3.25828"/>
<circle cx="258" cy="257" r="128.5" fill="#1B1A1F" stroke="#2B2B2B" stroke-width="3"/>
<circle cx="257.5" cy="257.5" r="99" fill="#1B1A1F" stroke="#2B2B2B" stroke-width="3"/>
<path d="M257.5 320C292 320 320 292 320 257.5C320 223 292 195 257.5 195C223 195 195 223 195 257.5C195 292 223 320 257.5 320ZM282.875 286.958V286.964C278.672 286.964 265.396 272.234 228.083 279.88C227.099 280.135 225.813 280.536 225.083 280.536C220.318 280.536 219.406 273.406 224.531 272.318C245.172 267.76 266.266 268.161 284.255 278.922C288.547 281.661 286.724 286.958 282.875 286.958V286.958ZM289.661 270.432C289.073 270.276 289.245 270.792 286.552 269.375C270.797 260.052 247.318 256.292 226.422 261.964C225.214 262.292 224.557 262.62 223.422 262.62C217.844 262.62 216.365 254.229 222.443 252.516C247.005 245.615 273.354 249.641 291.698 260.552C293.74 261.76 294.547 263.328 294.547 265.516C294.521 268.234 292.406 270.432 289.661 270.432V270.432ZM218.687 231.448C242.245 224.552 277.896 226.729 300.063 239.667C305.745 242.943 303.51 251.229 297.469 251.229L297.464 251.224C296.151 251.224 295.344 250.896 294.208 250.24C276.276 239.531 244.188 236.964 223.427 242.76C222.516 243.01 221.38 243.411 220.172 243.411C216.844 243.411 214.302 240.813 214.302 237.464C214.302 234.042 216.422 232.104 218.687 231.448V231.448Z" fill="white"/>
</svg>
