<svg width="515" height="515" viewBox="0 0 515 515" fill="none" xmlns="http://www.w3.org/2000/svg">
<rect x="7" y="7" width="500" height="500" fill="url(#paint0_linear)"/>
<rect x="22" y="22" width="470" height="369" rx="7" fill="#1B1A1F"/>
<path d="M162.727 432.696H173.338C173.184 423.364 165.514 416.92 153.855 416.92C142.375 416.92 133.963 423.261 134.014 432.773C133.988 440.494 139.434 444.918 148.281 447.04L153.983 448.472C159.684 449.852 162.855 451.489 162.88 455.017C162.855 458.852 159.224 461.46 153.599 461.46C147.846 461.46 143.704 458.801 143.346 453.56H132.633C132.914 464.886 141.02 470.741 153.727 470.741C166.511 470.741 174.028 464.631 174.054 455.043C174.028 446.324 167.457 441.696 158.355 439.651L153.65 438.526C149.099 437.477 145.289 435.79 145.366 432.031C145.366 428.656 148.358 426.176 153.778 426.176C159.071 426.176 162.318 428.58 162.727 432.696ZM181.296 484.727H192.188V463.71H192.52C194.029 466.983 197.327 470.639 203.668 470.639C212.617 470.639 219.597 463.557 219.597 450.415C219.597 436.915 212.31 430.216 203.694 430.216C197.123 430.216 193.978 434.128 192.52 437.324H192.034V430.727H181.296V484.727ZM191.958 450.364C191.958 443.358 194.924 438.884 200.216 438.884C205.611 438.884 208.475 443.562 208.475 450.364C208.475 457.216 205.56 461.972 200.216 461.972C194.975 461.972 191.958 457.369 191.958 450.364ZM244.603 470.767C256.517 470.767 263.932 462.611 263.932 450.517C263.932 438.347 256.517 430.216 244.603 430.216C232.688 430.216 225.273 438.347 225.273 450.517C225.273 462.611 232.688 470.767 244.603 470.767ZM244.654 462.33C239.157 462.33 236.344 457.293 236.344 450.44C236.344 443.588 239.157 438.526 244.654 438.526C250.049 438.526 252.861 443.588 252.861 450.44C252.861 457.293 250.049 462.33 244.654 462.33ZM291.904 430.727H284.515V421.318H273.623V430.727H268.253V438.909H273.623V459.364C273.571 467.06 278.813 470.869 286.713 470.537C289.526 470.435 291.52 469.872 292.62 469.514L290.907 461.409C290.37 461.511 289.219 461.767 288.196 461.767C286.023 461.767 284.515 460.949 284.515 457.932V438.909H291.904V430.727ZM298.999 470H309.891V430.727H298.999V470ZM304.471 425.665C307.718 425.665 310.377 423.185 310.377 420.142C310.377 417.125 307.718 414.645 304.471 414.645C301.249 414.645 298.59 417.125 298.59 420.142C298.59 423.185 301.249 425.665 304.471 425.665ZM339.735 430.727H331.937V428.094C331.937 425.435 333.011 423.875 336.207 423.875C337.511 423.875 338.841 424.156 339.71 424.438L341.627 416.256C340.272 415.847 337.281 415.182 333.931 415.182C326.542 415.182 321.045 419.349 321.045 427.889V430.727H315.497V438.909H321.045V470H331.937V438.909H339.735V430.727ZM353.114 484.727C361.219 484.727 365.515 480.585 367.739 474.244L383.003 430.778L371.472 430.727L363.265 459.568H362.855L354.725 430.727H343.27L357.358 471.125L356.719 472.787C355.287 476.469 352.551 476.648 348.716 475.472L346.262 483.602C347.821 484.267 350.353 484.727 353.114 484.727Z" fill="black"/>
<path d="M257.5 338C330.088 338 389 279.088 389 206.5C389 133.912 330.088 75 257.5 75C184.912 75 126 133.912 126 206.5C126 279.088 184.912 338 257.5 338ZM310.889 268.48V268.491C302.046 268.491 274.113 237.501 195.607 253.588C193.536 254.125 190.829 254.969 189.295 254.969C179.268 254.969 177.351 239.967 188.134 237.676C231.562 228.088 275.943 228.932 313.793 251.572C322.823 257.336 318.987 268.48 310.889 268.48V268.48ZM325.168 233.71C323.929 233.381 324.291 234.466 318.626 231.485C285.477 211.87 236.076 203.958 192.112 215.891C189.569 216.582 188.189 217.272 185.8 217.272C174.063 217.272 170.951 199.618 183.739 196.013C235.419 181.493 290.857 189.964 329.452 212.922C333.748 215.464 335.447 218.762 335.447 223.365C335.392 229.085 330.943 233.71 325.168 233.71V233.71ZM175.838 151.686C225.403 137.178 300.413 141.758 347.052 168.979C359.007 175.871 354.306 193.306 341.594 193.306L341.583 193.295C338.822 193.295 337.123 192.605 334.734 191.224C297.005 168.694 229.49 163.291 185.811 175.488C183.893 176.014 181.504 176.858 178.962 176.858C171.959 176.858 166.612 171.389 166.612 164.343C166.612 157.144 171.072 153.067 175.838 151.686V151.686Z" fill="white"/>
<defs>
<linearGradient id="paint0_linear" x1="257" y1="7" x2="257" y2="507" gradientUnits="userSpaceOnUse">
<stop stop-color="#F8F3EF"/>
<stop offset="1" stop-color="#F0EEE9"/>
</linearGradient>
</defs>
</svg>
