<svg width="515" height="515" viewBox="0 0 515 515" fill="none" xmlns="http://www.w3.org/2000/svg">
<rect x="7" y="7" width="500" height="500" fill="url(#paint0_linear)"/>
<rect x="22" y="22" width="470" height="369" rx="7" fill="#1B1A1F"/>
<path d="M78.9144 432.696H89.5252C89.3718 423.364 81.7014 416.92 70.0423 416.92C58.5621 416.92 50.1502 423.261 50.2013 432.773C50.1758 440.494 55.6218 444.918 64.4684 447.04L70.1701 448.472C75.8718 449.852 79.0423 451.489 79.0678 455.017C79.0423 458.852 75.4116 461.46 69.7866 461.46C64.0337 461.46 59.8917 458.801 59.5337 453.56H48.8207C49.1019 464.886 57.207 470.741 69.9144 470.741C82.6985 470.741 90.2156 464.631 90.2411 455.043C90.2156 446.324 83.6445 441.696 74.5423 439.651L69.8377 438.526C65.2866 437.477 61.4769 435.79 61.5536 432.031C61.5536 428.656 64.5451 426.176 69.9656 426.176C75.2582 426.176 78.5053 428.58 78.9144 432.696ZM97.4833 484.727H108.375V463.71H108.708C110.216 466.983 113.515 470.639 119.855 470.639C128.804 470.639 135.784 463.557 135.784 450.415C135.784 436.915 128.498 430.216 119.881 430.216C113.31 430.216 110.165 434.128 108.708 437.324H108.222V430.727H97.4833V484.727ZM108.145 450.364C108.145 443.358 111.111 438.884 116.404 438.884C121.799 438.884 124.662 443.562 124.662 450.364C124.662 457.216 121.748 461.972 116.404 461.972C111.162 461.972 108.145 457.369 108.145 450.364ZM143.046 470H153.938V447.781C153.938 442.949 157.466 439.625 162.273 439.625C163.782 439.625 165.853 439.881 166.875 440.213V430.548C165.904 430.318 164.549 430.165 163.449 430.165C159.051 430.165 155.446 432.722 154.015 437.58H153.605V430.727H143.046V470ZM188.576 470.767C198.292 470.767 204.838 466.037 206.372 458.75L196.298 458.085C195.199 461.077 192.386 462.636 188.755 462.636C183.309 462.636 179.858 459.031 179.858 453.176V453.151H206.602V450.159C206.602 436.812 198.522 430.216 188.142 430.216C176.585 430.216 169.093 438.423 169.093 450.543C169.093 462.994 176.483 470.767 188.576 470.767ZM179.858 446.401C180.088 441.926 183.488 438.347 188.321 438.347C193.051 438.347 196.324 441.722 196.349 446.401H179.858ZM224.909 470.741C230.713 470.741 234.471 468.21 236.389 464.554H236.696V470H247.025V443.511C247.025 434.153 239.099 430.216 230.355 430.216C220.946 430.216 214.758 434.716 213.25 441.875L223.324 442.693C224.065 440.085 226.392 438.168 230.304 438.168C234.011 438.168 236.133 440.034 236.133 443.256V443.409C236.133 445.94 233.449 446.273 226.622 446.938C218.849 447.653 211.869 450.261 211.869 459.031C211.869 466.804 217.417 470.741 224.909 470.741ZM228.028 463.224C224.679 463.224 222.275 461.665 222.275 458.673C222.275 455.605 224.806 454.097 228.642 453.56C231.02 453.227 234.906 452.665 236.21 451.795V455.963C236.21 460.08 232.809 463.224 228.028 463.224ZM269.947 470.639C276.288 470.639 279.586 466.983 281.095 463.71H281.555V470H292.294V417.636H281.427V437.324H281.095C279.637 434.128 276.493 430.216 269.922 430.216C261.305 430.216 254.018 436.915 254.018 450.415C254.018 463.557 260.998 470.639 269.947 470.639ZM273.399 461.972C268.055 461.972 265.14 457.216 265.14 450.364C265.14 443.562 268.004 438.884 273.399 438.884C278.691 438.884 281.657 443.358 281.657 450.364C281.657 457.369 278.64 461.972 273.399 461.972ZM329.86 432.696H340.471C340.317 423.364 332.647 416.92 320.988 416.92C309.507 416.92 301.096 423.261 301.147 432.773C301.121 440.494 306.567 444.918 315.414 447.04L321.115 448.472C326.817 449.852 329.988 451.489 330.013 455.017C329.988 458.852 326.357 461.46 320.732 461.46C314.979 461.46 310.837 458.801 310.479 453.56H299.766C300.047 464.886 308.152 470.741 320.86 470.741C333.644 470.741 341.161 464.631 341.186 455.043C341.161 446.324 334.59 441.696 325.488 439.651L320.783 438.526C316.232 437.477 312.422 435.79 312.499 432.031C312.499 428.656 315.49 426.176 320.911 426.176C326.203 426.176 329.451 428.58 329.86 432.696ZM359.321 447.295C359.346 442.233 362.44 439.267 366.889 439.267C371.312 439.267 373.92 442.105 373.895 446.938V470H384.787V444.994C384.812 435.79 379.392 430.216 371.21 430.216C365.252 430.216 361.264 433.028 359.474 437.656H359.014V417.636H348.429V470H359.321V447.295ZM393.358 470H404.25V430.727H393.358V470ZM398.83 425.665C402.077 425.665 404.736 423.185 404.736 420.142C404.736 417.125 402.077 414.645 398.83 414.645C395.608 414.645 392.949 417.125 392.949 420.142C392.949 423.185 395.608 425.665 398.83 425.665ZM412.975 470H423.868V447.781C423.868 442.949 427.396 439.625 432.203 439.625C433.711 439.625 435.782 439.881 436.805 440.213V430.548C435.833 430.318 434.478 430.165 433.379 430.165C428.981 430.165 425.376 432.722 423.944 437.58H423.535V430.727H412.975V470ZM465.294 430.727H457.905V421.318H447.013V430.727H441.644V438.909H447.013V459.364C446.962 467.06 452.203 470.869 460.104 470.537C462.917 470.435 464.911 469.872 466.01 469.514L464.297 461.409C463.76 461.511 462.61 461.767 461.587 461.767C459.414 461.767 457.905 460.949 457.905 457.932V438.909H465.294V430.727Z" fill="black"/>
<path d="M201.971 75L98 179.308L98.0104 179.915L257.405 338L416.674 178.804L312.719 75.2601L257.353 130.36L201.971 75ZM201.975 123.859L257.453 179.332L312.673 124.118L367.72 178.619L257.208 289.162L146.957 178.882L201.975 123.859Z" fill="white"/>
<defs>
<linearGradient id="paint0_linear" x1="257" y1="7" x2="257" y2="507" gradientUnits="userSpaceOnUse">
<stop stop-color="#F8F3EF"/>
<stop offset="1" stop-color="#F0EEE9"/>
</linearGradient>
</defs>
</svg>
