<svg width="515" height="515" viewBox="0 0 515 515" fill="none" xmlns="http://www.w3.org/2000/svg">
<circle cx="258" cy="257" r="243" fill="#1B1A1F"/>
<circle cx="257.5" cy="257.5" r="217" fill="#1B1A1F" stroke="#2B2B2B" stroke-width="3"/>
<circle cx="257.5" cy="257.5" r="193" fill="#1B1A1F" stroke="#2B2B2B" stroke-width="3"/>
<circle cx="258" cy="257" r="202.427" fill="#1B1A1F" stroke="#2B2B2B" stroke-width="3.14653"/>
<circle cx="257.5" cy="257.5" r="172" fill="#1B1A1F" stroke="#2B2B2B" stroke-width="3"/>
<circle cx="259.5" cy="255.5" r="180.922" fill="#1B1A1F" stroke="#2B2B2B" stroke-width="3.15562"/>
<circle cx="258" cy="257" r="149.5" fill="#1B1A1F" stroke="#2B2B2B" stroke-width="3"/>
<circle cx="259" cy="256" r="162.371" fill="#1B1A1F" stroke="#2B2B2B" stroke-width="3.25828"/>
<circle cx="258" cy="257" r="128.5" fill="#1B1A1F" stroke="#2B2B2B" stroke-width="3"/>
<circle cx="257.5" cy="257.5" r="99" fill="#1B1A1F" stroke="#2B2B2B" stroke-width="3"/>
<path d="M257.5 193C222.988 193 195 220.988 195 255.5C195 290.012 222.988 318 257.5 318C292.012 318 320 290.012 320 255.5C320 220.988 292.012 193 257.5 193ZM288.855 240.821V249.283C284.865 249.285 280.987 248.503 277.331 246.96C274.979 245.967 272.789 244.688 270.785 243.143L270.845 269.191C270.82 275.056 268.499 280.567 264.299 284.718C260.881 288.097 256.55 290.246 251.856 290.941C250.753 291.105 249.63 291.188 248.495 291.188C243.47 291.188 238.699 289.561 234.797 286.557C234.062 285.992 233.36 285.379 232.691 284.718C228.139 280.219 225.792 274.122 226.188 267.708C226.489 262.825 228.444 258.169 231.703 254.519C236.014 249.69 242.046 247.009 248.495 247.009C249.63 247.009 250.753 247.094 251.856 247.258V250.386V259.091C250.81 258.746 249.693 258.556 248.53 258.556C242.638 258.556 237.871 263.363 237.959 269.26C238.015 273.032 240.076 276.33 243.115 278.148C244.544 279.002 246.187 279.532 247.941 279.628C249.315 279.703 250.634 279.512 251.856 279.109C256.066 277.718 259.103 273.764 259.103 269.1L259.116 251.657V219.812H270.771C270.782 220.966 270.899 222.093 271.117 223.185C271.997 227.604 274.488 231.438 277.954 234.052C280.977 236.332 284.741 237.683 288.821 237.683C288.824 237.683 288.858 237.683 288.855 237.681V240.821H288.855Z" fill="white"/>
</svg>
