<svg width="515" height="515" viewBox="0 0 515 515" fill="none" xmlns="http://www.w3.org/2000/svg">
<rect x="7" y="7" width="500" height="500" fill="url(#paint0_linear)"/>
<rect x="22" y="22" width="470" height="369" rx="7" fill="#1B1A1F"/>
<path d="M142.557 426.764H158.588V470H169.531V426.764H185.562V417.636H142.557V426.764ZM192.44 470H203.332V430.727H192.44V470ZM197.912 425.665C201.159 425.665 203.818 423.185 203.818 420.142C203.818 417.125 201.159 414.645 197.912 414.645C194.69 414.645 192.031 417.125 192.031 420.142C192.031 423.185 194.69 425.665 197.912 425.665ZM212.058 470H222.95V457.523L225.89 454.173L236.603 470H249.362L234.046 447.73L248.62 430.727H236.117L223.538 445.634H222.95V417.636H212.058V470ZM248.096 426.764H264.127V470H275.07V426.764H291.102V417.636H248.096V426.764ZM310.028 470.767C321.943 470.767 329.358 462.611 329.358 450.517C329.358 438.347 321.943 430.216 310.028 430.216C298.114 430.216 290.699 438.347 290.699 450.517C290.699 462.611 298.114 470.767 310.028 470.767ZM310.08 462.33C304.582 462.33 301.77 457.293 301.77 450.44C301.77 443.588 304.582 438.526 310.08 438.526C315.474 438.526 318.287 443.588 318.287 450.44C318.287 457.293 315.474 462.33 310.08 462.33ZM336.44 470H347.332V457.523L350.273 454.173L360.986 470H373.744L358.429 447.73L373.003 430.727H360.5L347.92 445.634H347.332V417.636H336.44V470Z" fill="black"/>
<path d="M257.5 75C184.886 75 126 133.886 126 206.5C126 279.114 184.886 338 257.5 338C330.114 338 389 279.114 389 206.5C389 133.886 330.114 75 257.5 75ZM323.471 175.614V193.42C315.075 193.423 306.917 191.778 299.224 188.532C294.276 186.443 289.667 183.752 285.451 180.5L285.578 235.305C285.525 247.646 280.642 259.241 271.806 267.975C264.614 275.084 255.502 279.605 245.625 281.069C243.304 281.412 240.942 281.589 238.554 281.589C227.981 281.589 217.943 278.163 209.732 271.844C208.187 270.655 206.709 269.365 205.302 267.975C195.725 258.51 190.787 245.681 191.619 232.186C192.253 221.913 196.366 212.115 203.222 204.437C212.294 194.275 224.985 188.635 238.554 188.635C240.942 188.635 243.304 188.814 245.625 189.158V195.741V214.055C243.424 213.329 241.074 212.93 238.627 212.93C226.23 212.93 216.201 223.044 216.386 235.45C216.504 243.388 220.84 250.326 227.235 254.151C230.24 255.949 233.698 257.063 237.388 257.265C240.279 257.424 243.055 257.021 245.625 256.173C254.482 253.247 260.872 244.927 260.872 235.115L260.901 198.415V131.411H285.422C285.445 133.841 285.692 136.212 286.15 138.509C288.001 147.807 293.242 155.874 300.536 161.373C306.896 166.17 314.816 169.014 323.4 169.014C323.406 169.014 323.477 169.014 323.47 169.008V175.614H323.471Z" fill="white"/>
<defs>
<linearGradient id="paint0_linear" x1="257" y1="7" x2="257" y2="507" gradientUnits="userSpaceOnUse">
<stop stop-color="#F8F3EF"/>
<stop offset="1" stop-color="#F0EEE9"/>
</linearGradient>
</defs>
</svg>
