<svg width="515" height="515" viewBox="0 0 515 515" fill="none" xmlns="http://www.w3.org/2000/svg">
<rect x="7" y="7" width="500" height="500" fill="url(#paint0_linear)"/>
<rect x="22" y="22" width="470" height="369" rx="7" fill="#1B1A1F"/>
<path d="M138.373 426.764H154.404V470H165.348V426.764H181.379V417.636H138.373V426.764ZM188.257 470H199.149V430.727H188.257V470ZM193.728 425.665C196.975 425.665 199.635 423.185 199.635 420.142C199.635 417.125 196.975 414.645 193.728 414.645C190.507 414.645 187.848 417.125 187.848 420.142C187.848 423.185 190.507 425.665 193.728 425.665ZM207.874 484.727H218.766V463.71H219.098C220.607 466.983 223.905 470.639 230.246 470.639C239.195 470.639 246.175 463.557 246.175 450.415C246.175 436.915 238.888 430.216 230.272 430.216C223.701 430.216 220.556 434.128 219.098 437.324H218.613V430.727H207.874V484.727ZM218.536 450.364C218.536 443.358 221.502 438.884 226.794 438.884C232.189 438.884 235.053 443.562 235.053 450.364C235.053 457.216 232.138 461.972 226.794 461.972C221.553 461.972 218.536 457.369 218.536 450.364ZM271.334 470.767C281.05 470.767 287.596 466.037 289.13 458.75L279.056 458.085C277.956 461.077 275.144 462.636 271.513 462.636C266.067 462.636 262.615 459.031 262.615 453.176V453.151H289.36V450.159C289.36 436.812 281.28 430.216 270.9 430.216C259.343 430.216 251.851 438.423 251.851 450.543C251.851 462.994 259.24 470.767 271.334 470.767ZM262.615 446.401C262.846 441.926 266.246 438.347 271.078 438.347C275.809 438.347 279.081 441.722 279.107 446.401H262.615ZM314.365 470.767C324.081 470.767 330.627 466.037 332.161 458.75L322.087 458.085C320.988 461.077 318.175 462.636 314.544 462.636C309.098 462.636 305.647 459.031 305.647 453.176V453.151H332.391V450.159C332.391 436.812 324.311 430.216 313.931 430.216C302.374 430.216 294.882 438.423 294.882 450.543C294.882 462.994 302.272 470.767 314.365 470.767ZM305.647 446.401C305.877 441.926 309.277 438.347 314.11 438.347C318.84 438.347 322.113 441.722 322.138 446.401H305.647ZM357.397 470.767C367.113 470.767 373.658 466.037 375.192 458.75L365.118 458.085C364.019 461.077 361.206 462.636 357.576 462.636C352.13 462.636 348.678 459.031 348.678 453.176V453.151H375.422V450.159C375.422 436.812 367.343 430.216 356.962 430.216C345.405 430.216 337.914 438.423 337.914 450.543C337.914 462.994 345.303 470.767 357.397 470.767ZM348.678 446.401C348.908 441.926 352.309 438.347 357.141 438.347C361.871 438.347 365.144 441.722 365.169 446.401H348.678Z" fill="black"/>
<g clip-path="url(#clip0)">
<path fill-rule="evenodd" clip-rule="evenodd" d="M427.362 180.211C427.054 180.694 427.165 181.268 427.011 181.791C426.247 184.373 424.916 186.648 423.317 188.782C420.545 192.484 417.312 195.754 413.791 198.732C404.423 206.654 394.273 213.405 383.281 218.867C376.562 222.206 369.613 224.967 362.366 226.939C358.591 227.966 354.758 228.659 350.823 228.462C346.51 228.246 342.564 227.018 339.29 224.053C338.403 223.25 337.638 222.345 336.955 221.369C336.56 220.805 336.673 220.721 335.9 221.153C332.814 222.878 329.633 224.4 326.31 225.62C322.753 226.928 319.104 227.854 315.332 228.253C311.432 228.665 307.606 228.392 303.958 226.805C301.173 225.594 298.951 223.701 297.267 221.181C296.812 220.5 296.869 220.575 296.222 220.942C292.455 223.079 288.56 224.937 284.468 226.373C281.197 227.52 277.837 228.264 274.372 228.266C267.358 228.268 262.076 225.284 258.839 218.941C258.743 218.753 258.64 218.568 258.536 218.383C258.522 218.359 258.488 218.347 258.449 218.32C257.242 218.871 256.029 219.432 254.81 219.979C253.783 220.439 252.705 220.619 251.6 220.384C249.414 219.92 248.077 217.711 248.554 215.398C248.831 214.057 249.539 213.093 250.853 212.549C252.567 211.84 254.244 211.042 255.898 210.196C256.282 209.999 256.415 209.764 256.381 209.342C256.311 208.463 256.254 207.581 256.246 206.699C256.193 200.72 257.172 194.876 258.628 189.102C259.972 183.772 261.781 178.611 264.365 173.742C267.302 168.209 271.071 163.368 276.138 159.606C278.838 157.602 281.782 156.131 285.089 155.436C287.445 154.942 289.799 154.85 292.137 155.527C294.968 156.347 296.973 158.155 298.268 160.766C299.658 163.571 300.091 166.544 299.768 169.649C299.327 173.905 297.776 177.796 295.824 181.54C292.155 188.575 287.656 195.033 282.188 200.797C277.575 205.661 272.45 209.908 266.817 213.543C266.664 213.642 266.514 213.749 266.356 213.841C266.105 213.987 266.056 214.155 266.171 214.443C267.502 217.774 269.698 219.679 273.546 219.869C276.365 220.008 279.052 219.334 281.669 218.389C285.804 216.898 289.697 214.888 293.509 212.714C293.992 212.438 294.108 212.127 294.042 211.614C293.763 209.461 293.757 207.293 293.902 205.135C294.191 200.842 294.913 196.614 296.042 192.461C297.987 185.313 300.765 178.506 304.575 172.147C307.337 167.537 310.768 163.474 314.966 160.093C318.181 157.503 321.821 155.836 325.897 155.109C331.847 154.048 337.062 157.805 338.67 162.91C339.728 166.271 339.594 169.635 338.754 173.004C338.117 175.562 337.002 177.936 335.851 180.288C332.426 187.288 327.941 193.571 322.819 199.418C317.451 205.544 311.4 210.905 304.721 215.561C304.596 215.648 304.476 215.744 304.346 215.821C304.068 215.985 304.082 216.174 304.238 216.427C304.823 217.377 305.558 218.178 306.529 218.74C307.984 219.582 309.561 219.932 311.24 219.987C314.51 220.095 317.662 219.48 320.779 218.585C325.141 217.331 329.151 215.293 333.076 213.064C333.477 212.836 333.636 212.569 333.552 212.109C333.293 210.695 333.282 209.255 333.278 207.831C333.275 206.038 333.371 204.241 333.587 202.455C334.227 197.177 335.409 192.026 337.178 187.013C339.374 180.786 342.076 174.803 345.841 169.348C348.974 164.809 352.739 160.911 357.548 158.109C359.879 156.751 362.328 155.694 365.004 155.236C368.214 154.685 371.212 155.139 373.772 157.292C375.912 159.091 377.272 161.409 377.959 164.112C378.735 167.161 378.551 170.214 377.893 173.252C377.028 177.248 375.396 180.943 373.411 184.495C370.348 189.975 366.576 194.94 362.372 199.585C356.854 205.682 350.816 211.202 344.103 215.968C343.955 216.073 343.794 216.166 343.702 216.395C344.626 217.971 346.023 218.969 347.764 219.539C349.393 220.072 351.073 220.015 352.745 219.953C356.428 219.816 359.957 218.863 363.462 217.831C368.233 216.426 372.802 214.498 377.275 212.34C386.354 207.958 394.927 202.742 402.991 196.692C407.267 193.483 411.248 189.948 414.797 185.939C416.217 184.335 417.477 182.623 418.432 180.698C418.801 179.955 419.033 179.176 419.117 178.345C419.31 176.444 420.767 174.959 422.681 174.736C423.561 174.633 424.44 174.645 425.286 175.01C426.329 175.459 426.998 176.228 427.361 177.286C427.362 178.26 427.362 179.236 427.362 180.211V180.211ZM341.76 207.063C342.166 206.996 342.341 206.769 342.55 206.605C346.611 203.43 350.399 199.953 353.976 196.242C359.074 190.954 363.536 185.191 366.976 178.68C368.622 175.565 369.865 172.296 370.028 168.725C370.086 167.452 369.986 166.171 369.369 164.997C368.869 164.046 368.096 163.582 367.021 163.535C365.663 163.475 364.444 163.924 363.257 164.492C360.694 165.719 358.568 167.534 356.588 169.534C353.136 173.02 350.657 177.165 348.522 181.534C345.755 187.195 343.805 193.137 342.566 199.312C342.057 201.849 341.745 204.411 341.76 207.063V207.063ZM302.283 206.761C302.605 206.732 302.731 206.588 302.872 206.48C306.463 203.744 309.85 200.779 313.018 197.558C318.714 191.764 323.52 185.314 327.396 178.174C328.514 176.113 329.595 174.033 330.317 171.789C330.873 170.061 331.193 168.306 330.987 166.486C330.733 164.235 329.336 163.139 327.092 163.422C326.972 163.437 326.855 163.474 326.735 163.496C325.25 163.775 323.885 164.362 322.596 165.13C318.998 167.271 316.171 170.24 313.723 173.579C311.738 176.286 310.086 179.204 308.667 182.247C305.927 188.126 304.013 194.272 302.853 200.649C302.489 202.653 302.315 204.684 302.283 206.761V206.761ZM264.784 204.624C265.073 204.635 265.189 204.532 265.311 204.447C269.19 201.724 272.728 198.609 276.002 195.185C280.41 190.576 284.044 185.399 287.2 179.881C288.959 176.806 290.42 173.591 291.175 170.103C291.466 168.757 291.578 167.394 291.282 166.023C290.864 164.084 289.824 163.253 287.863 163.375C286.406 163.466 285.082 164.034 283.822 164.717C279.791 166.9 276.717 170.136 274.11 173.825C272.259 176.445 270.887 179.345 269.7 182.322C267.673 187.403 266.237 192.651 265.362 198.048C265.011 200.212 264.83 202.397 264.784 204.624V204.624Z" fill="white"/>
<path fill-rule="evenodd" clip-rule="evenodd" d="M89 156.069C89.0583 156.058 89.1501 156.067 89.1696 156.033C89.6931 155.137 90.5234 155.043 91.4562 155.07C92.9487 155.114 94.4427 155.09 95.9364 155.078C96.58 155.073 96.6299 155.051 96.599 154.399C96.4897 152.085 96.5476 149.77 96.5156 147.455C96.4961 146.054 96.4775 144.651 96.5068 143.25C96.5461 141.372 97.4472 140.282 99.2396 139.745C104.485 138.174 109.751 136.671 114.933 134.895C115.362 134.748 115.812 134.646 116.261 134.569C117.941 134.281 119.139 135.17 119.34 136.864C119.393 137.314 119.361 137.776 119.361 138.232C119.361 143.566 119.36 148.9 119.363 154.234C119.363 155.07 119.371 155.08 120.23 155.081C123.887 155.085 127.545 155.083 131.202 155.084C131.476 155.084 131.753 155.071 132.024 155.106C132.736 155.199 133.235 155.716 133.321 156.432C133.342 156.612 133.334 156.797 133.334 156.98C133.335 162.192 133.338 167.403 133.333 172.616C133.332 173.944 132.772 174.497 131.445 174.515C131.262 174.517 131.079 174.516 130.896 174.516C127.422 174.516 123.947 174.512 120.473 174.517C119.206 174.519 119.364 174.396 119.364 175.649C119.36 184.335 119.361 193.022 119.363 201.709C119.363 202.317 119.358 202.923 119.492 203.527C119.848 205.136 120.806 206.051 122.428 206.382C123.937 206.69 125.401 206.424 126.859 206.101C128.257 205.791 129.611 205.329 130.925 204.758C131.037 204.709 131.146 204.654 131.259 204.611C132.541 204.117 133.273 204.582 133.327 205.963C133.362 206.845 133.336 207.731 133.336 208.614C133.336 212.729 133.336 216.843 133.336 220.958C133.336 222.718 132.608 223.819 130.967 224.456C128.242 225.514 125.462 226.399 122.617 227.086C119.191 227.913 115.727 228.361 112.206 228.12C108.1 227.839 104.403 226.535 101.48 223.489C99.2419 221.156 97.9715 218.318 97.2567 215.209C96.8459 213.424 96.6703 211.612 96.6741 209.773C96.6916 200.782 96.684 191.791 96.681 182.799C96.6802 180.33 96.6646 177.862 96.6539 175.393C96.6501 174.521 96.6474 174.518 95.7421 174.516C94.2793 174.513 92.8149 174.484 91.3533 174.527C90.4662 174.553 89.7236 174.381 89.2301 173.577C89.1898 173.511 89.0785 173.488 89 173.445C89 167.652 89 161.861 89 156.069Z" fill="white"/>
<path fill-rule="evenodd" clip-rule="evenodd" d="M160.696 129C162.304 129.201 163.848 129.596 165.298 130.358C169.533 132.585 171.988 137.267 171.545 142.039C170.993 147.982 165.79 153.104 159.074 152.744C152.543 152.395 148.146 147.081 147.845 141.588C147.526 135.781 151.4 130.577 157.016 129.27C157.388 129.183 157.814 129.293 158.136 129C158.989 129 159.842 129 160.696 129V129Z" fill="white"/>
<path fill-rule="evenodd" clip-rule="evenodd" d="M209.82 157.201C211.226 156.683 212.565 156.193 213.956 155.872C221.717 154.079 229.026 155.218 235.809 159.384C242.548 163.523 247.077 169.509 249.952 176.805C251.469 180.656 252.314 184.663 252.58 188.794C253.091 196.739 251.571 204.252 247.699 211.23C244.302 217.351 239.582 222.15 233.25 225.273C228.547 227.591 223.57 228.487 218.362 228.096C215.74 227.9 213.193 227.306 210.727 226.377C210.452 226.274 210.192 226.076 209.872 226.139C209.679 226.277 209.745 226.476 209.745 226.644C209.74 229.936 209.739 233.227 209.743 236.518C209.743 237.263 209.753 237.271 210.49 237.274C211.831 237.28 213.172 237.271 214.513 237.277C215.77 237.283 216.352 237.829 216.446 239.081C216.462 239.293 216.452 239.507 216.452 239.721C216.452 244.567 216.452 249.412 216.453 254.258C216.453 254.685 216.457 255.11 216.335 255.526C216.127 256.235 215.616 256.657 214.888 256.701C214.706 256.712 214.523 256.704 214.34 256.704C203.308 256.704 192.275 256.704 181.243 256.703C180.969 256.703 180.689 256.726 180.423 256.677C179.785 256.558 179.266 255.952 179.183 255.257C179.158 255.046 179.17 254.831 179.17 254.618C179.169 249.529 179.169 244.439 179.171 239.35C179.171 238.986 179.135 238.619 179.3 238.272C179.622 237.597 180.146 237.269 180.897 237.273C182.329 237.282 183.762 237.279 185.194 237.274C185.95 237.271 185.951 237.265 185.964 236.545C185.967 236.393 185.964 236.24 185.964 236.088C185.964 215.944 185.966 195.799 185.962 175.654C185.962 174.289 186.146 174.443 184.751 174.435C183.532 174.428 182.313 174.445 181.094 174.43C179.727 174.413 179.172 173.843 179.171 172.458C179.167 167.308 179.167 162.157 179.171 157.007C179.172 155.579 179.746 154.976 181.148 154.975C190.017 154.968 198.885 154.968 207.754 154.975C209.146 154.977 209.578 155.444 209.82 157.201V157.201ZM232.583 191.558C232.575 188.419 232.103 185.582 231.094 182.878C230.201 180.482 228.942 178.314 227.053 176.547C225.488 175.081 223.665 174.152 221.513 174.046C219.52 173.948 217.752 174.657 216.175 175.852C214.258 177.304 212.888 179.199 211.928 181.368C209.122 187.711 209.001 194.161 211.357 200.658C212.219 203.035 213.541 205.142 215.435 206.854C218.731 209.835 222.935 209.965 226.403 207.195C227.978 205.937 229.138 204.344 230.057 202.57C231.845 199.118 232.568 195.418 232.583 191.558Z" fill="white"/>
<path fill-rule="evenodd" clip-rule="evenodd" d="M147.804 181.333C147.466 181.204 147.189 181.359 146.902 181.445C145.736 181.793 144.572 182.148 143.402 182.481C142.441 182.754 141.626 182.23 141.468 181.246C141.42 180.947 141.42 180.639 141.42 180.335C141.417 175.58 141.418 170.825 141.419 166.07C141.419 165.796 141.424 165.521 141.448 165.248C141.556 164.01 142 163.446 143.192 163.087C147.735 161.719 152.281 160.36 156.826 158.996C160.934 157.763 165.042 156.529 169.15 155.297C169.383 155.228 169.617 155.145 169.856 155.113C170.712 155.001 171.43 155.548 171.539 156.403C171.581 156.733 171.561 157.072 171.561 157.407C171.562 174.141 171.561 190.875 171.563 207.608C171.563 208.926 171.451 208.733 172.667 208.742C173.947 208.752 175.228 208.734 176.508 208.748C177.645 208.761 178.25 209.366 178.252 210.512C178.26 215.816 178.26 221.12 178.252 226.423C178.251 227.64 177.66 228.16 176.323 228.16C166.692 228.162 157.06 228.161 147.428 228.161C145.934 228.161 144.441 228.168 142.947 228.158C141.743 228.15 141.16 227.573 141.159 226.358C141.151 221.085 141.151 215.812 141.159 210.539C141.161 209.356 141.781 208.756 142.978 208.747C144.258 208.737 145.538 208.749 146.818 208.743C147.983 208.738 147.863 208.865 147.865 207.738C147.871 205.543 147.867 203.348 147.867 201.154C147.867 194.875 147.868 188.596 147.865 182.317C147.863 181.987 147.909 181.65 147.804 181.333V181.333Z" fill="white"/>
<path fill-rule="evenodd" clip-rule="evenodd" d="M402.217 239.934C403.638 238.334 405.153 237.213 407.273 237.356C409.236 237.489 410.972 238.089 412.09 239.848C412.487 239.704 412.67 239.407 412.906 239.182C415.333 236.847 418.922 236.999 421.162 238.175C422.509 238.883 423.269 240.072 423.722 241.484C424.193 242.952 424.281 244.47 424.281 245.998C424.282 247.461 424.275 248.924 424.285 250.387C424.289 251.041 424.304 251.041 424.948 251.068C426.082 251.115 426.082 251.115 426.082 252.277C426.083 253.283 426.088 254.289 426.081 255.294C426.076 256.02 426.069 256.037 425.402 256.039C422.75 256.047 420.097 256.048 417.445 256.038C416.804 256.036 416.786 256.012 416.786 255.355C416.785 252.154 416.798 248.954 416.796 245.753C416.796 245.087 416.827 244.417 416.646 243.76C416.477 243.149 416.151 242.711 415.488 242.626C414.837 242.544 414.145 242.948 413.836 243.554C413.65 243.918 413.589 244.312 413.586 244.706C413.571 246.657 413.582 248.608 413.568 250.558C413.565 250.979 413.702 251.181 414.147 251.153C414.511 251.129 414.879 251.158 415.244 251.149C415.547 251.141 415.687 251.26 415.685 251.576C415.678 252.917 415.68 254.258 415.686 255.599C415.687 255.905 415.552 256.044 415.248 256.041C414.913 256.036 414.578 256.042 414.242 256.043C411.835 256.043 409.426 256.047 407.018 256.04C406.319 256.038 406.305 256.023 406.304 255.33C406.298 252.404 406.294 249.478 406.305 246.552C406.309 245.666 406.259 244.782 406.123 243.912C405.951 242.814 404.982 242.32 404.027 242.792C403.478 243.064 403.261 243.563 403.22 244.136C403.183 244.652 403.195 245.171 403.194 245.689C403.191 247.304 403.187 248.92 403.196 250.536C403.199 251.183 403.213 251.177 403.849 251.207C404.302 251.228 404.86 251.018 405.181 251.307C405.549 251.64 405.322 252.232 405.335 252.709C405.359 253.562 405.349 254.416 405.34 255.27C405.332 256.025 405.325 256.039 404.577 256.041C402.017 256.047 399.456 256.043 396.896 256.043C396.286 256.043 395.676 256.033 395.067 256.045C394.688 256.053 394.509 255.912 394.512 255.514C394.523 254.265 394.527 253.014 394.511 251.765C394.505 251.316 394.705 251.163 395.122 251.202C395.273 251.217 395.428 251.195 395.579 251.204C395.93 251.227 396.063 251.07 396.062 250.719C396.054 248.219 396.054 245.72 396.062 243.221C396.063 242.868 395.928 242.713 395.578 242.736C395.457 242.744 395.334 242.74 395.213 242.735C394.546 242.708 394.526 242.708 394.52 242.084C394.506 240.865 394.525 239.646 394.511 238.426C394.506 237.992 394.677 237.843 395.109 237.846C397.03 237.863 398.95 237.862 400.871 237.846C401.266 237.843 401.484 237.964 401.606 238.354C401.758 238.845 401.974 239.317 402.217 239.934Z" fill="white"/>
<path fill-rule="evenodd" clip-rule="evenodd" d="M383.134 237.456C384.994 237.393 386.765 237.763 388.415 238.633C391.184 240.092 392.685 242.437 393.144 245.49C393.359 246.92 393.317 248.347 392.951 249.748C392.226 252.525 390.534 254.519 387.883 255.591C384.387 257.006 380.915 256.864 377.598 255.012C375.257 253.706 373.849 251.669 373.377 249.026C372.936 246.556 373.146 244.159 374.494 241.977C376.222 239.182 378.84 237.82 382.039 237.461C382.399 237.421 382.769 237.456 383.134 237.456ZM380.698 246.896C380.658 248.339 380.879 249.68 381.696 250.843C382.628 252.173 384.105 252.105 384.95 250.724C385.091 250.493 385.209 250.24 385.296 249.984C385.928 248.116 385.928 246.23 385.399 244.343C385.243 243.787 384.976 243.27 384.568 242.842C383.672 241.905 382.547 241.955 381.758 242.974C381.535 243.262 381.36 243.577 381.218 243.919C380.814 244.889 380.651 245.897 380.698 246.896Z" fill="white"/>
<path fill-rule="evenodd" clip-rule="evenodd" d="M367.026 239.314C367.249 239.142 367.255 238.844 367.354 238.602C367.665 237.835 367.653 237.828 368.424 237.825C369.399 237.822 370.374 237.838 371.348 237.819C371.754 237.811 371.957 237.896 371.953 238.367C371.933 240.743 371.936 243.12 371.951 245.495C371.953 245.916 371.836 246.097 371.385 246.091C369.954 246.07 368.522 246.073 367.091 246.089C366.698 246.093 366.543 245.928 366.522 245.559C366.49 244.979 366.372 244.414 366.174 243.866C365.429 241.805 363.661 241.976 362.476 243.027C362.341 243.147 362.215 243.289 362.122 243.444C361.031 245.252 360.764 247.141 361.664 249.101C362.284 250.449 363.4 251.096 364.863 251.145C366.377 251.195 367.646 250.623 368.731 249.586C369.254 249.087 369.273 249.096 369.752 249.642C370.474 250.467 371.187 251.301 371.904 252.128C372.514 252.833 372.524 252.84 371.792 253.484C370.228 254.859 368.411 255.759 366.387 256.207C363.989 256.738 361.602 256.679 359.297 255.762C355.931 254.42 354.095 251.889 353.644 248.319C353.431 246.636 353.521 244.968 354.04 243.353C355.094 240.077 357.404 238.238 360.749 237.648C361.527 237.511 362.314 237.423 363.112 237.52C364.42 237.678 365.577 238.161 366.557 239.051C366.685 239.168 366.784 239.346 367.026 239.314V239.314Z" fill="white"/>
<path fill-rule="evenodd" clip-rule="evenodd" d="M348.837 256.143C346.491 256.26 344.669 254.172 344.69 252.183C344.713 249.91 346.553 248.076 348.822 248.064C351.255 248.052 353.009 250.04 353.016 252.232C353.024 254.953 350.964 256.254 348.837 256.143V256.143Z" fill="white"/>
</g>
<defs>
<linearGradient id="paint0_linear" x1="257" y1="7" x2="257" y2="507" gradientUnits="userSpaceOnUse">
<stop stop-color="#F8F3EF"/>
<stop offset="1" stop-color="#F0EEE9"/>
</linearGradient>
<clipPath id="clip0">
<rect width="338.362" height="127.708" fill="white" transform="translate(89 129)"/>
</clipPath>
</defs>
</svg>
