<svg width="515" height="515" viewBox="0 0 515 515" fill="none" xmlns="http://www.w3.org/2000/svg">
<circle cx="258" cy="257" r="243" fill="#1B1A1F"/>
<circle cx="257.5" cy="257.5" r="217" fill="#1B1A1F" stroke="#2B2B2B" stroke-width="3"/>
<circle cx="257.5" cy="257.5" r="193" fill="#1B1A1F" stroke="#2B2B2B" stroke-width="3"/>
<circle cx="258" cy="257" r="202.427" fill="#1B1A1F" stroke="#2B2B2B" stroke-width="3.14653"/>
<circle cx="257.5" cy="257.5" r="172" fill="#1B1A1F" stroke="#2B2B2B" stroke-width="3"/>
<circle cx="259.5" cy="255.5" r="180.922" fill="#1B1A1F" stroke="#2B2B2B" stroke-width="3.15562"/>
<circle cx="258" cy="257" r="149.5" fill="#1B1A1F" stroke="#2B2B2B" stroke-width="3"/>
<circle cx="259" cy="256" r="162.371" fill="#1B1A1F" stroke="#2B2B2B" stroke-width="3.25828"/>
<circle cx="258" cy="257" r="128.5" fill="#1B1A1F" stroke="#2B2B2B" stroke-width="3"/>
<circle cx="257.5" cy="257.5" r="99" fill="#1B1A1F" stroke="#2B2B2B" stroke-width="3"/>
<g clip-path="url(#clip0)">
<path fill-rule="evenodd" clip-rule="evenodd" d="M337.969 251.06C337.825 251.287 337.877 251.556 337.804 251.802C337.446 253.015 336.82 254.084 336.069 255.087C334.767 256.826 333.248 258.362 331.593 259.761C327.192 263.483 322.424 266.655 317.259 269.221C314.103 270.79 310.838 272.087 307.433 273.014C305.659 273.496 303.858 273.822 302.01 273.729C299.983 273.628 298.13 273.051 296.591 271.658C296.175 271.281 295.815 270.855 295.494 270.397C295.309 270.132 295.362 270.093 294.999 270.295C293.549 271.106 292.054 271.821 290.493 272.394C288.822 273.008 287.107 273.444 285.335 273.631C283.503 273.825 281.706 273.696 279.992 272.951C278.683 272.382 277.639 271.492 276.848 270.308C276.634 269.988 276.661 270.024 276.357 270.196C274.587 271.2 272.757 272.073 270.835 272.748C269.298 273.287 267.72 273.636 266.092 273.637C262.796 273.638 260.314 272.236 258.794 269.256C258.749 269.168 258.7 269.081 258.651 268.994C258.645 268.983 258.629 268.977 258.611 268.964C258.043 269.223 257.474 269.487 256.901 269.744C256.419 269.96 255.912 270.045 255.393 269.934C254.366 269.716 253.737 268.678 253.962 267.592C254.092 266.962 254.424 266.509 255.042 266.253C255.847 265.92 256.635 265.545 257.412 265.147C257.593 265.055 257.655 264.944 257.639 264.746C257.606 264.333 257.579 263.919 257.576 263.504C257.551 260.695 258.011 257.95 258.695 255.237C259.326 252.733 260.176 250.308 261.39 248.021C262.77 245.421 264.541 243.147 266.921 241.379C268.19 240.438 269.573 239.746 271.126 239.42C272.233 239.188 273.339 239.145 274.438 239.463C275.768 239.848 276.71 240.698 277.318 241.924C277.972 243.242 278.175 244.639 278.023 246.098C277.816 248.097 277.087 249.925 276.17 251.684C274.446 254.99 272.333 258.023 269.764 260.732C267.596 263.017 265.188 265.012 262.542 266.72C262.47 266.767 262.4 266.817 262.326 266.86C262.208 266.929 262.184 267.008 262.239 267.143C262.864 268.708 263.896 269.603 265.703 269.692C267.028 269.758 268.29 269.441 269.52 268.997C271.462 268.296 273.291 267.352 275.083 266.33C275.309 266.201 275.364 266.055 275.333 265.814C275.202 264.802 275.199 263.784 275.267 262.77C275.403 260.753 275.742 258.766 276.273 256.815C277.186 253.457 278.491 250.259 280.282 247.271C281.579 245.105 283.191 243.197 285.164 241.608C286.674 240.391 288.384 239.608 290.299 239.267C293.094 238.768 295.545 240.533 296.3 242.931C296.797 244.511 296.734 246.091 296.34 247.674C296.04 248.876 295.516 249.991 294.976 251.096C293.366 254.385 291.26 257.337 288.853 260.084C286.331 262.962 283.488 265.48 280.35 267.668C280.291 267.709 280.235 267.754 280.174 267.79C280.043 267.867 280.05 267.956 280.123 268.075C280.398 268.521 280.743 268.898 281.199 269.161C281.883 269.557 282.624 269.722 283.413 269.748C284.949 269.798 286.43 269.509 287.894 269.089C289.944 268.499 291.828 267.542 293.672 266.495C293.86 266.388 293.935 266.262 293.895 266.046C293.774 265.382 293.768 264.706 293.767 264.036C293.765 263.194 293.81 262.35 293.912 261.511C294.212 259.031 294.768 256.611 295.599 254.255C296.631 251.33 297.9 248.519 299.669 245.956C301.141 243.824 302.91 241.992 305.169 240.676C306.264 240.038 307.415 239.541 308.673 239.326C310.18 239.067 311.589 239.281 312.792 240.292C313.797 241.137 314.436 242.226 314.759 243.496C315.123 244.929 315.037 246.363 314.728 247.791C314.321 249.668 313.555 251.404 312.622 253.072C311.183 255.647 309.411 257.98 307.436 260.162C304.843 263.027 302.006 265.62 298.853 267.859C298.783 267.909 298.707 267.952 298.664 268.06C299.098 268.8 299.755 269.269 300.573 269.537C301.338 269.788 302.127 269.761 302.913 269.731C304.643 269.667 306.301 269.22 307.948 268.735C310.19 268.074 312.336 267.169 314.437 266.155C318.703 264.096 322.731 261.646 326.519 258.803C328.528 257.296 330.399 255.635 332.066 253.751C332.733 252.997 333.325 252.193 333.774 251.289C333.947 250.939 334.056 250.574 334.096 250.183C334.187 249.29 334.871 248.593 335.77 248.488C336.184 248.439 336.597 248.445 336.994 248.616C337.484 248.827 337.798 249.188 337.969 249.686C337.969 250.144 337.969 250.602 337.969 251.06V251.06ZM297.752 263.676C297.943 263.644 298.025 263.538 298.123 263.461C300.031 261.969 301.811 260.335 303.491 258.592C305.886 256.107 307.983 253.4 309.599 250.341C310.372 248.877 310.956 247.341 311.033 245.663C311.06 245.065 311.013 244.464 310.723 243.912C310.488 243.465 310.125 243.247 309.62 243.225C308.982 243.197 308.409 243.408 307.852 243.675C306.647 244.251 305.649 245.104 304.718 246.044C303.097 247.682 301.932 249.629 300.929 251.681C299.629 254.341 298.712 257.133 298.13 260.034C297.891 261.226 297.745 262.429 297.752 263.676V263.676ZM279.205 263.533C279.356 263.52 279.415 263.452 279.482 263.402C281.169 262.116 282.76 260.723 284.248 259.21C286.925 256.488 289.182 253.457 291.003 250.103C291.529 249.135 292.036 248.157 292.376 247.103C292.637 246.291 292.787 245.467 292.691 244.612C292.571 243.554 291.915 243.039 290.86 243.172C290.804 243.179 290.749 243.196 290.693 243.207C289.995 243.338 289.354 243.614 288.748 243.974C287.058 244.981 285.729 246.376 284.579 247.944C283.647 249.216 282.871 250.587 282.204 252.017C280.917 254.779 280.018 257.666 279.473 260.662C279.302 261.603 279.22 262.558 279.205 263.533V263.533ZM261.587 262.53C261.723 262.535 261.777 262.486 261.834 262.446C263.657 261.167 265.319 259.704 266.858 258.095C268.928 255.93 270.636 253.497 272.119 250.905C272.945 249.46 273.631 247.95 273.986 246.311C274.123 245.678 274.175 245.038 274.036 244.394C273.84 243.483 273.351 243.093 272.43 243.15C271.745 243.193 271.123 243.46 270.531 243.78C268.638 244.806 267.193 246.327 265.969 248.06C265.099 249.291 264.454 250.653 263.896 252.052C262.944 254.439 262.269 256.904 261.858 259.44C261.693 260.457 261.608 261.483 261.587 262.53V262.53Z" fill="white"/>
<path fill-rule="evenodd" clip-rule="evenodd" d="M179 239.717C179.027 239.712 179.071 239.717 179.08 239.701C179.326 239.28 179.716 239.236 180.154 239.248C180.855 239.269 181.557 239.258 182.259 239.252C182.561 239.25 182.585 239.239 182.57 238.933C182.519 237.846 182.546 236.758 182.531 235.671C182.522 235.012 182.513 234.353 182.527 233.695C182.545 232.813 182.969 232.3 183.811 232.048C186.275 231.31 188.749 230.604 191.184 229.77C191.386 229.7 191.597 229.653 191.808 229.616C192.597 229.481 193.16 229.899 193.254 230.695C193.279 230.906 193.264 231.123 193.264 231.338C193.264 233.843 193.264 236.349 193.265 238.855C193.265 239.248 193.269 239.253 193.672 239.254C195.391 239.255 197.109 239.254 198.827 239.255C198.956 239.255 199.086 239.249 199.213 239.265C199.548 239.309 199.782 239.552 199.823 239.888C199.833 239.973 199.829 240.06 199.829 240.146C199.83 242.594 199.831 245.043 199.829 247.492C199.828 248.116 199.565 248.376 198.941 248.384C198.856 248.385 198.77 248.384 198.684 248.384C197.051 248.384 195.419 248.383 193.786 248.385C193.192 248.386 193.266 248.328 193.266 248.917C193.264 252.998 193.264 257.079 193.265 261.16C193.265 261.446 193.263 261.731 193.326 262.014C193.493 262.77 193.943 263.2 194.705 263.356C195.414 263.501 196.102 263.375 196.787 263.224C197.444 263.078 198.08 262.861 198.697 262.593C198.75 262.57 198.801 262.544 198.854 262.523C199.456 262.291 199.8 262.51 199.826 263.159C199.842 263.573 199.83 263.989 199.83 264.404C199.83 266.338 199.83 268.271 199.83 270.204C199.83 271.03 199.488 271.548 198.717 271.847C197.436 272.344 196.131 272.76 194.794 273.083C193.185 273.472 191.557 273.682 189.903 273.569C187.973 273.437 186.236 272.824 184.863 271.393C183.812 270.297 183.215 268.963 182.879 267.503C182.686 266.664 182.604 265.813 182.605 264.949C182.614 260.724 182.61 256.5 182.609 252.276C182.608 251.116 182.601 249.956 182.596 248.797C182.594 248.387 182.593 248.385 182.168 248.384C181.48 248.383 180.792 248.369 180.106 248.39C179.689 248.402 179.34 248.321 179.108 247.943C179.089 247.912 179.037 247.901 179 247.881C179 245.16 179 242.439 179 239.717Z" fill="white"/>
<path fill-rule="evenodd" clip-rule="evenodd" d="M212.684 227C213.44 227.095 214.165 227.28 214.847 227.638C216.836 228.684 217.99 230.884 217.782 233.126C217.522 235.918 215.077 238.324 211.922 238.156C208.854 237.991 206.788 235.495 206.647 232.914C206.497 230.186 208.317 227.741 210.955 227.127C211.13 227.086 211.33 227.138 211.481 227C211.882 227 212.283 227 212.684 227V227Z" fill="white"/>
<path fill-rule="evenodd" clip-rule="evenodd" d="M235.764 240.249C236.425 240.006 237.054 239.776 237.707 239.625C241.353 238.782 244.787 239.317 247.974 241.275C251.14 243.219 253.268 246.032 254.619 249.46C255.332 251.269 255.729 253.151 255.853 255.092C256.094 258.825 255.379 262.355 253.56 265.633C251.965 268.509 249.747 270.764 246.772 272.231C244.562 273.32 242.224 273.741 239.777 273.557C238.545 273.465 237.349 273.186 236.19 272.75C236.061 272.701 235.939 272.608 235.789 272.638C235.698 272.703 235.729 272.796 235.729 272.875C235.726 274.421 235.726 275.968 235.728 277.514C235.728 277.864 235.733 277.868 236.079 277.869C236.709 277.872 237.339 277.868 237.969 277.871C238.56 277.873 238.833 278.13 238.877 278.718C238.885 278.818 238.88 278.918 238.88 279.019C238.88 281.295 238.88 283.572 238.88 285.848C238.88 286.049 238.882 286.249 238.825 286.444C238.727 286.778 238.487 286.976 238.145 286.996C238.06 287.002 237.973 286.998 237.888 286.998C232.704 286.998 227.521 286.998 222.338 286.997C222.209 286.997 222.077 287.008 221.952 286.985C221.653 286.929 221.409 286.645 221.37 286.318C221.358 286.219 221.364 286.118 221.364 286.018C221.363 283.627 221.363 281.235 221.364 278.844C221.364 278.674 221.347 278.501 221.425 278.338C221.577 278.021 221.823 277.867 222.175 277.869C222.848 277.873 223.521 277.872 224.194 277.869C224.549 277.868 224.55 277.865 224.556 277.527C224.557 277.455 224.556 277.384 224.556 277.312C224.556 267.848 224.557 258.383 224.555 248.919C224.555 248.278 224.641 248.35 223.986 248.346C223.413 248.343 222.84 248.351 222.268 248.344C221.626 248.336 221.365 248.068 221.364 247.417C221.362 244.997 221.362 242.578 221.364 240.158C221.365 239.487 221.635 239.204 222.293 239.203C226.46 239.2 230.626 239.2 234.793 239.203C235.447 239.204 235.65 239.424 235.764 240.249V240.249ZM246.459 256.391C246.455 254.916 246.233 253.583 245.759 252.313C245.339 251.187 244.748 250.168 243.86 249.338C243.125 248.65 242.268 248.213 241.257 248.163C240.321 248.117 239.491 248.45 238.749 249.012C237.849 249.694 237.205 250.584 236.754 251.603C235.436 254.583 235.379 257.614 236.486 260.666C236.891 261.783 237.512 262.773 238.402 263.577C239.951 264.978 241.926 265.039 243.555 263.737C244.295 263.146 244.84 262.398 245.272 261.565C246.112 259.943 246.452 258.204 246.459 256.391Z" fill="white"/>
<path fill-rule="evenodd" clip-rule="evenodd" d="M206.627 251.587C206.468 251.526 206.338 251.599 206.203 251.64C205.656 251.803 205.109 251.97 204.559 252.126C204.108 252.254 203.725 252.008 203.65 251.546C203.628 251.406 203.628 251.261 203.628 251.118C203.627 248.884 203.627 246.65 203.627 244.416C203.627 244.287 203.63 244.158 203.641 244.03C203.692 243.448 203.9 243.183 204.46 243.015C206.595 242.372 208.73 241.733 210.866 241.093C212.796 240.513 214.726 239.934 216.656 239.355C216.766 239.322 216.875 239.283 216.988 239.268C217.39 239.216 217.727 239.472 217.778 239.874C217.798 240.03 217.789 240.189 217.789 240.346C217.789 248.208 217.789 256.07 217.79 263.932C217.79 264.551 217.737 264.46 218.308 264.464C218.91 264.469 219.511 264.461 220.113 264.467C220.647 264.473 220.931 264.757 220.932 265.296C220.936 267.788 220.936 270.28 220.932 272.771C220.932 273.343 220.654 273.587 220.026 273.587C215.501 273.588 210.976 273.588 206.45 273.588C205.749 273.588 205.047 273.591 204.345 273.586C203.779 273.583 203.506 273.311 203.505 272.741C203.502 270.263 203.501 267.786 203.505 265.309C203.506 264.753 203.797 264.471 204.36 264.467C204.961 264.462 205.563 264.468 206.164 264.465C206.711 264.462 206.655 264.522 206.656 263.992C206.658 262.961 206.657 261.93 206.657 260.899C206.657 257.949 206.657 254.999 206.656 252.049C206.655 251.894 206.676 251.736 206.627 251.587V251.587Z" fill="white"/>
<path fill-rule="evenodd" clip-rule="evenodd" d="M326.156 279.119C326.823 278.367 327.535 277.841 328.531 277.908C329.453 277.97 330.269 278.252 330.794 279.079C330.981 279.011 331.067 278.872 331.178 278.766C332.318 277.669 334.004 277.74 335.057 278.293C335.689 278.625 336.046 279.184 336.259 279.847C336.481 280.537 336.522 281.25 336.522 281.968C336.522 282.655 336.519 283.343 336.524 284.03C336.526 284.337 336.533 284.337 336.835 284.35C337.368 284.372 337.368 284.372 337.368 284.918C337.368 285.391 337.371 285.863 337.367 286.336C337.365 286.676 337.362 286.685 337.048 286.686C335.802 286.689 334.556 286.69 333.31 286.685C333.009 286.684 333 286.673 333 286.364C333 284.86 333.006 283.357 333.005 281.853C333.005 281.54 333.02 281.225 332.935 280.917C332.855 280.63 332.702 280.424 332.391 280.384C332.085 280.345 331.76 280.535 331.615 280.82C331.527 280.991 331.498 281.176 331.497 281.361C331.49 282.278 331.495 283.194 331.488 284.111C331.487 284.308 331.552 284.403 331.761 284.39C331.932 284.379 332.104 284.393 332.276 284.388C332.418 284.384 332.484 284.44 332.483 284.589C332.48 285.219 332.481 285.849 332.484 286.479C332.484 286.623 332.421 286.688 332.278 286.686C332.121 286.684 331.963 286.687 331.806 286.687C330.674 286.687 329.543 286.689 328.412 286.686C328.083 286.685 328.077 286.678 328.076 286.353C328.073 284.978 328.071 283.603 328.077 282.228C328.078 281.812 328.055 281.397 327.991 280.988C327.91 280.472 327.455 280.24 327.006 280.462C326.748 280.59 326.646 280.824 326.627 281.093C326.61 281.336 326.615 281.58 326.615 281.823C326.613 282.582 326.612 283.341 326.616 284.1C326.617 284.404 326.624 284.401 326.923 284.415C327.135 284.425 327.398 284.326 327.548 284.462C327.721 284.619 327.615 284.897 327.621 285.121C327.632 285.522 327.627 285.923 327.623 286.324C327.619 286.679 327.616 286.686 327.265 286.686C326.062 286.69 324.859 286.688 323.656 286.688C323.369 286.688 323.083 286.683 322.796 286.689C322.619 286.692 322.534 286.626 322.536 286.439C322.541 285.852 322.543 285.264 322.535 284.677C322.533 284.466 322.626 284.395 322.823 284.413C322.893 284.42 322.966 284.41 323.037 284.414C323.202 284.425 323.265 284.351 323.264 284.186C323.26 283.012 323.26 281.838 323.264 280.663C323.265 280.498 323.201 280.425 323.037 280.436C322.98 280.439 322.922 280.437 322.865 280.435C322.552 280.423 322.542 280.422 322.539 280.129C322.533 279.556 322.542 278.984 322.535 278.411C322.533 278.207 322.613 278.137 322.816 278.138C323.719 278.146 324.621 278.146 325.523 278.138C325.709 278.137 325.811 278.194 325.869 278.377C325.94 278.608 326.042 278.829 326.156 279.119Z" fill="white"/>
<path fill-rule="evenodd" clip-rule="evenodd" d="M317.19 277.955C318.064 277.926 318.896 278.099 319.671 278.508C320.972 279.193 321.677 280.295 321.893 281.729C321.994 282.401 321.974 283.072 321.802 283.73C321.462 285.035 320.667 285.972 319.422 286.475C317.779 287.14 316.148 287.073 314.589 286.203C313.489 285.59 312.828 284.632 312.606 283.391C312.399 282.23 312.498 281.104 313.131 280.079C313.943 278.766 315.173 278.126 316.676 277.957C316.845 277.939 317.019 277.955 317.19 277.955ZM316.046 282.39C316.027 283.068 316.131 283.698 316.515 284.245C316.952 284.869 317.647 284.837 318.044 284.189C318.11 284.08 318.165 283.961 318.206 283.841C318.503 282.963 318.503 282.077 318.254 281.191C318.181 280.929 318.056 280.687 317.864 280.486C317.443 280.045 316.915 280.069 316.544 280.547C316.439 280.683 316.357 280.831 316.29 280.991C316.1 281.447 316.024 281.921 316.046 282.39Z" fill="white"/>
<path fill-rule="evenodd" clip-rule="evenodd" d="M309.623 278.828C309.727 278.747 309.73 278.607 309.776 278.493C309.923 278.133 309.917 278.13 310.279 278.128C310.737 278.127 311.195 278.134 311.653 278.125C311.843 278.122 311.939 278.162 311.937 278.383C311.928 279.499 311.929 280.616 311.936 281.732C311.937 281.929 311.882 282.015 311.671 282.012C310.998 282.002 310.325 282.004 309.653 282.011C309.468 282.013 309.395 281.935 309.386 281.762C309.371 281.489 309.315 281.224 309.222 280.967C308.872 279.998 308.041 280.078 307.485 280.572C307.421 280.628 307.362 280.695 307.318 280.768C306.806 281.618 306.68 282.505 307.103 283.426C307.394 284.059 307.919 284.363 308.606 284.386C309.318 284.41 309.914 284.141 310.423 283.654C310.669 283.419 310.678 283.424 310.903 283.68C311.243 284.068 311.577 284.46 311.914 284.848C312.201 285.179 312.205 285.183 311.862 285.485C311.127 286.131 310.273 286.554 309.322 286.765C308.195 287.014 307.074 286.987 305.991 286.555C304.41 285.925 303.547 284.736 303.335 283.059C303.235 282.268 303.277 281.484 303.521 280.725C304.017 279.186 305.102 278.322 306.673 278.045C307.039 277.981 307.409 277.939 307.783 277.985C308.398 278.059 308.942 278.286 309.402 278.704C309.462 278.759 309.509 278.843 309.623 278.828V278.828Z" fill="white"/>
<path fill-rule="evenodd" clip-rule="evenodd" d="M301.077 286.735C299.975 286.789 299.119 285.808 299.128 284.874C299.14 283.806 300.004 282.945 301.07 282.939C302.213 282.933 303.037 283.867 303.04 284.897C303.044 286.175 302.076 286.787 301.077 286.735V286.735Z" fill="white"/>
</g>
<defs>
<clipPath id="clip0">
<rect width="158.969" height="60" fill="white" transform="translate(179 227)"/>
</clipPath>
</defs>
</svg>
