<svg width="515" height="515" viewBox="0 0 515 515" fill="none" xmlns="http://www.w3.org/2000/svg">
<rect x="7" y="7" width="500" height="500" fill="url(#paint0_linear)"/>
<rect x="22" y="22" width="470" height="369" rx="7" fill="#1B1A1F"/>
<path d="M133.311 426.764H149.342V470H160.285V426.764H176.316V417.636H133.311V426.764ZM186.441 470H197.947L204.697 445.301H205.183L211.933 470H223.464L234.126 430.727H223.132L217.149 456.96H216.816L210.373 430.727H199.558L193.217 457.114H192.859L186.774 430.727H175.754L186.441 470ZM239.936 470H250.828V430.727H239.936V470ZM245.408 425.665C248.655 425.665 251.314 423.185 251.314 420.142C251.314 417.125 248.655 414.645 245.408 414.645C242.186 414.645 239.527 417.125 239.527 420.142C239.527 423.185 242.186 425.665 245.408 425.665ZM280.443 430.727H273.054V421.318H262.162V430.727H256.792V438.909H262.162V459.364C262.11 467.06 267.352 470.869 275.252 470.537C278.065 470.435 280.059 469.872 281.159 469.514L279.446 461.409C278.909 461.511 277.758 461.767 276.735 461.767C274.562 461.767 273.054 460.949 273.054 457.932V438.909H280.443V430.727ZM308.427 430.727H301.038V421.318H290.146V430.727H284.777V438.909H290.146V459.364C290.095 467.06 295.336 470.869 303.237 470.537C306.049 470.435 308.044 469.872 309.143 469.514L307.43 461.409C306.893 461.511 305.743 461.767 304.72 461.767C302.547 461.767 301.038 460.949 301.038 457.932V438.909H308.427V430.727ZM332.998 470.767C342.714 470.767 349.26 466.037 350.794 458.75L340.72 458.085C339.62 461.077 336.808 462.636 333.177 462.636C327.731 462.636 324.279 459.031 324.279 453.176V453.151H351.024V450.159C351.024 436.812 342.944 430.216 332.564 430.216C321.007 430.216 313.515 438.423 313.515 450.543C313.515 462.994 320.904 470.767 332.998 470.767ZM324.279 446.401C324.51 441.926 327.91 438.347 332.743 438.347C337.473 438.347 340.745 441.722 340.771 446.401H324.279ZM358.132 470H369.024V447.781C369.024 442.949 372.552 439.625 377.359 439.625C378.868 439.625 380.939 439.881 381.961 440.213V430.548C380.99 430.318 379.635 430.165 378.535 430.165C374.137 430.165 370.532 432.722 369.1 437.58H368.691V430.727H358.132V470Z" fill="black"/>
<path d="M257.5 75C184.886 75 126 133.886 126 206.5C126 279.114 184.886 338 257.5 338C330.114 338 389 279.114 389 206.5C389 133.886 330.114 75 257.5 75ZM317.541 177.53C317.6 178.824 317.628 180.124 317.628 181.43C317.628 221.314 287.269 267.306 231.75 267.308H231.752H231.75C214.705 267.308 198.843 262.312 185.486 253.75C187.847 254.029 190.251 254.167 192.685 254.167C206.827 254.167 219.841 249.343 230.173 241.247C216.96 241.002 205.82 232.276 201.975 220.283C203.815 220.636 205.707 220.829 207.648 220.829C210.403 220.829 213.071 220.457 215.608 219.765C201.797 217 191.393 204.794 191.393 190.179C191.393 190.042 191.393 189.92 191.397 189.794C195.464 192.055 200.115 193.415 205.067 193.568C196.963 188.16 191.636 178.916 191.636 168.444C191.636 162.914 193.13 157.733 195.723 153.273C210.607 171.536 232.852 183.547 257.937 184.809C257.42 182.598 257.153 180.295 257.153 177.927C257.153 161.265 270.671 147.747 287.339 147.747C296.021 147.747 303.863 151.417 309.371 157.284C316.247 155.927 322.704 153.415 328.537 149.958C326.28 157.003 321.496 162.914 315.264 166.652C321.37 165.922 327.189 164.303 332.596 161.899C328.557 167.953 323.435 173.27 317.541 177.53V177.53Z" fill="white"/>
<defs>
<linearGradient id="paint0_linear" x1="257" y1="7" x2="257" y2="507" gradientUnits="userSpaceOnUse">
<stop stop-color="#F8F3EF"/>
<stop offset="1" stop-color="#F0EEE9"/>
</linearGradient>
</defs>
</svg>
