<svg width="515" height="515" viewBox="0 0 515 515" fill="none" xmlns="http://www.w3.org/2000/svg">
<circle cx="258" cy="257" r="243" fill="#1B1A1F"/>
<circle cx="257.5" cy="257.5" r="217" fill="#1B1A1F" stroke="#2B2B2B" stroke-width="3"/>
<circle cx="257.5" cy="257.5" r="193" fill="#1B1A1F" stroke="#2B2B2B" stroke-width="3"/>
<circle cx="258" cy="257" r="202.427" fill="#1B1A1F" stroke="#2B2B2B" stroke-width="3.14653"/>
<circle cx="257.5" cy="257.5" r="172" fill="#1B1A1F" stroke="#2B2B2B" stroke-width="3"/>
<circle cx="259.5" cy="255.5" r="180.922" fill="#1B1A1F" stroke="#2B2B2B" stroke-width="3.15562"/>
<circle cx="258" cy="257" r="149.5" fill="#1B1A1F" stroke="#2B2B2B" stroke-width="3"/>
<circle cx="259" cy="256" r="162.371" fill="#1B1A1F" stroke="#2B2B2B" stroke-width="3.25828"/>
<circle cx="258" cy="257" r="128.5" fill="#1B1A1F" stroke="#2B2B2B" stroke-width="3"/>
<circle cx="257.5" cy="257.5" r="99" fill="#1B1A1F" stroke="#2B2B2B" stroke-width="3"/>
<path d="M257.5 195C222.987 195 195 222.987 195 257.5C195 292.013 222.987 320 257.5 320C292.013 320 320 292.013 320 257.5C320 222.987 292.013 195 257.5 195ZM286.037 243.731C286.064 244.346 286.078 244.964 286.078 245.585C286.078 264.541 271.649 286.4 245.261 286.401H245.262H245.261C237.16 286.401 229.621 284.026 223.273 279.957C224.395 280.09 225.538 280.155 226.694 280.155C233.416 280.155 239.601 277.863 244.512 274.015C238.232 273.898 232.937 269.751 231.11 264.051C231.984 264.219 232.884 264.31 233.806 264.31C235.115 264.31 236.384 264.134 237.589 263.805C231.025 262.491 226.08 256.689 226.08 249.743C226.08 249.678 226.08 249.62 226.082 249.56C228.015 250.634 230.226 251.281 232.58 251.354C228.728 248.783 226.196 244.39 226.196 239.413C226.196 236.784 226.906 234.322 228.138 232.202C235.213 240.882 245.785 246.591 257.708 247.191C257.462 246.14 257.335 245.045 257.335 243.92C257.335 236 263.76 229.575 271.682 229.575C275.809 229.575 279.536 231.32 282.153 234.108C285.422 233.464 288.491 232.27 291.263 230.626C290.19 233.975 287.916 236.784 284.954 238.561C287.856 238.214 290.622 237.444 293.192 236.302C291.272 239.179 288.838 241.706 286.037 243.731V243.731Z" fill="white"/>
</svg>
