<svg width="515" height="515" viewBox="0 0 515 515" fill="none" xmlns="http://www.w3.org/2000/svg">
<rect x="7" y="7" width="500" height="500" fill="url(#paint0_linear)"/>
<rect x="22" y="22" width="470" height="369" rx="7" fill="#1B1A1F"/>
<path d="M139.955 426.764H155.987V470H166.93V426.764H182.961V417.636H139.955V426.764ZM193.086 470H204.592L211.342 445.301H211.827L218.577 470H230.109L240.771 430.727H229.776L223.793 456.96H223.461L217.018 430.727H206.202L199.862 457.114H199.504L193.418 430.727H182.398L193.086 470ZM246.581 470H257.473V430.727H246.581V470ZM252.053 425.665C255.3 425.665 257.959 423.185 257.959 420.142C257.959 417.125 255.3 414.645 252.053 414.645C248.831 414.645 246.172 417.125 246.172 420.142C246.172 423.185 248.831 425.665 252.053 425.665ZM287.087 430.727H279.698V421.318H268.806V430.727H263.437V438.909H268.806V459.364C268.755 467.06 273.996 470.869 281.897 470.537C284.71 470.435 286.704 469.872 287.803 469.514L286.09 461.409C285.553 461.511 284.403 461.767 283.38 461.767C281.207 461.767 279.698 460.949 279.698 457.932V438.909H287.087V430.727ZM311.505 470.767C321.962 470.767 328.533 464.631 329.045 455.605H318.766C318.127 459.798 315.366 462.151 311.633 462.151C306.545 462.151 303.246 457.881 303.246 450.364C303.246 442.949 306.57 438.705 311.633 438.705C315.621 438.705 318.178 441.338 318.766 445.25H329.045C328.585 436.173 321.707 430.216 311.454 430.216C299.539 430.216 292.175 438.474 292.175 450.517C292.175 462.457 299.411 470.767 311.505 470.767ZM346.911 447.295C346.936 442.233 350.03 439.267 354.479 439.267C358.902 439.267 361.51 442.105 361.484 446.938V470H372.376V444.994C372.402 435.79 366.982 430.216 358.8 430.216C352.842 430.216 348.854 433.028 347.064 437.656H346.604V417.636H336.018V470H346.911V447.295Z" fill="black"/>
<g clip-path="url(#clip0)">
<path d="M135.684 120.751V303.689H198.684V338H233.082L267.425 303.678H318.984L387.737 235.101V75H152.856L135.684 120.751ZM175.77 97.8481H364.823V223.639L324.716 263.659H261.694L227.351 297.925V263.659H175.77V97.8481Z" fill="white"/>
<path d="M238.802 143.621H261.705V212.22H238.802V143.621Z" fill="white"/>
<path d="M301.791 143.621H324.705V212.22H301.791V143.621Z" fill="white"/>
</g>
<defs>
<linearGradient id="paint0_linear" x1="257" y1="7" x2="257" y2="507" gradientUnits="userSpaceOnUse">
<stop stop-color="#F8F3EF"/>
<stop offset="1" stop-color="#F0EEE9"/>
</linearGradient>
<clipPath id="clip0">
<rect width="263" height="263" fill="white" transform="translate(125 75)"/>
</clipPath>
</defs>
</svg>
