<svg width="515" height="515" viewBox="0 0 515 515" fill="none" xmlns="http://www.w3.org/2000/svg">
<circle cx="258" cy="257" r="243" fill="#1B1A1F"/>
<circle cx="257.5" cy="257.5" r="217" fill="#1B1A1F" stroke="#2B2B2B" stroke-width="3"/>
<circle cx="257.5" cy="257.5" r="193" fill="#1B1A1F" stroke="#2B2B2B" stroke-width="3"/>
<circle cx="258" cy="257" r="202.427" fill="#1B1A1F" stroke="#2B2B2B" stroke-width="3.14653"/>
<circle cx="257.5" cy="257.5" r="172" fill="#1B1A1F" stroke="#2B2B2B" stroke-width="3"/>
<circle cx="259.5" cy="255.5" r="180.922" fill="#1B1A1F" stroke="#2B2B2B" stroke-width="3.15562"/>
<circle cx="258" cy="257" r="149.5" fill="#1B1A1F" stroke="#2B2B2B" stroke-width="3"/>
<circle cx="259" cy="256" r="162.371" fill="#1B1A1F" stroke="#2B2B2B" stroke-width="3.25828"/>
<circle cx="258" cy="257" r="128.5" fill="#1B1A1F" stroke="#2B2B2B" stroke-width="3"/>
<circle cx="257.5" cy="257.5" r="99" fill="#1B1A1F" stroke="#2B2B2B" stroke-width="3"/>
<path d="M315.773 228.839C314.422 223.818 310.464 219.861 305.444 218.509C296.274 216 259.592 216 259.592 216C259.592 216 222.912 216 213.742 218.414C208.818 219.764 204.764 223.819 203.413 228.839C201 238.008 201 257.025 201 257.025C201 257.025 201 276.137 203.413 285.211C204.765 290.231 208.722 294.188 213.742 295.54C223.008 298.05 259.594 298.05 259.594 298.05C259.594 298.05 296.274 298.05 305.444 295.636C310.465 294.285 314.422 290.327 315.774 285.308C318.187 276.137 318.187 257.121 318.187 257.121C318.187 257.121 318.283 238.008 315.773 228.839V228.839ZM247.914 274.593V239.457L278.416 257.025L247.914 274.593Z" fill="white"/>
</svg>
