<svg width="515" height="515" viewBox="0 0 515 515" fill="none" xmlns="http://www.w3.org/2000/svg">
<rect x="7" y="7" width="500" height="500" fill="url(#paint0_linear)"/>
<rect x="22" y="22" width="470" height="369" rx="7" fill="#1B1A1F"/>
<path d="M111.213 417.636L130.313 451.489V470H141.307V451.489L160.407 417.636H148.006L136.066 440.188H135.554L123.614 417.636H111.213ZM175.837 470.767C187.752 470.767 195.167 462.611 195.167 450.517C195.167 438.347 187.752 430.216 175.837 430.216C163.922 430.216 156.507 438.347 156.507 450.517C156.507 462.611 163.922 470.767 175.837 470.767ZM175.888 462.33C170.391 462.33 167.578 457.293 167.578 450.44C167.578 443.588 170.391 438.526 175.888 438.526C181.283 438.526 184.096 443.588 184.096 450.44C184.096 457.293 181.283 462.33 175.888 462.33ZM227.434 453.278C227.459 458.545 223.854 461.307 219.942 461.307C215.826 461.307 213.167 458.418 213.141 453.79V430.727H202.249V455.733C202.275 464.912 207.644 470.511 215.544 470.511C221.451 470.511 225.695 467.469 227.459 462.866H227.868V470H238.326V430.727H227.434V453.278ZM267.927 430.727H260.538V421.318H249.646V430.727H244.277V438.909H249.646V459.364C249.595 467.06 254.836 470.869 262.737 470.537C265.549 470.435 267.544 469.872 268.643 469.514L266.93 461.409C266.393 461.511 265.243 461.767 264.22 461.767C262.047 461.767 260.538 460.949 260.538 457.932V438.909H267.927V430.727ZM300.207 453.278C300.233 458.545 296.627 461.307 292.716 461.307C288.599 461.307 285.94 458.418 285.914 453.79V430.727H275.022V455.733C275.048 464.912 280.417 470.511 288.318 470.511C294.224 470.511 298.468 467.469 300.233 462.866H300.642V470H311.099V430.727H300.207V453.278ZM320.016 470H330.755V463.71H331.24C332.749 466.983 336.047 470.639 342.388 470.639C351.337 470.639 358.317 463.557 358.317 450.415C358.317 436.915 351.03 430.216 342.414 430.216C335.843 430.216 332.698 434.128 331.24 437.324H330.908V417.636H320.016V470ZM330.678 450.364C330.678 443.358 333.644 438.884 338.936 438.884C344.331 438.884 347.195 443.562 347.195 450.364C347.195 457.216 344.28 461.972 338.936 461.972C333.695 461.972 330.678 457.369 330.678 450.364ZM383.483 470.767C393.199 470.767 399.744 466.037 401.278 458.75L391.204 458.085C390.105 461.077 387.292 462.636 383.662 462.636C378.216 462.636 374.764 459.031 374.764 453.176V453.151H401.508V450.159C401.508 436.812 393.429 430.216 383.048 430.216C371.491 430.216 364 438.423 364 450.543C364 462.994 371.389 470.767 383.483 470.767ZM374.764 446.401C374.994 441.926 378.395 438.347 383.227 438.347C387.957 438.347 391.23 441.722 391.255 446.401H374.764Z" fill="black"/>
<path d="M376.482 147.013C373.641 136.45 365.313 128.123 354.751 125.279C335.457 120 258.278 120 258.278 120C258.278 120 181.103 120 161.808 125.079C151.45 127.92 142.919 136.452 140.078 147.013C135 166.306 135 206.316 135 206.316C135 206.316 135 246.529 140.078 265.62C142.922 276.181 151.247 284.508 161.81 287.352C181.306 292.633 258.281 292.633 258.281 292.633C258.281 292.633 335.457 292.633 354.751 287.554C365.314 284.711 373.641 276.384 376.485 265.823C381.561 246.529 381.561 206.52 381.561 206.52C381.561 206.52 381.764 166.306 376.482 147.013V147.013ZM233.706 243.28V169.353L297.884 206.316L233.706 243.28Z" fill="white"/>
<defs>
<linearGradient id="paint0_linear" x1="257" y1="7" x2="257" y2="507" gradientUnits="userSpaceOnUse">
<stop stop-color="#F8F3EF"/>
<stop offset="1" stop-color="#F0EEE9"/>
</linearGradient>
</defs>
</svg>
