<?xml version="1.0" encoding="utf-8"?><!DOCTYPE svg PUBLIC "-//W3C//DTD SVG 1.1//EN" "http://www.w3.org/Graphics/SVG/1.1/DTD/svg11.dtd"><svg version="1.1" id="Contours" xmlns="http://www.w3.org/2000/svg" xmlns:xlink="http://www.w3.org/1999/xlink" x="0px" y="0px" width="1764.428833px" height="1764.428833px" viewBox="0.000001 0.000001 1764.428833 1455.745483" enable-background="new 0 0 1764.428833 1764.428833" xml:space="preserve" stroke="black" fill="none" stroke-linecap='round' stroke-linejoin='round'><path class="selected"  fill="#ffffff" opacity="1.000000" stroke="none" 
 	d="
M1695.742821 75.230089 C1717.162757 75.346647 1741.787500 76.985229 1754.672444 94.096789 C1763.708145 106.096450 1764.087020 122.296682 1764.091517 137.317858 C1764.203953 512.952132 1764.316391 888.586405 1764.428828 1264.220678 C1764.439353 1299.381111 1761.602794 1340.290221 1732.672931 1360.273192 C1699.647047 1383.085442 1644.627250 1368.682095 1623.230358 1402.642082 C1600.835405 1438.186139 1557.517046 1459.373712 1515.710899 1455.231248 C1473.904752 1451.088785 1435.586769 1421.812076 1420.602753 1382.564233 C1062.267574 1382.717656 703.932394 1382.871079 345.597215 1383.024503 C327.763473 1421.053879 288.516456 1448.126981 246.632557 1451.291607 C204.748659 1454.456233 161.879304 1433.587607 138.533869 1398.669609 C117.495569 1367.202415 66.283822 1382.216547 34.023390 1362.416068 C3.374736 1343.604850 -0.014915 1301.190583 0.000049 1265.229469 C0.153919 895.510847 0.307785 525.792225 0.461652 156.073604 C0.470426 134.989920 1.048796 112.164460 14.031472 95.552056 C31.755327 72.872936 64.729450 70.865700 93.512653 70.796985 C161.900311 70.633739 230.287967 70.470487 298.675624 70.307234 C289.734829 50.882916 302.772057 27.045583 321.433946 16.606430 C340.095835 6.167277 362.496145 5.637567 383.877657 5.367417 C413.688656 4.990763 443.499655 4.614109 473.310654 4.237455 C495.592710 3.955925 518.994265 3.936540 538.582391 14.560785 C558.170517 25.185030 571.810782 50.307580 562.017714 70.324200 C620.764323 70.342122 679.510944 70.360037 738.257564 70.377952 C726.617862 52.440127 738.111429 26.872953 756.501768 15.962241 C774.892108 5.051529 797.460216 4.775974 818.843555 4.808209 C853.205655 4.860036 887.567751 4.911847 921.929847 4.963658 C943.156612 4.995666 965.550473 5.333486 983.794344 16.184188 C1002.038215 27.034890 1013.467991 52.359004 1001.997127 70.219459 C1061.815970 70.184791 1121.634813 70.150123 1181.453655 70.115454 C1167.313791 52.451103 1178.121786 24.175253 1197.311186 12.186426 C1216.500587 0.197600 1240.498076 -0.081326 1263.124536 0.010020 C1293.969312 0.134544 1324.814089 0.259068 1355.658866 0.383592 C1379.121998 0.478316 1404.014845 0.973267 1423.783671 13.611347 C1443.552498 26.249427 1454.382665 55.774215 1439.405093 73.835221 C1524.851002 74.300177 1610.296911 74.765133 1695.742821 75.230090 M1718.697755 119.972316 C1698.927353 100.310869 1667.920582 99.062360 1640.037958 99.037764 C1125.468052 98.584103 610.897824 98.497807 96.327797 98.778900 C81.592032 98.786949 66.093273 98.988056 53.298588 106.298246 C27.351087 121.123244 24.262157 156.642893 24.257231 186.526891 C24.198148 544.992962 24.139065 903.459032 24.079981 1261.925103 C24.076141 1285.221112 24.735033 1310.508582 39.291316 1328.697004 C58.536133 1352.743846 93.709470 1354.843154 124.508870 1354.945811 C625.279994 1356.614847 1126.051117 1358.283889 1626.822240 1359.952932 C1662.821422 1360.072915 1704.474735 1357.490245 1725.697484 1328.411896 C1739.887994 1308.968769 1740.436723 1283.085393 1740.424908 1259.014548 C1740.251517 905.731674 1740.078125 552.448801 1739.904734 199.165928 C1739.890945 171.070863 1738.618787 139.783564 1718.697767 119.972310 M1215.065325 40.197340 C1206.879964 47.809691 1203.461192 60.164850 1206.569063 70.902129 C1274.895904 69.456827 1343.253055 69.444523 1411.580412 70.865229 C1412.823999 56.875809 1412.373267 39.553229 1399.949200 33.003958 C1394.886603 30.335240 1388.910363 30.236903 1383.187556 30.199099 C1341.631437 29.924594 1300.075318 29.650085 1258.519200 29.375575 C1243.207311 29.274429 1226.278057 29.769549 1215.065325 40.197339 M943.617893 30.644118 C913.125442 30.634975 882.632992 30.625832 852.140541 30.616689 C833.372383 30.611062 814.576136 30.606584 795.877740 32.223312 C792.635080 32.503683 789.350324 32.843405 786.314177 34.016120 C773.124086 39.110808 770.434864 56.744400 772.776931 70.688899 C838.456303 70.692705 904.135672 70.696508 969.815041 70.700310 C971.469224 56.685789 971.209737 38.942129 958.473739 32.864507 C953.914946 30.689047 948.669154 30.645629 943.617895 30.644114 M372.573355 33.595758 C360.268170 33.567549 346.871129 33.907825 337.350651 41.703905 C329.075264 48.480409 325.536771 60.502505 328.821589 70.681553 C395.448475 70.687567 462.075361 70.693580 528.702247 70.699594 C530.083587 60.957499 530.399913 49.931236 523.924867 42.522439 C516.931633 34.520730 504.919567 33.899154 494.292618 33.874790 C453.719530 33.781782 413.146442 33.688770 372.573355 33.595758 M320.078560 1383.261301 C265.748292 1382.318206 211.401663 1382.317677 157.071377 1383.259716 C173.939708 1407.784036 201.187203 1424.913047 230.599760 1429.482992 C235.283032 1430.210654 240.030670 1430.634675 244.763836 1430.390404 C255.317049 1429.845768 265.450267 1425.998363 274.819822 1421.111815 C292.393531 1411.946512 307.949472 1398.936862 320.078560 1383.261301 M1601.671387 1382.648201 C1551.663380 1382.700971 1501.655373 1382.753741 1451.647365 1382.806512 C1450.141305 1383.763218 1450.759279 1386.074432 1451.599927 1387.648222 C1462.456964 1407.973713 1482.734863 1423.010500 1505.337440 1427.496506 C1532.317438 1432.851312 1560.612031 1423.456222 1583.125312 1407.652855 C1591.893990 1401.497616 1600.579185 1393.305769 1601.671388 1382.648201 z"/><path class="selected"  fill="#ffffff" opacity="1.000000" stroke="none" 
 	d="
M1309.014012 1161.581198 C1300.475027 1164.763860 1292.339492 1156.423607 1287.009666 1149.031952 C1199.680419 1027.919570 1112.351171 906.807190 1025.021923 785.694810 C1022.601996 782.338739 1020.068382 778.609800 1020.340521 774.481217 C1020.641935 769.908743 1024.262825 766.346592 1027.646202 763.256104 C1113.599918 684.743235 1199.553631 606.230364 1285.507344 527.717494 C1290.793183 522.889240 1296.988237 517.733603 1304.119217 518.367044 C1309.628163 518.856398 1314.162629 522.724539 1318.288110 526.408064 C1400.620042 599.919987 1482.951977 673.431902 1565.283912 746.943817 C1575.314680 755.900013 1585.533955 765.087883 1592.077611 776.835662 C1500.677823 902.347609 1409.278037 1027.859555 1317.878250 1153.371500 C1315.471120 1156.677017 1312.845617 1160.153078 1309.014012 1161.581198 M1302.800868 541.857682 C1220.169016 616.952517 1137.537163 692.047352 1054.905311 767.142187 C1052.258845 769.547263 1049.466662 772.201576 1048.775575 775.710218 C1047.888994 780.211384 1050.713543 784.521028 1053.397239 788.241820 C1136.789028 903.859810 1220.180818 1019.477800 1303.572607 1135.095789 C1389.968419 1018.253656 1475.594584 900.842428 1560.443672 782.872294 C1561.715337 781.104231 1563.044635 779.152587 1562.946935 776.976895 C1562.830467 774.383366 1560.750038 772.363290 1558.814199 770.633409 C1473.476422 694.374832 1388.138645 618.116257 1302.800868 541.857682 z"/><path class="selected"  fill="#ffffff" opacity="1.000000" stroke="none" 
 	d="
M1553.457806 344.678690 C1546.266461 353.922148 1532.832781 354.718370 1521.121378 354.718390 C1094.928298 354.719049 668.735220 354.719710 242.542141 354.720372 C226.621147 354.720396 208.211418 353.523105 198.846386 340.647771 C205.214690 329.563201 220.414109 328.282229 233.197766 328.315170 C663.160208 329.423413 1093.122649 330.531644 1523.085089 331.639874 C1534.870041 331.670250 1549.490999 333.581364 1553.457812 344.678680 z"/><path class="selected"  fill="#ffffff" opacity="1.000000" stroke="none" 
 	d="
M483.259733 1151.335168 C479.812946 1156.107437 475.670904 1161.302131 469.817438 1161.928091 C462.509499 1162.709589 456.762082 1156.100967 452.431166 1150.162964 C361.018483 1024.829463 269.605799 899.495964 178.193115 774.162465 C271.182614 689.355001 364.900213 605.345884 459.332100 522.147497 C467.956097 514.549401 481.092657 522.497184 489.585786 530.241288 C573.900731 607.120357 658.215677 683.999424 742.530623 760.878490 C746.330631 764.343370 750.363712 768.231769 751.090149 773.322717 C751.898179 778.985516 748.378304 784.263711 745.029115 788.900859 C657.772647 909.712292 570.516190 1030.523730 483.259733 1151.335168 M207.145793 777.191330 C294.333532 896.519809 381.521270 1015.848287 468.709009 1135.176766 C552.231897 1019.341527 635.754785 903.506288 719.277673 787.671049 C721.817928 784.148049 724.490201 780.094827 723.734391 775.817776 C723.112016 772.295858 720.312386 769.624853 717.665110 767.220030 C634.960057 692.089784 552.255012 616.959533 469.549967 541.829281 C381.694951 619.850448 294.225470 698.305741 207.145793 777.191330 z"/><path class="selected"  fill="#ffffff" opacity="1.000000" stroke="none" 
 	d="
M974.390727 254.626284 C960.309449 282.209406 929.775490 300.546649 898.810517 300.016162 C867.845544 299.485674 837.957620 280.113293 824.829428 252.064023 C811.701237 224.014752 815.972149 188.654655 835.401149 164.537753 C854.830148 140.420851 888.470998 128.721691 918.671795 135.579013 C943.293609 141.169585 964.940887 158.609012 975.643913 181.476751 C986.346939 204.344490 985.870775 232.138582 974.390727 254.626284 M959.944552 203.211293 C960.292457 201.990376 960.004816 200.686747 959.673739 199.461160 C955.683530 184.690213 945.327021 171.949402 932.182878 164.117788 C923.676201 159.049292 913.987801 155.926634 904.105297 155.302686 C900.746153 155.090601 897.369476 155.163629 894.021580 155.510646 C864.592678 158.561015 839.543279 185.462768 838.596605 215.034187 C837.649932 244.605607 860.927386 273.054453 890.100926 277.980869 C919.274466 282.907286 950.602877 263.679510 959.419010 235.436974 C960.240438 232.805528 960.693997 229.467956 958.571805 227.708538 C957.241019 226.605242 955.354480 226.563130 953.625861 226.574431 C936.280364 226.687823 918.934867 226.801216 901.589369 226.914609 C897.732395 226.939823 893.415983 226.782733 890.730487 224.014159 C886.821844 219.984598 889.164271 212.689343 893.863825 209.618668 C898.563379 206.547993 904.546958 206.493695 910.160558 206.542207 C923.992481 206.661736 937.824405 206.781267 951.656328 206.900799 C954.919549 206.928999 959.050247 206.349707 959.944557 203.211298 z"/><path class="selected"  fill="#ffffff" opacity="1.000000" stroke="none" 
 	d="
M885.218356 1287.221060 C879.167763 1287.355874 873.851239 1283.485684 869.054515 1279.795251 C794.023472 1222.068959 718.992429 1164.342667 643.961386 1106.616375 C640.999818 1104.337847 637.877958 1101.837368 636.749146 1098.275295 C634.957014 1092.620053 638.801203 1086.869742 642.432396 1082.178479 C718.884708 983.407159 795.562444 884.810325 872.464806 786.389005 C876.260492 781.531203 880.252337 776.512107 885.796652 773.816548 C891.340967 771.120988 898.910565 771.519559 902.684527 776.394256 C982.807020 879.885769 1062.929514 983.377279 1143.052007 1086.868790 C1148.304988 1093.653887 1153.814968 1102.536839 1149.935044 1110.190435 C1148.183034 1113.646446 1144.834166 1115.957492 1141.619378 1118.120513 C1060.765445 1172.521779 979.911515 1226.923048 899.057586 1281.324318 C894.836618 1284.164328 890.304551 1287.107734 885.218356 1287.221060 M890.793275 1260.762018 C966.001708 1210.522122 1041.210141 1160.282226 1116.418575 1110.042331 C1119.739644 1107.823827 1123.383073 1105.095914 1123.799818 1101.123814 C1124.162522 1097.666766 1121.917676 1094.536651 1119.789123 1091.788560 C1044.719363 994.869004 969.649603 897.949448 894.579843 801.029891 C892.444690 798.273281 888.182490 801.118866 886.042798 803.871954 C813.432430 897.298098 740.822060 990.724236 668.211689 1084.150375 C665.320258 1087.870715 662.623719 1093.776768 666.357690 1096.650575 C735.619387 1149.957009 804.881084 1203.263443 874.142782 1256.569877 C879.005077 1260.312084 885.691280 1264.170196 890.793275 1260.762018 z"/><path class="selected"  fill="#ffffff" opacity="1.000000" stroke="none" 
 	d="
M599.698306 473.876821 C596.529060 479.520104 589.816877 482.954951 583.385931 482.224406 C551.824792 478.639113 520.016922 476.974762 488.271015 478.050501 C436.323858 479.810778 384.632063 488.945651 335.227888 505.095982 C325.785427 508.182742 316.390573 511.539439 307.578648 516.126174 C303.523056 518.237169 299.388446 520.665407 294.818144 520.793729 C290.247842 520.922050 285.194331 517.694113 285.235195 513.122193 C286.531487 503.725530 296.602399 498.555864 305.461745 495.166234 C356.213063 475.748531 409.599025 463.230356 463.691994 458.063710 C486.880305 455.848897 510.217367 454.978644 533.486242 456.056880 C548.999700 456.775744 564.469642 458.359897 579.826570 460.672663 C588.311601 461.950515 598.690083 465.355541 599.698311 473.876816 z"/><path class="selected"  fill="#ffffff" opacity="1.000000" stroke="none" 
 	d="
M481.179387 298.743350 C453.303691 298.248652 426.160891 282.578515 411.793611 258.685410 C397.426332 234.792306 396.312290 203.470689 408.945759 178.617226 C421.579229 153.763763 447.540143 136.204842 475.310253 133.730943 C480.176199 133.297454 485.091982 133.297185 489.934408 133.942360 C497.015605 134.885819 503.869902 137.202395 510.308531 140.297151 C540.674807 154.892839 561.047452 188.174184 560.233644 221.856265 C559.759951 241.461610 552.375947 261.044558 538.844671 275.239573 C524.106041 290.701164 502.536923 299.122372 481.179388 298.743349 M483.978914 276.463860 C508.132590 275.631895 533.231758 259.024952 536.018074 235.018105 C536.435514 231.421453 535.199694 226.522316 531.579015 226.551455 C515.731805 226.679004 499.884595 226.806551 484.037386 226.934098 C474.971487 227.007065 463.682827 225.625745 460.619869 217.092625 C463.729724 207.502019 476.453756 205.989994 486.533047 206.232505 C499.391570 206.541888 512.250092 206.851270 525.108614 207.160652 C529.975619 207.277755 536.826317 205.148938 535.682522 200.416795 C531.351918 182.500174 516.894677 167.754121 499.519113 161.601956 C482.143549 155.449791 462.354442 157.521304 445.851237 165.731272 C440.976537 168.156324 436.279045 171.157762 432.776692 175.326347 C424.667176 184.978492 424.391131 198.768536 424.517263 211.374576 C424.527978 212.445488 424.538693 213.516399 424.549409 214.587311 C424.612675 220.910340 424.679968 227.274938 425.885389 233.482325 C428.535993 247.131769 436.897994 259.578547 448.532516 267.192411 C458.914244 273.986421 471.579058 276.890969 483.978914 276.463860 z"/><path class="selected"  fill="#ffffff" opacity="1.000000" stroke="none" 
 	d="
M1172.863911 480.608407 C1172.275312 472.924033 1180.908451 468.173953 1188.221649 465.742248 C1233.213611 450.782008 1281.689351 446.412166 1328.631426 453.085019 C1373.948583 459.526889 1417.163718 475.954400 1459.827858 492.534921 C1468.370075 495.854674 1477.999613 500.359678 1480.294711 509.232264 C1478.043791 514.565854 1471.746720 517.241984 1465.960553 517.057295 C1460.174387 516.872607 1454.735168 514.425251 1449.437151 512.091832 C1427.013656 502.215782 1404.020376 493.633608 1380.609773 486.402212 C1364.758072 481.505716 1348.691626 477.222970 1332.345910 474.382255 C1283.151876 465.832844 1231.693545 470.698482 1184.973818 488.317010 C1179.783784 490.274229 1173.287539 486.139022 1172.863911 480.608407 z"/><path class="selected"  fill="#ffffff" opacity="1.000000" stroke="none" 
 	d="
M212.520901 166.528197 C230.486685 171.006941 244.759003 187.211377 247.523322 205.519492 C250.287641 223.827608 241.713447 243.232636 226.662378 254.016600 C211.611310 264.800565 190.845545 266.764242 173.788306 259.561525 C167.238981 256.795961 161.101635 252.666978 156.997624 246.861885 C153.312610 241.649458 151.442238 235.355770 150.413120 229.055800 C148.096693 214.875289 149.943171 199.737510 157.282675 187.385005 C164.622180 175.032500 177.823420 165.881090 192.170665 165.100531 C198.986432 164.729720 205.897756 164.877095 212.520900 166.528199 M202.050070 240.042863 C211.135079 236.865773 218.140565 228.195713 218.986743 218.608467 C219.832921 209.021221 214.265775 199.097798 205.495063 195.134728 C196.724352 191.171659 185.379035 193.701759 179.382234 201.229686 C175.135806 206.560326 173.700180 213.789591 174.611938 220.543597 C175.309978 225.714453 177.311497 230.704156 180.380351 234.924008 C182.028430 237.190212 184.595321 239.434527 187.302119 238.709901 C189.474195 238.128418 191.539148 239.763425 193.657885 240.516408 C196.350104 241.473205 199.353046 240.986032 202.050070 240.042864 z"/><path class="selected"  fill="#ffffff" opacity="1.000000" stroke="none" 
 	d="
M1545.666827 188.488639 C1551.886968 194.905646 1553.677470 204.429905 1553.708925 213.366747 C1553.725741 218.144830 1553.321376 222.942320 1552.194423 227.585629 C1548.240827 243.875378 1534.737635 257.512901 1518.443219 261.447216 C1502.148803 265.381532 1483.815416 259.335577 1473.199979 246.362554 C1463.699109 234.751633 1460.712542 218.137751 1465.574832 203.944861 C1470.851016 188.543825 1485.089201 176.731854 1501.108372 173.830789 C1517.127543 170.929723 1534.336012 176.799213 1545.666824 188.488641 M1507.852022 236.389046 C1517.234487 235.344198 1525.302867 226.774701 1525.406710 217.334809 C1525.510553 207.894916 1517.299331 199.017766 1507.862723 198.748002 C1502.446090 198.593154 1496.461594 199.508270 1492.920245 203.609822 C1491.078268 205.743176 1490.130798 208.489660 1489.324937 211.190524 C1488.372534 214.382524 1487.552612 217.687651 1487.806092 221.009049 C1488.521446 230.382525 1498.509042 237.429495 1507.852021 236.389044 z"/><path class="selected"  fill="#ffffff" opacity="1.000000" stroke="none" 
 	d="
M1363.993360 255.505021 C1351.190855 256.399864 1338.003297 251.294890 1329.472359 241.706981 C1320.941420 232.119073 1317.413211 218.188273 1320.781126 205.804331 C1324.149042 193.420388 1334.476286 183.076271 1346.962106 180.108243 C1351.841611 178.948326 1356.926756 178.861509 1361.921154 179.320826 C1369.717885 180.037862 1377.582737 182.172217 1383.848416 186.867365 C1393.618799 194.188742 1398.251114 207.265936 1396.670580 219.372333 C1395.090045 231.478730 1387.837510 242.442165 1378.168802 249.897299 C1375.815712 251.711669 1373.286240 253.356702 1370.474465 254.317367 C1368.390171 255.029482 1366.190586 255.351443 1363.993360 255.505021 M1357.761584 231.053053 C1362.361239 231.165083 1367.526194 230.339450 1370.281587 226.654727 C1372.372429 223.858692 1372.540390 220.108227 1372.488520 216.617276 C1372.438351 213.240824 1372.185500 209.644144 1370.177134 206.929479 C1366.839720 202.418365 1360.291091 202.201017 1354.683511 202.409642 C1352.314709 202.497770 1349.802657 202.631206 1347.849516 203.974421 C1344.623007 206.193357 1344.179736 210.699494 1344.044315 214.613021 C1343.889537 219.085963 1343.912046 224.065172 1346.948281 227.353400 C1349.605363 230.231007 1353.846023 230.957685 1357.761583 231.053053 z"/><path class="selected"  fill="#ffffff" opacity="1.000000" stroke="none" 
 	d="
M1573.260525 1323.985159 C1568.096685 1329.798382 1559.003119 1329.549153 1552.107154 1333.141434 C1547.132827 1335.732687 1541.103940 1333.921628 1535.808920 1332.071958 C1529.347073 1329.814689 1522.687096 1327.440904 1517.663558 1322.791734 C1508.028747 1313.874935 1506.891740 1299.093003 1508.246140 1286.035267 C1509.227370 1276.575256 1514.518747 1267.647763 1522.346381 1262.245655 C1527.159447 1258.924000 1532.787175 1256.931803 1538.509578 1255.726356 C1542.425966 1254.901353 1546.416461 1254.428482 1550.417200 1254.315311 C1555.418700 1254.173832 1561.327796 1255.153086 1563.575718 1259.623194 C1564.723603 1261.905820 1567.904047 1261.933478 1570.215811 1263.021487 C1572.094215 1263.905537 1573.466082 1265.581551 1574.671898 1267.271508 C1582.731429 1278.566977 1586.187953 1293.049244 1584.098407 1306.767023 C1583.826620 1308.551295 1583.348490 1310.506701 1581.853950 1311.518554 C1577.638085 1314.372828 1576.641668 1320.178814 1573.260523 1323.985157 M1560.529203 1284.667442 C1556.610201 1280.311206 1550.623768 1277.894360 1544.780664 1278.334263 C1538.937561 1278.774166 1533.371434 1282.069569 1530.197198 1286.994973 C1527.105936 1291.791628 1527.594671 1298.427603 1530.815556 1303.138198 C1534.036441 1307.848793 1539.630123 1310.653706 1545.314596 1311.154272 C1548.700978 1311.452472 1552.273437 1310.947775 1555.089204 1309.043056 C1558.259604 1306.898451 1560.075956 1303.303407 1561.758965 1299.865639 C1562.832965 1297.671850 1563.928672 1295.394771 1564.013072 1292.953652 C1564.119212 1289.883748 1562.583623 1286.951067 1560.529205 1284.667442 z"/><path class="selected"  fill="#ffffff" opacity="1.000000" stroke="none" 
 	d="
M204.081754 1258.479919 C206.443912 1258.419618 207.967751 1256.084975 209.644149 1254.419707 C214.771184 1249.326694 223.084052 1249.845133 230.199410 1251.108836 C234.247768 1251.827833 238.286564 1252.677756 242.171635 1254.024005 C246.789738 1255.624264 251.231959 1257.972531 254.659964 1261.456276 C257.668572 1264.513803 259.796810 1268.343149 261.380395 1272.329683 C265.906077 1283.722685 266.089143 1296.780443 261.884632 1308.295840 C260.413918 1312.323858 258.357746 1316.254608 255.149089 1319.099331 C251.883060 1321.994919 247.678681 1323.556338 243.579663 1325.056147 C239.702603 1326.474744 235.825542 1327.893340 231.948482 1329.311936 C228.677285 1330.508850 224.964664 1331.691882 221.831225 1330.170406 C219.590041 1329.082174 217.816297 1326.676217 215.326118 1326.754700 C209.687176 1326.932424 204.287985 1324.097137 200.192258 1320.217155 C196.096531 1316.337172 193.102969 1311.463978 190.158170 1306.651764 C188.273821 1303.572474 187.774619 1299.847093 187.681385 1296.238201 C187.367626 1284.093256 191.309508 1271.879766 198.664010 1262.209739 C200.038830 1260.402064 201.811410 1258.537875 204.081753 1258.479918 M225.795665 1307.217049 C231.791382 1307.229363 237.876262 1304.504137 241.347125 1299.615182 C244.817988 1294.726226 245.285316 1287.700389 241.966739 1282.706810 C238.431279 1277.386876 232.050629 1274.086297 225.665828 1274.274682 C219.281026 1274.463067 213.106076 1278.134102 209.890423 1283.653229 C209.230038 1284.786668 208.682888 1286.006115 208.476604 1287.301584 C208.001301 1290.286495 209.363036 1293.224093 210.688478 1295.940490 C212.193900 1299.025743 213.785376 1302.219925 216.484648 1304.341011 C219.086616 1306.385637 222.486483 1307.210253 225.795664 1307.217050 z"/><path class="selected"  fill="#ffffff" opacity="1.000000" stroke="none" 
 	d="
M67.920994 1218.703508 C67.353766 1216.702550 65.754085 1215.168390 64.871350 1213.285213 C62.862895 1209.000485 64.880245 1204.002164 66.883158 1199.714844 C69.563837 1193.976737 72.328989 1188.115378 76.787724 1183.617425 C84.272349 1176.066966 95.632039 1173.439705 106.233068 1174.244205 C112.467126 1174.717300 118.788624 1176.336212 123.784727 1180.094702 C129.256770 1184.211233 132.634675 1190.460094 135.844950 1196.508500 C137.588530 1199.793539 139.357611 1203.152143 139.964750 1206.821329 C140.571890 1210.490515 139.823611 1214.591509 137.135248 1217.161383 C135.302172 1218.913663 136.658544 1222.021681 136.050491 1224.483574 C135.021243 1228.650803 128.575736 1230.271275 128.660996 1234.562882 C128.703284 1236.691480 126.558370 1238.116388 124.678624 1239.116024 C116.266979 1243.589271 107.084641 1248.204195 97.673150 1246.724492 C92.929421 1245.978668 88.576260 1243.724964 84.318907 1241.503667 C80.410402 1239.464383 76.129207 1236.983741 74.938254 1232.739130 C74.040789 1229.540520 69.925515 1228.227941 68.696993 1225.141310 C67.893883 1223.123519 68.513296 1220.792921 67.920993 1218.703508 M115.685519 1206.285107 C114.679469 1203.579691 112.770578 1201.307472 110.721487 1199.274583 C108.857335 1197.425171 106.765142 1195.677554 104.247082 1194.932728 C101.729022 1194.187902 98.696588 1194.665065 97.019733 1196.685844 C95.566269 1198.437412 92.862226 1198.477659 91.039682 1199.841068 C90.060377 1200.573660 89.393203 1201.650329 88.885283 1202.762871 C85.322632 1210.566468 90.029726 1220.990858 98.239433 1223.478691 C103.082708 1224.946376 108.700498 1223.734853 112.355088 1220.234086 C116.009678 1216.733318 117.449432 1211.028525 115.685519 1206.285107 z"/><path class="selected"  fill="#ffffff" opacity="1.000000" stroke="none" 
 	d="
M1310.538088 850.512536 C1307.242831 855.288566 1299.165924 853.736864 1295.727084 849.063155 C1292.288244 844.389446 1292.151277 838.145522 1292.151811 832.343007 C1292.156430 782.162484 1292.161050 731.981961 1292.165670 681.801438 C1292.166499 672.797682 1293.924249 661.371294 1302.642546 659.122094 C1310.875346 661.872635 1312.323441 672.710449 1312.315380 681.390556 C1312.265493 735.106025 1312.215607 788.821493 1312.165720 842.536961 C1312.163159 845.294592 1312.104150 848.242738 1310.538087 850.512536 z"/><path class="selected"  fill="#ffffff" opacity="1.000000" stroke="none" 
 	d="
M1636.672503 1229.121894 C1635.882579 1227.096914 1636.550792 1224.763562 1635.955830 1222.672977 C1635.383033 1220.660273 1633.728191 1219.147389 1632.821198 1217.261537 C1630.800973 1213.061017 1632.820156 1208.125031 1634.825096 1203.917195 C1638.243922 1196.741990 1641.891049 1189.280843 1648.242599 1184.502794 C1656.812310 1178.056100 1668.468666 1177.829830 1679.144842 1178.839320 C1686.184114 1179.504921 1692.494549 1183.807522 1696.976699 1189.276041 C1701.458850 1194.744560 1704.344304 1201.325419 1706.934794 1207.904457 C1708.000960 1210.612187 1709.033520 1213.631377 1708.025359 1216.361234 C1707.090241 1218.893305 1704.533605 1220.701786 1704.085067 1223.363485 C1703.807623 1225.009882 1704.402437 1226.721339 1704.059770 1228.355407 C1703.155403 1232.668044 1696.395519 1234.378601 1696.626981 1238.778958 C1696.712728 1240.409112 1695.097002 1241.549506 1693.676379 1242.353613 C1685.036036 1247.244247 1675.516652 1252.271254 1665.709041 1250.727043 C1660.943621 1249.976726 1656.569822 1247.714624 1652.291890 1245.484937 C1648.383961 1243.448097 1644.099553 1240.963460 1642.930288 1236.714525 C1642.047783 1233.507632 1637.881271 1232.220580 1636.672504 1229.121893 M1656.616519 1210.878254 C1654.901095 1216.520900 1657.461243 1223.172124 1662.517280 1226.208342 C1667.093451 1228.956394 1673.211893 1228.640495 1677.722228 1225.785674 C1684.060703 1221.773730 1686.770990 1212.893789 1683.753122 1206.026153 C1683.342815 1205.092433 1682.747222 1204.118334 1681.769524 1203.828005 C1676.861338 1202.370528 1672.573035 1197.235413 1667.695165 1198.791336 C1666.496709 1199.173615 1665.462606 1199.939680 1664.479597 1200.724617 C1661.082107 1203.437531 1657.881129 1206.718494 1656.616519 1210.878254 z"/><path class="selected"  fill="#ffffff" opacity="1.000000" stroke="none" 
 	d="
M470.162279 855.484551 C460.940274 850.378762 459.832155 837.797610 459.854278 827.256549 C459.952943 780.256855 460.051602 733.257161 460.150262 686.257468 C460.171984 675.909548 461.327401 663.547261 470.427435 658.620872 C478.809941 661.524517 480.260694 672.567433 480.260773 681.438598 C480.261215 731.335101 480.261656 781.231605 480.262098 831.128108 C480.262181 840.497775 478.875368 852.038870 470.162279 855.484551 z"/><path class="selected"  fill="#ffffff" opacity="1.000000" stroke="none" 
 	d="
M501.392577 814.429614 C500.273574 812.267064 500.237528 809.726771 500.226142 807.291887 C500.187045 798.931000 500.147948 790.570113 500.108851 782.209226 C500.078415 775.700481 504.478184 769.401051 510.599576 767.188984 C515.086983 768.899738 518.136929 773.267309 519.484916 777.876693 C520.832903 782.486078 520.734361 787.377098 520.624667 792.178292 C520.526370 796.480631 520.296225 801.149725 517.524812 804.441996 C515.666757 806.649251 516.449524 809.980161 515.740869 812.776972 C514.976929 815.791993 512.226756 818.197557 509.136886 818.553450 C506.047015 818.909342 502.821964 817.192006 501.392577 814.429615 z"/><path class="selected"  fill="#ffffff" opacity="1.000000" stroke="none" 
 	d="
M1256.680654 812.746147 C1255.790651 809.764331 1256.566697 806.175776 1254.584632 803.776870 C1252.343842 801.064839 1252.091843 797.276153 1251.940271 793.761431 C1251.624716 786.444225 1251.438906 778.609455 1255.349701 772.416979 C1257.479953 769.043869 1262.087001 766.319405 1265.319720 768.657218 C1271.079934 772.822852 1272.796824 780.676792 1272.691967 787.784644 C1272.587111 794.892496 1271.115977 802.054097 1272.337883 809.056918 C1273.035938 813.057507 1270.201529 817.352543 1266.248741 818.283917 C1262.295954 819.215291 1257.842147 816.637538 1256.680656 812.746147 z"/></svg>
