<?xml version="1.0" encoding="utf-8"?><!DOCTYPE svg PUBLIC "-//W3C//DTD SVG 1.1//EN" "http://www.w3.org/Graphics/SVG/1.1/DTD/svg11.dtd"><svg version="1.1" id="Contours" xmlns="http://www.w3.org/2000/svg" xmlns:xlink="http://www.w3.org/1999/xlink" x="0px" y="0px" width="1768.257568px" height="1768.257568px" viewBox="0.000001 -0.000004 1768.257568 1835.929688" enable-background="new 0 0 1768.257568 1768.257568" xml:space="preserve" stroke="black" fill="none" stroke-linecap='round' stroke-linejoin='round'><path class="selected"  fill="#000000" opacity="1.000000" stroke="none" 
 	d="
M1004.034797 453.073339 C1064.792095 452.998068 1125.549393 452.922797 1186.306691 452.847527 C1172.725347 434.754464 1184.033601 406.855962 1203.348733 395.077274 C1222.663865 383.298585 1246.627278 383.129999 1269.249796 383.313098 C1298.881963 383.552930 1328.514131 383.792762 1358.146299 384.032593 C1380.832063 384.216204 1404.698848 384.708849 1424.289009 396.150142 C1443.879169 407.591436 1456.682909 434.006193 1445.424070 453.701779 C1522.979842 454.162146 1600.535616 454.622513 1678.091390 455.082880 C1707.375655 455.256709 1741.512575 457.898740 1757.778858 482.250463 C1767.589294 496.937351 1767.930364 515.765083 1767.935548 533.427169 C1768.042890 899.122323 1768.150233 1264.817476 1768.257576 1630.512629 C1768.270444 1674.352710 1763.436142 1726.805060 1724.827465 1747.573374 C1692.089889 1765.183515 1643.013236 1754.135403 1622.960539 1785.436445 C1601.210391 1819.387104 1559.578141 1839.488182 1519.465090 1835.406601 C1479.352039 1831.325020 1442.621759 1803.250403 1428.155666 1765.614671 C1082.444057 1765.441758 736.732449 1765.268846 391.020840 1765.095934 C371.498713 1765.086170 348.724764 1766.706275 337.794929 1782.881943 C295.016457 1846.192337 185.867496 1845.787466 143.559864 1782.161475 C122.378572 1750.307159 70.702061 1764.729595 38.234985 1744.500077 C7.242976 1725.189643 3.860259 1682.196702 3.869133 1645.680986 C3.959907 1272.147345 4.050681 898.613703 4.141455 525.080062 C4.144982 510.563696 4.345676 495.276434 11.629145 482.719523 C25.984721 457.970096 59.826083 454.817159 88.436217 454.539789 C159.874357 453.847221 231.312495 453.154647 302.750633 452.462073 C292.402627 433.975850 304.556104 409.416984 322.930134 398.871051 C341.304164 388.325117 363.592479 388.023227 384.777880 388.001358 C417.305187 387.967782 449.832494 387.934204 482.359801 387.900627 C503.723291 387.878574 526.234862 388.150444 544.694315 398.904408 C563.153769 409.658373 575.046379 434.807003 564.020044 453.105066 C623.688290 453.116182 683.356540 453.127296 743.024790 453.138409 C732.168603 435.877641 743.299597 411.656894 760.873532 401.315342 C778.447467 390.973790 799.953989 390.717765 820.344915 390.749501 C856.374552 390.805587 892.404187 390.861668 928.433822 390.917748 C948.606948 390.949149 969.903973 391.277217 987.203519 401.654198 C1004.503065 412.031178 1015.186929 436.263043 1004.034799 453.073338 M1728.886159 1703.841946 C1743.756201 1682.042940 1744.271225 1653.853783 1744.258902 1627.466008 C1744.095811 1278.159240 1743.932717 928.852477 1743.769622 579.545714 C1743.753781 545.618673 1739.997709 505.046046 1710.132827 488.948432 C1696.409603 481.551457 1680.083265 481.375516 1664.493468 481.376211 C1139.664063 481.399577 614.834658 481.422945 90.005254 481.446312 C69.725188 481.447215 45.999530 483.201128 34.848626 500.140385 C28.281824 510.115969 28.062119 522.830907 28.062050 534.773903 C28.059912 907.669393 28.057774 1280.564884 28.055636 1653.460375 C28.055524 1673.046966 28.477949 1694.036311 39.770476 1710.039854 C57.280727 1734.855031 92.486715 1737.337963 122.857604 1737.443051 C619.098254 1739.160063 1115.338901 1740.877082 1611.579548 1742.594102 C1654.550321 1742.742784 1704.671056 1739.340393 1728.886169 1703.841974 M512.192275 413.391186 C465.735865 413.391686 419.279456 413.392185 372.823046 413.392685 C363.334724 413.392787 353.846324 413.392890 344.358195 413.453545 C336.624387 413.502986 332.029686 422.496528 331.824746 430.227778 C331.619805 437.959028 333.919161 445.851317 331.936217 453.326754 C400.846282 453.369965 469.756347 453.413176 538.666412 453.456386 C540.872633 439.468356 540.152341 421.683952 527.348905 415.633792 C522.691071 413.432761 517.343974 413.391130 512.192275 413.391186 M1419.184953 453.320433 C1425.841156 438.807992 1416.924680 419.378386 1401.581655 414.961651 C1396.713835 413.560371 1391.573735 413.512803 1386.508344 413.480069 C1338.865881 413.172198 1291.220836 413.264034 1243.579914 413.755563 C1234.730158 413.846865 1224.918845 414.334117 1218.639158 420.570466 C1212.906857 426.263216 1211.891657 435.031836 1211.198349 443.080809 C1210.914368 446.377645 1210.900039 450.303726 1213.582159 452.241767 C1215.211794 453.419305 1217.371697 453.463678 1219.382245 453.462251 C1285.983148 453.414978 1352.584051 453.367705 1419.184953 453.320433 M809.085527 413.283946 C802.676601 413.278324 796.125999 413.295372 790.071593 415.397405 C775.414360 420.486256 767.060833 438.918956 772.896712 453.295096 C841.778025 453.350666 910.659335 453.406232 979.540644 453.461798 C980.655425 441.223525 980.930276 426.850038 971.402026 419.089205 C964.752028 413.672728 955.426951 413.412310 946.850201 413.404786 C900.928642 413.364508 855.007084 413.324227 809.085527 413.283946 M170.171837 1765.321821 C167.162089 1765.317536 163.861147 1765.416921 161.598286 1767.401376 C178.730332 1791.511673 206.107067 1808.080754 235.413223 1812.076019 C238.860854 1812.546031 242.335412 1812.850313 245.814933 1812.851491 C261.616178 1812.856839 276.920718 1806.564426 289.947374 1797.620958 C302.974029 1788.677489 313.996177 1777.159514 324.706424 1765.541856 C273.194895 1765.468510 221.683366 1765.395166 170.171837 1765.321821 M1530.804973 1812.312464 C1562.543197 1809.227336 1592.594719 1791.712218 1610.922023 1765.617338 C1565.393025 1765.489054 1519.864026 1765.360770 1474.335027 1765.232486 C1467.857343 1765.214235 1460.331975 1765.707415 1456.601306 1771.002962 C1464.399159 1785.466079 1476.675865 1797.473701 1491.308212 1804.949156 C1499.403192 1809.084765 1508.246030 1811.864228 1517.309271 1812.563960 C1521.800964 1812.910744 1526.321047 1812.748326 1530.804973 1812.312464 z"/><path class="selected"  fill="#000000" opacity="1.000000" stroke="none" 
 	d="
M870.959610 206.764685 C898.821279 139.741446 926.682947 72.718207 954.544616 5.694968 C956.149935 1.833256 961.285287 1.251530 965.467353 1.265342 C977.730896 1.305847 989.994438 1.346350 1002.257980 1.386854 C1003.969880 1.392508 1005.901076 1.491990 1007.036588 2.773100 C1008.014294 3.876172 1008.066077 5.494120 1008.066082 6.968120 C1008.066373 93.889785 1008.066666 180.811449 1008.066958 267.733114 C1008.066963 269.205557 1008.021863 270.809876 1007.082128 271.943449 C1005.984051 273.268024 1004.065840 273.485829 1002.347352 273.569916 C993.560357 273.999865 984.727508 273.486414 976.049515 272.041226 C976.054294 198.388576 976.059073 124.735926 976.063852 51.083275 C976.064017 48.548001 975.123682 45.089962 972.601125 45.343579 C970.963593 45.508216 970.049359 47.266010 969.430030 48.790821 C941.835499 116.729642 914.240967 184.668462 886.646436 252.607283 C884.054561 258.988579 881.269003 265.640797 875.964711 270.034343 C870.660419 274.427889 862.019056 275.618512 857.161058 270.736031 C855.221343 268.786539 854.131969 266.170671 853.088928 263.626053 C823.301392 190.956002 793.513855 118.285951 763.726319 45.615900 C760.567399 46.668933 760.009641 50.826385 760.011116 54.156197 C760.042965 125.884732 760.074811 197.613265 760.106656 269.341799 C760.108180 272.774205 755.470753 273.800215 752.039030 273.731711 C745.640794 273.603976 739.242560 273.476248 732.844326 273.348520 C731.374898 273.319185 729.714245 273.203047 728.770025 272.076758 C727.996701 271.154317 727.960165 269.840848 727.961423 268.637135 C728.054524 179.576305 728.147625 90.515475 728.240726 1.454645 C743.122867 1.411918 758.005008 1.369191 772.887149 1.326464 C775.535917 1.318859 778.786622 1.686832 779.807397 4.131019 C807.787605 71.128103 835.767813 138.125187 863.748021 205.122270 C864.756890 207.537951 867.110243 210.455137 869.349271 209.098641 C870.172200 208.600076 870.590274 207.653150 870.959610 206.764686 z"/><path class="selected"  fill="#000000" opacity="1.000000" stroke="none" 
 	d="
M1164.115376 269.927034 C1164.118286 272.737901 1160.342234 273.610626 1157.531417 273.593668 C1149.533428 273.545401 1141.535441 273.497139 1133.537454 273.448878 C1132.148558 273.440497 1130.640093 273.391290 1129.563985 272.513172 C1128.157895 271.365783 1128.043519 269.295952 1128.043615 267.481127 C1128.048288 180.439078 1128.052958 93.397029 1128.057629 6.354980 C1128.057710 4.843754 1128.183439 3.081659 1129.434573 2.234035 C1130.185888 1.725032 1131.152505 1.698584 1132.059962 1.689702 C1157.709193 1.438667 1183.358425 1.187630 1209.007656 0.936594 C1227.109911 0.759423 1245.700894 0.664481 1262.638201 7.055933 C1290.255643 17.477632 1309.999466 45.991281 1310.037884 75.509638 C1310.076301 105.027995 1290.406764 133.592939 1262.816543 144.086490 C1233.741797 155.144661 1201.185483 146.831568 1170.211092 149.697067 C1168.700201 149.836844 1167.097049 150.041752 1165.925643 151.006186 C1164.138234 152.477787 1163.996521 155.116314 1163.998917 157.431575 C1164.037738 194.930062 1164.076557 232.428548 1164.115376 269.927034 M1220.289346 29.815207 C1211.173623 28.962729 1201.998056 29.087643 1192.843422 29.213336 C1185.568183 29.313225 1178.292944 29.413114 1171.017706 29.513003 C1169.379803 29.535491 1167.627196 29.593901 1166.296222 30.548752 C1164.221045 32.037500 1164.026018 34.995880 1164.027004 37.549843 C1164.037064 63.580976 1164.047123 89.612109 1164.057182 115.643241 C1164.057895 117.488424 1164.203357 119.629263 1165.710624 120.693616 C1166.676531 121.375688 1167.943046 121.404076 1169.125496 121.407007 C1182.989578 121.441372 1196.853661 121.475737 1210.717743 121.510102 C1221.567673 121.536996 1232.556847 121.547288 1243.064282 118.842564 C1252.138569 116.506747 1261.015259 111.860417 1266.284251 104.112098 C1272.495317 94.978416 1272.774512 83.180890 1272.565722 72.137436 C1272.446055 65.808000 1272.194781 59.286150 1269.573902 53.523595 C1265.176676 43.855367 1254.980825 38.183771 1244.898846 34.842526 C1236.934261 32.203001 1228.643468 30.596461 1220.289346 29.815207 z"/><path class="selected"  fill="#000000" opacity="1.000000" stroke="none" 
 	d="
M0.124261 272.521708 C-0.097055 182.198643 -0.022738 91.874853 0.347210 1.552273 C12.255326 0.717058 24.249929 1.120164 36.075102 2.752991 C36.063062 80.221065 36.051023 157.689138 36.038984 235.157212 C36.038746 236.686841 36.081073 238.345405 37.030808 239.544476 C38.302989 241.150638 40.645768 241.292598 42.694707 241.299558 C81.769986 241.432223 120.845263 241.564894 159.920540 241.697566 C160.781098 252.225303 160.367393 262.856608 158.691328 273.285636 C105.836054 273.873168 52.971420 273.618482 0.124261 272.521708 z"/><path class="selected"  fill="#000000" opacity="1.000000" stroke="none" 
 	d="
M1408.347338 1.552222 C1420.255618 0.717186 1432.250348 1.120235 1444.075712 2.752775 C1444.063059 80.112706 1444.050406 157.472637 1444.037753 234.832568 C1444.037436 236.771391 1444.140846 238.956498 1445.581313 240.254222 C1446.843500 241.391330 1448.712028 241.451913 1450.410889 241.450795 C1488.606073 241.425645 1526.801257 241.400495 1564.996440 241.375346 C1567.424113 241.373748 1568.183086 244.630756 1568.175544 247.058417 C1568.153322 254.207308 1568.131104 261.356196 1568.108887 268.505085 C1568.104664 269.864021 1568.027767 271.394475 1567.017289 272.303133 C1566.149483 273.083493 1564.871422 273.142423 1563.704477 273.159473 C1511.846530 273.917105 1459.974289 273.696172 1408.124678 272.496827 C1407.902821 182.182039 1407.977042 91.866524 1408.347338 1.552222 z"/><path class="selected"  fill="#000000" opacity="1.000000" stroke="none" 
 	d="
M564.679100 205.345487 C526.534545 205.357719 488.389990 205.369951 450.245436 205.382183 C446.660748 205.383332 442.704303 205.523166 440.080487 207.965620 C438.511476 209.426183 437.682713 211.493627 436.901340 213.489747 C429.859815 231.478288 422.818287 249.466829 415.776760 267.455370 C413.593471 273.032879 406.207879 273.962747 400.219403 273.846501 C391.812209 273.683301 383.410898 273.217258 375.037236 272.449577 C413.314049 185.725834 451.590861 99.002092 489.867673 12.278350 C494.982002 0.690819 511.636196 -3.799503 521.882370 3.646514 C528.069647 8.142881 531.345289 15.523903 534.350859 22.557128 C569.259261 104.245016 604.167663 185.932904 639.076065 267.620792 C639.366327 268.300022 639.662526 269.013197 639.603075 269.749452 C639.441267 271.753318 636.994396 272.576090 635.013592 272.919715 C628.036350 274.130096 620.888430 275.341541 613.916278 274.102182 C606.944126 272.862823 600.064808 268.659845 597.624546 262.012136 C592.103794 246.972628 586.583042 231.933120 581.062291 216.893612 C579.760187 213.346449 578.282799 209.567924 575.156005 207.446369 C572.161510 205.414585 568.297821 205.344324 564.679100 205.345483 M463.939318 173.397079 C493.400191 173.421454 522.861063 173.445830 552.321935 173.470205 C555.380297 173.472735 559.283831 172.848737 559.979427 169.870528 C560.299578 168.499778 559.756619 167.091012 559.223664 165.788167 C543.356037 126.998648 527.488410 88.209129 511.620783 49.419610 C510.508580 46.700753 506.537060 43.829545 505.455489 46.560733 C489.419134 87.055939 472.875928 127.350426 455.831056 167.431575 C454.263500 171.117694 459.933736 173.393765 463.939318 173.397080 z"/><path class="selected"  fill="#000000" opacity="1.000000" stroke="none" 
 	d="
M1660.060477 272.070527 C1660.054051 183.962225 1660.047624 95.853923 1660.041198 7.745621 C1660.041043 5.620121 1660.227013 3.130633 1662.007532 1.969814 C1663.052451 1.288581 1664.380717 1.272308 1665.628070 1.278639 C1674.183700 1.322079 1682.739329 1.365517 1691.294958 1.408954 C1692.735663 1.416269 1694.364248 1.505299 1695.308422 2.593516 C1696.102221 3.508418 1696.141947 4.835100 1696.140873 6.046365 C1696.061890 95.120617 1695.982907 184.194869 1695.903924 273.269120 C1683.957482 274.108507 1671.924157 273.706117 1660.060477 272.070527 z"/><path class="selected"  fill="#000000" opacity="1.000000" stroke="none" 
 	d="
M259.844293 1.390925 C266.786121 1.392957 273.727948 1.394990 280.669776 1.397023 C281.481080 1.397260 282.353897 1.416651 283.007704 1.897016 C283.975133 2.607807 284.064065 3.994290 284.064034 5.194766 C284.063297 33.486342 284.062562 61.777917 284.061826 90.069492 C284.061805 90.883533 284.041723 91.761053 283.553710 92.412594 C282.848807 93.353701 281.493658 93.437708 280.317831 93.436983 C273.346430 93.432674 266.375029 93.428368 259.403629 93.424062 C258.591698 93.423560 257.716156 93.402859 257.067402 92.914647 C256.135599 92.213429 256.052233 90.870404 256.052266 89.704230 C256.053105 61.405462 256.053941 33.106695 256.054777 4.807928 C256.054801 3.979288 256.075510 3.085501 256.574131 2.423669 C257.288821 1.475046 258.656578 1.390576 259.844292 1.390923 z"/><path class="selected"  fill="#000000" opacity="1.000000" stroke="none" 
 	d="
M486.304873 1535.700974 C483.608156 1539.430355 480.571226 1543.403534 476.131370 1544.615247 C468.234508 1546.770437 461.263167 1539.338763 456.435527 1532.728228 C364.896803 1407.383329 273.358078 1282.038433 181.819353 1156.693536 C272.917264 1073.966599 364.597064 991.880431 456.849683 910.443156 C461.604866 906.245453 466.921379 901.818108 473.261861 901.642756 C480.262461 901.449156 486.191050 906.468366 491.363085 911.190222 C576.761798 989.155822 662.160513 1067.121419 747.559228 1145.087015 C750.359667 1147.643704 753.267105 1150.360067 754.480770 1153.952577 C756.768027 1160.722981 752.362865 1167.760338 748.175423 1173.551300 C660.885234 1294.267856 573.595053 1414.984415 486.304873 1535.700974 M211.018625 1159.954745 C298.190378 1279.268977 385.362131 1398.583208 472.533883 1517.897440 C556.047893 1402.074211 639.561902 1286.250982 723.075911 1170.427753 C725.621849 1166.896864 728.300277 1162.831140 727.532075 1158.546418 C726.904277 1155.044858 724.121734 1152.389425 721.489647 1149.996277 C638.804797 1074.817689 556.119956 999.639096 473.435115 924.460503 C385.628066 1002.584342 298.154838 1081.083378 211.018625 1159.954745 z"/><path class="selected"  fill="#000000" opacity="1.000000" stroke="none" 
 	d="
M1293.315780 1535.606969 C1204.277241 1411.921258 1115.238703 1288.235547 1026.200165 1164.549835 C1021.432309 1157.926684 1027.912776 1149.184728 1033.940793 1143.683674 C1119.005852 1066.054956 1204.070908 988.426236 1289.135964 910.797516 C1293.360225 906.942536 1297.925387 902.917092 1303.571217 902.006122 C1312.246559 900.606335 1320.092654 906.884855 1326.635844 912.750656 C1417.192941 993.932827 1507.750042 1075.114992 1598.307143 1156.297157 C1506.934908 1281.510280 1415.562672 1406.723404 1324.190436 1531.936527 C1318.989376 1539.063867 1311.250663 1547.090106 1302.875866 1544.312914 C1298.712680 1542.932347 1295.878325 1539.166666 1293.315780 1535.606969 M1306.627951 924.573826 C1223.992421 999.673052 1141.356891 1074.772279 1058.721362 1149.871505 C1056.052894 1152.296610 1053.235634 1154.977768 1052.558493 1158.519425 C1051.702941 1162.994221 1054.508414 1167.265586 1057.174221 1170.960074 C1140.591759 1286.566815 1224.009297 1402.173555 1307.426835 1517.780295 C1393.812976 1400.945855 1479.431582 1283.543909 1564.275265 1165.584589 C1565.545156 1163.819042 1566.872551 1161.870509 1566.776287 1159.697835 C1566.661344 1157.103701 1564.580356 1155.082737 1562.644119 1153.352497 C1477.305397 1077.092939 1391.966674 1000.833382 1306.627951 924.573826 z"/><path class="selected"  fill="#000000" opacity="1.000000" stroke="none" 
 	d="
M202.674588 724.384450 C207.027389 712.859502 222.274224 710.996722 234.593733 711.028478 C666.043933 712.140951 1097.494132 713.253412 1528.944331 714.365873 C1540.152189 714.394772 1554.650688 717.034545 1556.482548 728.091725 C1551.303517 736.473939 1539.692812 737.399239 1529.839709 737.399851 C1103.873360 737.426282 677.907011 737.452713 251.940662 737.479145 C234.476377 737.480228 215.045562 736.711668 202.674587 724.384454 z"/><path class="selected"  fill="#000000" opacity="1.000000" stroke="none" 
 	d="
M449.930503 672.522726 C444.776246 669.726997 439.955652 666.348246 435.356650 662.710714 C426.252340 655.509752 417.909242 647.181734 411.750896 637.342167 C397.839722 615.115437 396.508248 585.660737 408.000512 562.092196 C419.492776 538.523656 443.305429 521.505012 469.272730 517.865305 C495.240032 514.225598 522.637767 523.913224 540.839698 542.787490 C552.313963 554.685579 560.201492 569.999055 563.225733 586.249508 C569.596742 620.483473 551.922317 658.327326 520.730947 673.808039 C498.757623 684.713708 471.493515 684.218754 449.930505 672.522725 M464.208636 598.816996 C469.650345 589.389530 482.691549 588.550188 493.572782 588.846987 C506.081911 589.188198 518.591040 589.529404 531.100168 589.870609 C534.459963 589.962254 538.858367 589.256802 539.410977 585.941497 C539.563275 585.027782 539.350943 584.096081 539.118336 583.199444 C532.577757 557.987308 507.148635 539.056101 481.119819 540.021315 C455.091002 540.986529 431.133826 561.749104 426.478503 587.376412 C421.637458 614.026102 437.810012 642.530411 462.528135 653.605433 C484.178057 663.305741 512.138166 659.302559 528.001655 641.662696 C535.640720 633.168217 540.265015 621.751588 539.556202 610.349437 C523.678153 609.138900 507.725808 608.903663 491.818969 609.645493 C486.473371 609.894790 481.020760 610.243635 475.854506 608.848147 C470.688253 607.452659 465.755515 603.939957 464.208636 598.816996 z"/><path class="selected"  fill="#000000" opacity="1.000000" stroke="none" 
 	d="
M885.896174 1669.255888 C880.553423 1668.403869 876.022731 1664.995313 871.735529 1661.695189 C797.327104 1604.418419 722.918679 1547.141650 648.510254 1489.864882 C644.812918 1487.018813 640.833060 1483.711482 640.146524 1479.096391 C639.426254 1474.254527 642.585116 1469.778270 645.575768 1465.902907 C722.455949 1366.279648 799.701954 1266.938698 877.311699 1167.882737 C880.905016 1163.296464 884.683797 1158.558473 889.925980 1156.015770 C895.168163 1153.473067 902.319324 1153.851904 905.888427 1158.457045 C986.069203 1261.912864 1066.249980 1365.368673 1146.430758 1468.824483 C1151.385451 1475.217435 1156.632683 1483.038637 1154.232438 1490.762473 C1152.543940 1496.195908 1147.514949 1499.786326 1142.798965 1502.969516 C1064.663815 1555.709035 986.528669 1608.448558 908.393524 1661.188081 C901.621615 1665.758972 893.964402 1670.542543 885.896174 1669.255888 M890.399648 1644.370202 C893.782114 1644.081629 896.764999 1642.135232 899.586565 1640.247610 C972.937878 1591.175727 1046.289192 1542.103845 1119.640505 1493.031962 C1123.414736 1490.507009 1127.610275 1487.232903 1127.593034 1482.691987 C1127.581551 1479.669993 1125.642960 1477.039795 1123.791775 1474.651138 C1047.677841 1376.438550 971.563911 1278.225960 895.449981 1180.013369 C820.294940 1275.909047 745.483737 1372.074195 671.018295 1468.506342 C669.395924 1470.607298 667.679911 1473.065586 668.165960 1475.675156 C668.587786 1477.939903 670.543196 1479.550029 672.368408 1480.955595 C740.581876 1533.485603 808.795344 1586.015613 877.008811 1638.545623 C880.961083 1641.589199 885.429336 1644.794242 890.399648 1644.370203 z"/><path class="selected"  fill="#000000" opacity="1.000000" stroke="none" 
 	d="
M920.493611 681.066597 C897.534010 685.681973 872.706893 680.035981 854.001253 665.945416 C835.295613 651.854850 823.017228 629.550048 821.117097 606.208358 C818.483284 573.853915 836.726140 540.752266 865.486690 525.699767 C893.557484 511.008268 930.065435 514.256031 955.102016 533.671984 C980.138597 553.087936 992.371084 587.638547 985.128853 618.482667 C977.886623 649.326786 951.555186 674.822549 920.493611 681.066597 M957.467334 589.610432 C958.727003 589.622412 960.053510 589.618021 961.149872 588.997618 C963.431369 587.706578 963.622325 584.523564 963.311360 581.920621 C961.400438 565.925266 950.926435 551.452968 936.847534 543.624334 C922.768633 535.795699 905.491024 534.432050 889.993976 538.830287 C869.700238 544.589878 852.333958 560.466245 845.685619 580.486442 C838.830985 601.127857 843.931970 625.286815 858.546066 641.395267 C873.160162 657.503719 896.710019 664.925279 917.919244 660.106275 C939.128469 655.287272 957.159163 638.418087 963.377677 617.576203 C963.639587 616.698392 963.884129 615.797363 963.849678 614.881960 C963.674939 610.239029 957.456334 608.926692 952.810663 608.997952 C936.886015 609.242245 920.961369 609.486529 905.036723 609.730814 C901.557791 609.784181 897.735279 609.719476 895.101491 607.445937 C890.686278 603.634636 892.756995 595.798582 897.570134 592.504069 C902.383273 589.209556 908.628466 589.145965 914.460880 589.201432 C928.796365 589.337766 943.131849 589.474099 957.467334 589.610432 z"/><path class="selected"  fill="#000000" opacity="1.000000" stroke="none" 
 	d="
M603.481584 856.593554 C600.340450 862.236962 593.641677 865.679328 587.224550 864.947718 C555.708451 861.354604 523.944384 859.689565 492.242179 860.759701 C440.409216 862.509367 388.829755 871.608106 339.526634 887.699085 C329.942568 890.827021 320.410336 894.231946 311.446797 898.846409 C307.360595 900.950001 303.191451 903.360548 298.597124 903.480162 C294.002797 903.599777 288.929820 900.397922 288.898032 895.802148 C290.875096 886.227974 301.137731 881.128486 310.269970 877.639107 C360.802804 858.330781 413.955261 845.891821 467.808387 840.771309 C491.018152 838.564456 514.373981 837.710551 537.665856 838.736205 C554.437306 839.474733 571.188305 841.190930 587.650456 844.480998 C594.715780 845.893048 603.290005 849.391051 603.481588 856.593549 z"/><path class="selected"  fill="#000000" opacity="1.000000" stroke="none" 
 	d="
M1196.484371 846.784439 C1210.685834 843.138905 1224.926303 839.579949 1239.372830 837.076093 C1276.113219 830.708291 1314.042893 831.272275 1350.577712 838.729623 C1378.352028 844.398809 1405.156284 853.966406 1431.850955 863.503011 C1441.883343 867.087057 1451.915731 870.671103 1461.948119 874.255149 C1470.830420 877.428329 1480.890425 881.811150 1483.410818 890.900263 C1482.772337 896.278514 1477.067524 899.874861 1471.655785 900.090118 C1466.244047 900.305375 1461.087423 898.015241 1456.130535 895.832926 C1432.989826 885.645001 1409.260649 876.793906 1385.100714 869.338463 C1368.480195 864.209585 1351.628537 859.734859 1334.476317 856.845504 C1286.312223 848.732085 1236.047252 853.446072 1190.231527 870.373178 C1188.338653 871.072520 1186.382625 871.803653 1184.368370 871.681893 C1177.676577 871.277378 1175.279244 861.503153 1179.115016 856.004919 C1182.950787 850.506685 1189.990897 848.451323 1196.484372 846.784439 z"/><path class="selected"  fill="#000000" opacity="1.000000" stroke="none" 
 	d="
M163.186628 627.771490 C151.282826 613.203334 149.231558 591.326745 158.219700 574.799647 C167.207842 558.272549 186.686237 548.104711 205.384572 550.179304 C224.082907 552.253897 240.858754 566.444168 246.005508 584.539543 C248.074541 591.814002 248.383482 599.541564 247.273987 607.022719 C245.190487 621.071435 237.402374 634.880329 224.693009 641.219053 C221.807267 642.658302 218.730620 643.692183 215.596768 644.452389 C196.806412 649.010528 175.420871 642.744046 163.186629 627.771490 M208.595900 576.440387 C203.432438 574.677811 197.658934 574.763913 192.550328 576.679680 C181.907479 580.670831 175.195927 593.084634 177.684689 604.175422 C180.173451 615.266210 191.545685 623.622029 202.873427 622.683001 C214.201169 621.743974 224.042298 611.629647 224.670869 600.280443 C225.239955 590.005278 218.335027 579.764893 208.595901 576.440389 z"/><path class="selected"  fill="#000000" opacity="1.000000" stroke="none" 
 	d="
M1491.078842 560.403445 C1495.291170 558.398167 1499.974418 557.527212 1504.635266 557.323871 C1519.797086 556.662401 1535.261021 563.404505 1544.536031 575.416686 C1553.811041 587.428867 1556.359579 604.498387 1550.349540 618.433872 C1546.799884 626.664467 1540.506241 633.611303 1532.894926 638.345290 C1518.215283 647.475543 1498.278970 647.826721 1483.739608 638.474693 C1469.200247 629.122666 1461.224321 610.231758 1465.482080 593.476910 C1467.578238 585.228246 1472.287062 577.847819 1477.824992 571.385182 C1481.586163 566.995981 1485.859781 562.887977 1491.078841 560.403446 M1525.137967 590.479880 C1519.829013 583.312442 1509.036156 580.903358 1501.183265 585.132926 C1493.330374 589.362495 1489.402827 599.699991 1492.466092 608.076957 C1493.011933 609.569644 1493.790231 611.042986 1495.062477 611.995586 C1500.944119 616.399482 1508.825317 618.448014 1515.862566 616.334929 C1522.899816 614.221844 1528.612106 607.505999 1528.523279 600.158882 C1528.481279 596.684756 1527.205948 593.271791 1525.137967 590.479880 z"/><path class="selected"  fill="#000000" opacity="1.000000" stroke="none" 
 	d="
M220.563695 1631.984871 C223.600286 1631.178291 226.782612 1631.072369 229.920737 1631.226112 C239.627693 1631.701675 249.326131 1634.728263 257.061461 1640.611783 C264.796790 1646.495304 270.419598 1655.348357 271.588025 1664.996461 C273.002234 1676.674049 269.360061 1688.877049 261.776664 1697.869164 C254.193267 1706.861278 242.779927 1712.510554 231.031166 1713.087303 C229.106942 1713.181765 227.124906 1713.136933 225.335898 1712.422086 C223.048798 1711.508211 221.147597 1709.532977 218.694351 1709.314852 C203.515496 1707.965275 191.478821 1693.505374 190.287980 1678.313240 C189.097139 1663.121106 197.220122 1648.204586 208.963950 1638.493687 C212.407874 1635.645925 216.244641 1633.132101 220.563695 1631.984873 M247.466325 1665.122905 C244.876708 1659.975231 239.673634 1656.546558 234.195671 1654.758660 C225.086720 1651.785677 214.266543 1658.462914 212.363966 1667.853963 C210.461389 1677.245013 217.352378 1687.361947 226.686329 1689.527351 C233.195490 1691.037428 240.502607 1688.865808 244.906967 1683.840757 C249.311327 1678.815706 250.469249 1671.092159 247.466325 1665.122906 z"/><path class="selected"  fill="#000000" opacity="1.000000" stroke="none" 
 	d="
M1544.460591 1716.354259 C1541.397344 1714.636355 1537.846883 1714.063902 1534.497331 1713.007880 C1522.628939 1709.266111 1513.222037 1698.942272 1509.997610 1686.923010 C1506.773183 1674.903749 1509.591517 1661.549488 1516.893599 1651.472823 C1520.599570 1646.358688 1525.497389 1641.980675 1531.353877 1639.616332 C1538.303685 1636.810600 1546.047259 1636.994974 1553.538620 1637.221824 C1557.555319 1637.343456 1561.659658 1637.481866 1565.414979 1638.912332 C1569.952459 1640.640736 1573.594222 1644.109413 1576.834825 1647.725293 C1581.217308 1652.615289 1585.189022 1658.083985 1587.025032 1664.388530 C1588.167475 1668.311483 1588.445954 1672.439645 1588.370397 1676.524866 C1588.174056 1687.140701 1585.250446 1698.313874 1577.461677 1705.529800 C1571.343510 1711.197992 1563.041474 1713.738081 1555.045125 1716.108476 C1551.563679 1717.140498 1547.627730 1718.130426 1544.460591 1716.354259 M1552.300634 1693.427024 C1553.973537 1693.145315 1555.614954 1692.668046 1557.168224 1691.985906 C1561.882167 1689.915710 1565.721541 1685.859662 1567.367690 1680.981429 C1569.478879 1674.725089 1567.764015 1667.379753 1563.214448 1662.594323 C1558.664881 1657.808893 1551.512654 1655.721735 1545.066554 1657.152363 C1538.496974 1658.610394 1532.813856 1663.703078 1530.822854 1670.131229 C1528.831851 1676.559381 1530.703418 1684.069866 1535.604423 1688.681305 C1539.971322 1692.790195 1546.387819 1694.422715 1552.300634 1693.427023 z"/><path class="selected"  fill="#000000" opacity="1.000000" stroke="none" 
 	d="
M1691.945033 1629.184573 C1677.932060 1637.006015 1659.029419 1634.836175 1647.153235 1624.042908 C1635.277051 1613.249642 1631.315247 1594.639909 1637.765324 1579.945187 C1644.215402 1565.250465 1660.595119 1555.569407 1676.578789 1557.004899 C1692.562459 1558.440392 1706.955062 1570.885112 1710.683575 1586.493972 C1711.315472 1589.139312 1711.666839 1591.851570 1711.729885 1594.570603 C1711.938484 1603.567046 1708.879606 1612.604240 1703.249730 1619.624495 C1700.143038 1623.498429 1696.281102 1626.764365 1691.945033 1629.184573 M1658.243709 1601.426593 C1658.878765 1602.973869 1659.754908 1604.421920 1660.830818 1605.702458 C1663.999030 1609.473230 1668.958660 1611.667930 1673.880022 1611.476897 C1681.976206 1611.162627 1689.191359 1603.909924 1689.463600 1595.812219 C1689.735841 1587.714513 1683.024093 1579.993595 1674.967298 1579.136270 C1666.910503 1578.278945 1658.724278 1584.414567 1657.286361 1592.388233 C1656.741396 1595.410225 1657.077757 1598.585823 1658.243709 1601.426593 z"/><path class="selected"  fill="#000000" opacity="1.000000" stroke="none" 
 	d="
M118.742668 1627.073844 C104.749924 1633.104243 87.109346 1629.236853 76.922847 1617.905576 C66.736348 1606.574299 64.762502 1588.622959 72.243528 1575.349043 C79.724554 1562.075126 96.103352 1554.467124 111.072096 1557.313053 C116.722305 1558.387297 122.539661 1559.527621 127.337987 1562.698572 C134.055057 1567.137513 137.743812 1574.824684 141.117512 1582.135045 C143.094307 1586.418499 145.101382 1591.297356 143.399478 1595.697267 C142.517225 1597.978148 140.696799 1599.879960 140.230255 1602.280611 C139.900631 1603.976730 140.284615 1605.779575 139.764757 1607.427367 C138.576375 1611.194178 133.227010 1612.701415 132.645018 1616.608127 C132.247190 1619.278610 129.696675 1621.006305 127.382098 1622.396440 C124.572497 1624.083884 121.752454 1625.776727 118.742668 1627.073843 M115.398490 1580.959880 C109.329832 1575.520521 98.863905 1575.774826 93.382806 1581.805811 C87.901707 1587.836796 88.903908 1598.675558 95.640876 1603.261240 C100.769828 1606.752388 107.767248 1608.038628 113.251868 1605.138077 C117.446308 1602.919841 120.274817 1598.399924 120.630099 1593.668364 C120.985381 1588.936803 118.931819 1584.126816 115.398490 1580.959881 z"/><path class="selected"  fill="#000000" opacity="1.000000" stroke="none" 
 	d="
M1305.710820 1041.438084 C1314.835574 1045.201901 1316.237927 1057.320474 1316.228018 1067.191004 C1316.176478 1118.503375 1316.124943 1169.815745 1316.073407 1221.128115 C1316.067561 1226.949077 1315.155758 1234.154908 1309.697232 1236.176819 C1305.374936 1237.777855 1300.443513 1234.757874 1298.305444 1230.674466 C1296.167376 1226.591058 1296.113035 1221.775291 1296.107116 1217.166005 C1296.042475 1166.833426 1295.977835 1116.500848 1295.913194 1066.168270 C1295.901113 1056.761310 1297.134292 1045.302567 1305.710818 1041.438083 z"/><path class="selected"  fill="#000000" opacity="1.000000" stroke="none" 
 	d="
M1260.611703 1195.625604 C1259.902861 1192.958190 1260.582916 1189.834560 1258.943799 1187.614008 C1255.747155 1183.283438 1255.627683 1177.487304 1255.636976 1172.104714 C1255.648581 1165.383559 1255.938392 1157.937265 1260.605478 1153.100700 C1262.418138 1151.222215 1265.174368 1149.865799 1267.624162 1150.767435 C1271.385942 1152.151946 1273.975389 1155.765333 1275.148916 1159.598176 C1276.322443 1163.431020 1276.293027 1167.513979 1276.253369 1171.522256 C1276.191856 1177.738847 1276.130347 1183.955437 1276.068838 1190.172028 C1276.045224 1192.558592 1275.998114 1195.044970 1274.907305 1197.167794 C1273.494896 1199.916484 1270.302445 1201.637115 1267.229933 1201.305657 C1264.157420 1200.974199 1261.405389 1198.612285 1260.611704 1195.625604 z"/><path class="selected"  fill="#000000" opacity="1.000000" stroke="none" 
 	d="
M474.517675 1041.836867 C482.673829 1044.659782 484.087772 1055.403331 484.089765 1064.034187 C484.101359 1114.233286 484.112953 1164.432384 484.124546 1214.631483 C484.126542 1223.270794 482.645795 1234.082102 474.423511 1236.733842 C470.193679 1237.262612 466.284226 1233.842094 464.750931 1229.864650 C463.217637 1225.887207 463.484167 1221.478061 463.688506 1217.220210 C464.201383 1206.533336 464.180645 1195.828856 464.159790 1185.129702 C464.081377 1144.901693 464.002964 1104.673684 463.924551 1064.445675 C463.906961 1055.421722 465.733458 1043.903163 474.517675 1041.836867 z"/><path class="selected"  fill="#000000" opacity="1.000000" stroke="none" 
 	d="
M1329.932269 618.079536 C1328.502182 615.953637 1327.258046 613.699654 1326.269963 611.335697 C1323.402005 604.474196 1322.770585 596.703287 1324.464205 589.461946 C1327.356331 577.096213 1337.269439 566.657644 1349.436719 563.019925 C1361.603999 559.382205 1375.560565 562.630805 1384.949719 571.181799 C1394.338873 579.732793 1398.873465 593.257757 1396.651802 605.761353 C1394.832531 616.000270 1388.628346 625.384222 1379.920043 631.068465 C1378.034160 632.299453 1376.039243 633.363191 1373.966894 634.244812 C1370.314761 635.798508 1366.391936 636.787120 1362.423396 636.839405 C1358.304351 636.893675 1354.215794 635.939856 1350.377260 634.444820 C1342.116731 631.227500 1334.880332 625.435091 1329.932270 618.079537 M1345.670675 599.128852 C1345.654608 608.445380 1356.351953 614.954892 1365.577020 613.652553 C1369.322881 613.123735 1373.219815 611.386207 1374.893790 607.993726 C1375.530422 606.703527 1375.799592 605.266075 1376.002556 603.841744 C1376.869500 597.757819 1376.164596 590.565885 1371.129161 587.043084 C1369.478271 585.888117 1367.509058 585.257635 1365.522548 584.921231 C1356.389870 583.374666 1345.686651 589.866162 1345.670676 599.128851 z"/><path class="selected"  fill="#000000" opacity="1.000000" stroke="none" 
 	d="
M524.331284 1176.577424 C524.142813 1180.129898 523.855272 1183.949088 521.594527 1186.695836 C519.488869 1189.254157 520.400606 1193.111270 519.308697 1196.239614 C517.452442 1201.557825 508.895363 1202.636391 505.777479 1197.945138 C504.178951 1195.539950 504.075093 1192.474736 504.023991 1189.587245 C503.930257 1184.290840 503.836523 1178.994436 503.742790 1173.698031 C503.628090 1167.216955 503.640185 1160.280044 507.242649 1154.891189 C509.445383 1151.596164 514.112761 1149.143086 517.300298 1151.498682 C524.593642 1156.888484 524.811739 1167.521381 524.331284 1176.577424 z"/></svg>